<?xml version="1.0" encoding="utf-8"?>
<!-- Generator: Adobe Illustrator 16.2.1, SVG Export Plug-In . SVG Version: 6.00 Build 0)  -->
<!DOCTYPE svg PUBLIC "-//W3C//DTD SVG 1.1//EN" "http://www.w3.org/Graphics/SVG/1.1/DTD/svg11.dtd">
<svg version="1.1" id="Layer_1" xmlns="http://www.w3.org/2000/svg" xmlns:xlink="http://www.w3.org/1999/xlink" x="0px" y="0px"
	 width="854.039px" height="581.331px" viewBox="0 0 854.039 581.331" enable-background="new 0 0 854.039 581.331"
	 xml:space="preserve">
<g>
	<path fill-rule="evenodd" clip-rule="evenodd" d="M0,206.985c0.823-1.96,1.774-3.877,2.448-5.887
		c4.582-13.66,13.536-24.755,21.56-36.341c7.181-10.369,14.557-20.674,22.698-30.287c7.167-8.463,15.502-15.938,23.348-23.824
		c0.936-0.94,2.198-1.583,3.038-2.589c13.382-16.022,30.731-27.471,46.75-40.435c3.968-3.211,8.515-5.859,13.117-8.105
		c16.603-8.104,33.074-16.57,50.111-23.661c14.979-6.233,30.389-11.84,46.091-15.816c14.913-3.776,30.408-5.422,45.727-7.377
		c15.811-2.018,31.293-1.557,46.331,5.616c4.218,2.013,10.89,2.322,15.896-1.489c0.989-0.753,2.164-1.261,3.812-2.2
		c-3.874,6.677-11.431,9.459-17.7,6.339c-13.73-6.833-28.354-6.974-42.967-5.617c-11.893,1.104-23.595,4.248-35.487,5.376
		c-25.984,2.464-49.513,12.299-72.754,23.095c-14.335,6.659-28.442,13.814-42.635,20.779c-1.64,0.806-3.246,1.722-4.749,2.76
		c-23.651,16.325-44.863,35.484-64.923,55.978c-0.317,0.324-0.469,0.809-0.278,1.728c4.161-3.316,8.281-6.685,12.49-9.938
		c19.034-14.716,38.104-29.385,57.14-44.098c13.883-10.73,29.629-17.901,46.067-23.516c16.485-5.631,33.087-10.982,49.836-15.759
		c12.242-3.491,24.804-5.858,37.228-8.708c1.593-0.365,3.211-0.622,4.662-1.153c-16.862,6.374-34.05,12.009-50.511,19.288
		c-27.146,12.005-51.168,28.765-69.236,52.67c-9.287,12.288-19.05,24.926-24.817,38.96c-5.608,13.645-15.033,24.752-20.655,38.013
		c-6.154,14.513-11.649,29.326-16.833,44.217c-1.526,4.385-1.021,9.478-1.448,14.245c0.5,0.173,1,0.346,1.5,0.518
		c1.062-1.9,2.125-3.801,3.187-5.702l-0.109-0.1c1.261-0.079,2.546-0.032,3.777-0.266c2.062-0.392,4.09-0.961,6.133-1.455
		c0.121,0.476,0.241,0.952,0.361,1.428c-8.763,15.691-17.527,31.383-26.291,47.074c-0.307-0.178-0.614-0.354-0.92-0.532
		c6.894-14.038,13.789-28.076,20.683-42.113c-0.486-0.321-0.972-0.643-1.458-0.964c-5.365,7.129-10.752,14.241-16.084,21.395
		c-2.423,3.251-6.414,6.423-6.745,9.91c-0.648,6.833,0.344,13.958,3.493,20.046c9.283-10.391,18.329-20.517,27.375-30.643
		c0.418,0.324,0.837,0.647,1.255,0.972c-5.229,15.806-15.011,29.319-22.636,43.919c4.134-9.954,8.268-19.908,12.563-30.252
		c-4.149,3.942-8.079,7.651-11.98,11.389c-6.865,6.578-7.303,11.887-1.702,20.253c0.313,6.461,0.627,12.922,0.941,19.384
		c0.633,0.064,1.266,0.129,1.898,0.194c1.626-6.13,3.606-12.192,4.796-18.406c1.776-9.274,8.328-14.36,15.861-20.308
		c-0.317,6.123-0.572,11.03-0.825,15.904c6.523-0.68,11.831,1.579,15.338,6.22c9.057-1.804,14.943,3.57,21.19,7.926l0.073-0.096
		c-5.6-1.964-11.199-3.929-17.304-6.07c-3.959,5.549-7.239-0.905-10.309-2.314c-6.226-2.859-11.341-2.794-15.277,3.038
		c-5.207,7.715-12.299,14.629-11.217,25.816c-6.589-7.154-5.497-15.729-7.751-23.24c-1.38-4.601-1.924-9.46-3.386-14.028
		c-3.465-10.825-4.977-21.933-6.662-33.141c-1.527-10.162-6.185-19.848-9.381-29.77c-1.207-3.744-2.184-7.562-3.418-11.877
		c-0.345-0.103-1.497-0.443-2.852-0.845c0.448-0.712,0.607-1.264,0.969-1.488c2.098-1.301,4.243-2.525,6.372-3.775
		c0.034,2.276-0.073,4.565,0.136,6.826c0.307,3.327,0.839,6.634,1.904,9.954c4.454-7.842,8.674-15.284,17.681-19.005
		c-8.027,16.125-14.176,32.374-7.026,49.778c4.854-7.216,10.037-14.879,15.141-22.595c0.398-0.602,0.476-1.619,0.313-2.356
		c-2.919-13.24,0.783-25.621,6.017-37.332c7.254-16.232,15.039-32.293,23.686-47.82c9.852-17.691,20.123-35.254,31.636-51.887
		c13.163-19.016,31.06-33.208,51.504-44.103c5.268-2.807,10.396-5.876,15.295-9.625c-2.869,0.85-5.794,1.547-8.599,2.573
		c-16.692,6.11-33.98,11.031-49.84,18.844c-13.582,6.691-25.742,16.414-38.112,25.375c-10.365,7.509-19.53,16.788-30.285,23.618
		c-18.323,11.636-32.251,27.599-46.205,43.617c-7.642,8.773-15.209,17.774-21.485,27.526c-5.69,8.842-9.562,18.853-14.298,28.316
		c-0.557,1.111-1.508,2.026-2.277,3.032C0,210.318,0,208.652,0,206.985z M86.193,300.34c0.578,0.222,1.155,0.444,1.732,0.666
		c3.298-6.782,6.596-13.565,9.894-20.349c-0.504-0.246-1.008-0.493-1.511-0.739C90.888,285.697,85.976,291.729,86.193,300.34z
		 M66.492,214.421c-8.933,8.48-9.91,13.1-4.412,20.207C63.517,228.05,64.978,221.358,66.492,214.421z"/>
	<path fill-rule="evenodd" clip-rule="evenodd" d="M594.041,228.999c-2.049,3.271-4.099,6.543-6.148,9.814
		c-0.333-0.089-0.666-0.179-1-0.269c1.769-11.204,4.171-22.353,5.17-33.625c1.907-21.518,4.597-43.145,4.088-64.658
		c-0.789-33.369-13-63.837-28.412-93.137c-6.248-11.878-14.761-21.225-26.023-28.258c-0.538-0.336-1.179-0.507-2.988-1.263
		c0.84,2.159,1.146,3.455,1.799,4.541c4.945,8.222,9.975,16.394,14.946,24.599c6.101,10.068,7.42,21.471,9.509,32.74
		c0.91,4.91,3.092,9.837,5.73,14.117c4.027,6.534,4.065,6.918-0.602,12.837c-8.146,10.33-15.367,21.272-20.24,33.636
		c-1.826,4.633-4.75,8.861-6.311,13.562c-1.424,4.287-2.434,8.991-2.252,13.457c0.201,4.978-2.832,6.021-6.17,6.859
		c-14.897,3.74-25.09,13.989-34.312,25.207c-5.875,7.146-8.012,15.767-7.265,25.29c0.881,11.224,2.184,22.63-2.646,33.465
		c-0.396,0.89-0.821,1.766-1.848,2.499c0.635-3.811,1.744-7.615,1.797-11.434c0.09-6.641,0.149-13.387-0.879-19.915
		c-2.858-18.131,4.98-31.668,17.697-43.192c4.553-4.127,9.316-8.257,14.625-11.245c4.617-2.6,10.14-3.593,15.085-5.236
		c3.123-26.902,19.446-47.848,33.133-70.815c-5.659-6.241-8.702-15.275-10.152-24.704c-1.747-11.361-7.049-21.364-10.894-31.926
		c-1.08-2.967-2.215-5.954-3.725-8.713c-1.604-2.93-3.697-5.59-5.549-8.387c-1.342-2.027-2.641-4.085-3.959-6.129
		c0.195-0.494,0.391-0.989,0.586-1.483c2.248,0.119,4.65-0.236,6.72,0.437c12.545,4.078,20.125,13.592,26.328,24.56
		c13.763,24.332,21.325,50.648,27.039,77.91c3.903,18.621,4.155,36.697,1.464,55.295c-1.682,11.616-1.861,23.451-2.443,35.111
		c13.239-62.613,10.279-123.01-26.041-178.708c23.347,4.708,37.684,19.351,49.348,37.701c11.403,17.938,21.475,36.306,26.177,57.347
		c2.167,9.692,5.629,19.131,8.966,28.52c8.504,23.927,10.487,49.031,14.085,73.882c2.195,15.159,3.053,30.249,0.02,45.227
		c-3.196,15.788-7.421,31.366-11.093,47.061c-5.302,22.664-13.688,44.155-24.354,64.799c-0.805,1.557-1.336,3.255-1.033,5.351
		c5.272-9.717,10.906-19.258,15.749-29.185c13.335-27.332,20.511-56.331,24.722-86.447c2.598-18.574-1.163-36.445-1.688-54.641
		c-0.226-7.821-0.348-15.683-1.266-23.437c-0.838-7.066-2.218-14.146-4.18-20.985c-6.05-21.094-13.666-41.812-18.433-63.178
		c-4.234-18.981-13.978-34.101-25.635-48.862c-7.388-9.354-15.696-17.614-24.734-25.192c-5.536-4.643-11.692-8.542-17.468-12.909
		c-1.371-1.037-2.335-2.613-3.486-3.941c0.346-0.59,0.692-1.18,1.038-1.771c11.722,4.95,23.469,9.843,35.151,14.882
		c4.246,1.831,8.416,3.872,12.49,6.062c22.022,11.833,42.493,25.63,57.58,46.128c0.461,0.626,0.751,1.379,0.898,2.276
		c-28.137-28.308-61.068-48.991-98.445-62.775c6.008,4.409,12.094,8.717,18.008,13.249c11.35,8.699,19.92,19.924,28.129,31.449
		c2.601,3.651,4.946,7.495,7.709,11.015c7.546,9.615,10.104,21.026,12.9,32.585c3.944,16.312,8.879,32.389,13.539,48.523
		c2.657,9.197,6.552,18.146,8.166,27.503c1.658,9.612,1.363,19.582,1.664,29.403c0.433,14.127,0.506,28.267,0.955,42.393
		c1.158,36.394-9.602,69.883-25.075,102.13c-4.658,9.708-10.562,18.818-15.504,28.645c2.438-3.048,4.928-6.056,7.307-9.149
		c16.432-21.374,33.437-42.341,49.07-64.284c12.882-18.08,41.463-19.929,57.99-12.212c9.909,4.627,19.433,9.711,25.155,19.65
		c1.016,1.764,1.778,3.673,3.072,6.385c-1.597-0.532-2.24-0.552-2.363-0.814c-5.955-12.806-17.935-17.634-29.808-22.66
		c-9.858-4.173-20.228-4.369-30.399-2.736c-7.967,1.278-14.034,6.959-18.914,13.168c-11.722,14.913-22.783,30.351-34.655,45.14
		c-9.16,11.41-18.979,22.31-28.848,33.125c-4.053,4.441-9.003,8.065-13.813,12.299c4.01-9.881,7.718-19.852,12.062-29.537
		c7.426-16.553,15.506-32.812,19.959-50.545c4.535-18.062,9.555-36.009,13.761-54.146c1.525-6.576,1.488-13.547,1.856-20.354
		c1.104-20.427-1.96-40.497-5.457-60.52c-0.086-0.492-0.157-0.988-0.264-1.477c-0.782-3.614-1.071-10.095-2.447-10.335
		c-5.488-0.958-11.737-1.214-16.93,0.55c-10.938,3.716-18.072,12.616-25.133,21.397c-5.097,6.339-10.707,12.274-16.256,18.233
		c-1.301,1.396-3.281,2.159-4.95,3.213c7.536-9.729,14.689-19.788,22.704-29.106c10.312-11.99,21.557-22.841,39.705-17.795
		c0.222,0.062,0.551-0.26,1.095-0.537c-0.359-1.374-0.697-2.813-1.112-4.229c-3.649-12.45-7.953-24.75-10.836-37.374
		c-5.55-24.297-14.878-46.722-29.227-67.187c-10.562-15.066-21.536-29.361-40.074-35.42c3.246,5.872,7.205,11.492,9.612,17.712
		c5.087,13.147,9.339,26.616,13.981,39.938c3.571,10.249,5.441,20.774,5.219,31.634c-0.312,15.118-0.394,30.25-1.161,45.346
		c-0.487,9.596-1.485,19.242-3.272,28.674C599.619,210.248,596.556,219.571,594.041,228.999z"/>
	<path fill-rule="evenodd" clip-rule="evenodd" d="M517.944,53.927c-1.136,1.006-2.272,2.012-3.409,3.019
		c-0.225-0.178-0.448-0.355-0.672-0.533c2.531-6.473,4.76-13.086,7.68-19.38c3.029-6.53,4.689-12.567-1.869-17.662
		c-2.928-0.196-6.011-0.403-10.306-0.692c-8.325,8.572-5.415,21.188-8.497,32.742c-1.235-4.812-3.498-9.627-3.486-14.436
		c0.023-9.265,0.65-18.65,2.311-27.752c1.537-8.425,4.268-9.432,12.365-6.996c3.887,1.169,7.639,2.519,10.888-1.486
		c0.556-0.684,2.212-0.857,3.271-0.692c19.836,3.102,39.652,6.322,59.485,9.446c10.656,1.679,21.457,2.665,31.967,4.987
		c9.834,2.173,19.388,5.639,29.029,8.648c5.23,1.633,10.587,3.069,15.528,5.364c7.766,3.604,15.222,7.873,22.822,11.833
		c5.164,2.689,10.525,5.051,15.48,8.078c4.711,2.879,9.007,6.435,13.488,9.688c0.809,0.587,1.579,1.259,2.462,1.707
		C737,70.227,750.954,88.37,767.579,103.345c16.97,15.286,30.116,33.949,43.358,52.292c14.679,20.333,27.777,41.807,41.529,62.807
		c0.691,1.056,1.056,2.326,1.572,3.496c-0.448,0.309-0.897,0.618-1.347,0.927c-3.972-4.03-8.076-7.939-11.885-12.118
		c-5.576-6.12-13.594-8.153-21.247-5.019c-11.363,4.652-19.332,12.438-23.709,24.173c-6.246,16.746-7.902,33.691-5.932,51.502
		c1.697,15.33,1.718,30.968-3.153,45.947c-1.598,4.915-4.699,9.341-7.824,15.357c-0.344-5.512-0.698-9.552-0.832-13.599
		c-0.81-24.401-8.253-47.385-14.617-70.655c-6.387-23.353-15.954-45.492-24.032-68.19c-5.674-15.943-12.674-30.946-20.798-45.567
		c-9.306-16.745-20.473-32.264-32.375-47.255c-0.494-0.622-0.935-1.285-1.4-1.93c0.295-0.287,0.59-0.574,0.885-0.861
		c2.824,2.979,5.778,5.845,8.451,8.953c21.199,24.651,36.526,52.56,46.958,83.35c4.104,12.111,10.394,23.498,14.284,35.664
		c6.116,19.126,11.013,38.641,16.491,57.973c1.886,6.653,3.971,13.251,5.964,19.874c0.597-0.141,1.193-0.281,1.79-0.422
		c-2.005-9.48-3.574-19.08-6.13-28.409c-2.808-10.247-6.626-20.214-9.816-30.361c-3.028-9.629-5.797-19.339-8.718-29.002
		c-1.004-3.321-1.938-6.683-3.221-9.899c-5.853-14.664-11.235-29.557-17.929-43.832c-5.251-11.2-12.001-21.719-18.418-32.34
		c-3.601-5.959-7.99-11.435-11.826-17.26c-10.24-15.55-22.851-28.913-36.826-41.146c-9.237-8.086-17.659-17.146-28.605-23.082
		c-5.11-2.771-10.445-5.142-15.464-8.061c-8.864-5.155-17.563-10.593-26.332-15.912c0.073-0.532,0.146-1.064,0.221-1.597
		c1.931-0.328,3.969-1.229,5.775-0.892c13.227,2.472,26.609,4.469,39.528,8.091c8.57,2.403,16.232,7.889,24.704,10.835
		c11.208,3.899,20.505,10.871,30.452,16.843c4.973,2.985,10.018,5.855,15.108,8.634c1.229,0.67,2.769,0.766,5.021,1.346
		c-9.401-8.402-18.59-15.242-29.527-19.8c-7.321-3.05-14.068-7.477-21.072-11.287c-0.729-0.396-1.414-0.914-2.187-1.181
		c-12.082-4.176-23.929-9.398-36.321-12.222c-19.073-4.345-38.499-7.182-57.822-10.382c-13.061-2.163-26.19-3.928-39.315-5.673
		c-2.029-0.27-4.854-0.224-6.189,0.951c-5.354,4.71-10.443,2.887-15.701,0.249c-0.686-0.344-1.309-0.812-2.179-1.359
		c-6.968,9.929-6.188,21.266-7.009,32.241c1.119-4.642,1.643-9.544,3.529-13.85c1.829-4.177,5.059-7.739,9.135-11.647
		c0.148,1.366,0.35,2.729,0.427,4.101c0.065,1.166-0.013,2.341-0.028,3.512c1.246-0.05,2.56,0.135,3.721-0.204
		c1.851-0.539,3.6-1.427,5.535-2.228c1.253,2.088,2.428,4.267,3.812,6.303c2.494,3.669,2.611,7.484,0.82,11.38
		c-2.572,5.595-5.337,11.102-7.877,16.711c-0.605,1.338-0.645,2.932-0.945,4.408L517.944,53.927z M784.104,330.031
		c0.149-0.51,0.961-2.041,0.999-3.591c0.367-15.074,1.812-30.25,0.586-45.204c-1.661-20.266,0.412-39.578,8.912-57.979
		c7.771-16.825,23.138-24.21,39.125-19.512c0.22,0.064,0.529-0.176,1.328-0.47c-11.161-15.512-22.328-30.812-33.262-46.276
		c-18.334-25.929-40.473-48.571-61.911-71.807c-4.362-4.729-9.385-9.102-14.795-12.554c-9.766-6.231-20.113-11.543-30.107-17.425
		c-12.989-7.645-25.815-15.578-40.065-20.776c-1.865-0.681-3.737-1.363-5.647-1.897c-10.244-2.865-20.492-5.72-30.76-8.502
		c-5.428-1.471-10.896-2.786-16.346-4.171c-0.168,0.466-0.334,0.931-0.502,1.396c7.322,4.447,14.55,9.062,21.998,13.287
		c5.922,3.357,12.727,5.431,18.065,9.488c12.826,9.747,25.448,19.859,37.322,30.731c7.975,7.301,15.004,15.789,21.591,24.408
		c6.953,9.1,13.151,18.816,19.188,28.567c8.562,13.833,17.471,27.52,22.214,43.354c1.376,4.593,3.4,8.993,5.145,13.475
		c5.119,13.158,10.503,26.22,15.281,39.5c3.145,8.74,5.429,17.791,8.085,26.706c2.412,8.101,5.18,16.119,7.102,24.336
		c1.847,7.895,3.181,15.954,4.068,24.016C782.878,309.667,783.379,320.276,784.104,330.031z M825.492,184.909
		c-19.267-31.904-40.152-62.54-68.997-86.813C780.932,125.886,805.949,153.214,825.492,184.909z"/>
	<path fill-rule="evenodd" clip-rule="evenodd" d="M439.745,77.451c1.835-1.015,3.671-2.028,5.507-3.043
		c0.273,0.229,0.547,0.457,0.82,0.686c-1.524,2.791-3.048,5.581-5.267,9.645c3.65,1.503,7.391,3.044,11.132,4.585
		c0.071-0.318,0.142-0.637,0.213-0.955c1.036,0.979,1.962,2.647,3.126,2.835c16.028,2.577,33.893,26.94,34.785,40.344
		c0.232,3.485,0.52,6.971,0.904,10.443c1.562,14.094-4.677,25.141-13.584,35.193c-3.188,3.597-6.244,7.308-8.834,10.348
		c5.738,0.369,11.44,0.735,17.143,1.102l-0.098-0.111c-1.605,0.803-3.244,2.34-4.81,2.269c-4.497-0.203-8.966-1.057-14.407-1.783
		c2.58-4.212,4.879-8.159,7.373-11.979c2.002-3.062,4.345-5.901,6.356-8.957c16.097-24.452,3.804-58.566-20.392-71.108
		c-4.457-2.31-8.682-3.335-13.915-0.33c-4.254,2.443-9.85,2.526-14.827,3.751c-1.697,0.417-3.323,1.124-4.981,1.699
		c-0.071,0.569-0.142,1.139-0.213,1.709c1.97,0.637,3.939,1.274,6.701,2.169c1.894,5.385,5.436,10.084,12.569,12.031
		c4.404,1.202,7.951,10.207,7.162,14.908c-0.941,5.614-3.628,10.135-7.857,14.076c-10.459,9.745-22.345,17.176-35.09,23.531
		c-9.939,4.957-14.301,14.146-17.409,24.424c-3.875,12.814-4.181,25.475-0.719,38.291c0.776,2.872,1.647,5.821,3.083,8.396
		c5.004,8.973,6.631,18.64,7.25,28.755c1.093,17.839,4.42,35.22,12.826,51.319c-7.99-9.784-12.268-21.137-14.411-34.488
		c-7.051,8.992-12.248,17.785-15.642,27.53c-4.292,12.32-7.202,24.999-7.244,38.104c-0.015,4.673,1.002,9.412,2.146,13.972
		c0.217,0.866,3.361,1.693,4.95,1.407c9.361-1.686,16.352-6.989,21.549-14.863c2.087-3.161,4.671-6.026,6.491-9.323
		c1.02-1.847,0.94-4.301,0.527-6.783c-6.224,7.207-12.448,14.414-18.672,21.621c-0.256-0.199-0.513-0.399-0.77-0.599
		c6.214-8.762,13.039-17.163,18.47-26.385c5.506-9.351,9.635-19.512,15.268-29.154c-12.824,22.867-13.364,46.648-5.901,71.936
		c-0.922-1.059-1.292-1.42-1.586-1.836c-0.366-0.519-0.668-1.082-1.137-1.854c-4.991,6.751-9.677,13.402-14.696,19.793
		c-5.242,6.674-10.951,12.98-16.198,19.65c-18.122,23.037-30.528,48.688-28.081,78.538c2.522,30.771,12.337,58.786,40.637,76.346
		c6.989,4.337,14.108,8.464,20.736,12.431c-6.831-1.161-13.781-3.709-19.897-8.404c-2.493-1.913-4.892-3.985-7.548-5.64
		c-12.709-7.915-20.245-19.697-26.246-33.072c-6.879-15.332-9.705-31.096-9.889-47.881c-0.193-17.558,3.839-33.622,12.236-48.756
		c4.585-8.264,9.574-16.304,14.507-24.658c-6.233-5.547-5.191-12.402-2.274-19.096c2.248-5.157,5.375-9.931,8.109-14.876
		c0.87-1.574,1.733-3.151,3.222-5.859c-3.398,0.933-5.655,1.679-7.967,2.16c-5.752,1.198-8.42-0.79-9.119-6.474
		c-3.084-25.064,2.601-48.248,14.94-70.016c0.492-0.868,0.872-1.982,1.633-2.488c8.486-5.639,6.014-13.874,5.424-21.78
		c-0.735-9.839-2.569-19.274-7.304-28.118c-2.001-3.737-2.878-8.075-4.459-12.708c-8.304-1.907-15.968-0.362-21.86,7.604
		c14.031,1.802,21.818,11.843,29.074,22.541c-3.13-2.825-6.426-5.488-9.354-8.509c-5.659-5.836-12.888-8.729-20.316-11.267
		c-0.804-0.274-2.12,0.269-2.931,0.823c-2.443,1.672-4.754,3.536-7.195,5.386c3.395,13.998,0.836,19.932-12.842,27.394
		c1.397-1.424,2.641-3.053,4.217-4.239c8.491-6.388,9.744-11.181,5.735-20.664c-1.126-2.663-1.3-5.729-1.092-8.928
		c0.879,1.464,1.758,2.927,3.099,5.16c3.35-2.95,6.688-5.568,9.646-8.561c6.475-6.552,13.055-12.545,22.338-8.899
		c1.019-11.337,2.001-22.27,3.02-33.597c-4.179,2.617-7.065,6.111-7.916,10.847c-2.458,13.676-10.977,20.939-23.796,25.283
		c-8.802,2.982-16.947,8.024-25.18,12.522c-4.823,2.635-6.312,7.437-6.408,13.41c4.814-4.741,9.202-9.063,13.59-13.385
		c0.603,0.409,1.205,0.818,1.807,1.228c-4.7,5.982-9.398,11.967-7.424,20.54c1.729-3.962,2.836-7.931,5.071-11.105
		c1.458-2.073,4.96-4.551,6.824-4.067c2.851,0.741,5.769,3.7,4.884,7.579c-0.842,3.692-2.368,7.229-4.241,10.654
		c0.934-5.713,5.104-11.354-1.379-16.807c-7.052,7.288-9.495,16.647-11.415,26.254c-0.469-0.032-0.938-0.064-1.408-0.097
		c-0.625-6.772-1.25-13.544-1.875-20.315c-0.314-0.089-0.629-0.177-0.943-0.265c-1.472,4.393-2.944,8.785-4.416,13.179
		c-0.25-0.004-0.501-0.009-0.752-0.013c0-6.414-0.553-12.893,0.174-19.223c0.59-5.14,4.127-9.045,8.837-11.461
		c8.402-4.31,16.842-8.548,25.306-12.735c4.874-2.411,10.697-3.536,12.882-9.723c-0.118,0.87-0.236,1.741-0.355,2.611
		c0.312,0.187,0.624,0.372,0.936,0.558c1.834-2.973,3.669-5.944,5.503-8.916c-0.568-0.54-1.136-1.08-1.704-1.619
		c-4.358,3.457-8.716,6.915-12.354,9.801c0.701-5.53,7.623-11.817,13.596-11.538c1.356-3.477,2.228-7.136,4.138-10.134
		c1.4-2.196,4.157-3.533,6.324-5.235c1.539-1.208,3.104-2.386,4.8-3.687c-31.442-10.138-55.386-28.244-71.898-55.345
		c-10.515-17.259-17.259-36.145-15.401-56.897c0.677-7.563,2.79-14.998,4.261-22.479c0.014,0.012-0.125-0.104-0.125-0.104
		c0.225,5.742,1.79,11.838,0.388,17.15c-2.711,10.274-2.167,20.488,0.841,29.934c4.874,15.303,10.085,30.811,20.51,43.572
		c3.93,4.812,8.226,9.631,13.249,13.183c13.153,9.3,26.634,18.168,40.325,26.66c6.016,3.731,6.429,2.419,10.445-3.178
		c3.765-5.248,8.6-10.124,13.915-13.78c10.251-7.05,21.245-13.012,31.763-19.688c2.456-1.559,4.588-3.931,6.274-6.344
		c6.444-9.231,3.114-18.116-8.228-23.396c-3.427-1.596-7.523-1.829-11.349-2.469c-3.075-0.514-4.556,0.768-3.413,3.983
		c0.655,1.842,1.495,3.618,2.319,5.586c-6.011,0.819-7.873-4.781-11.135-8.198c2.289,1.427,4.578,2.854,7.422,4.628
		c-1.068-4.187-2.029-7.953-3.102-12.158c6.205,2.232,11.92,4.289,18.277,6.576c-2.133-3.453-3.642-6.159-5.444-8.654
		c-0.55-0.762-2.028-0.782-2.868-1.421c-1.583-1.204-3.01-2.611-4.502-3.934c1.405-1.429,2.591-3.669,4.26-4.119
		c3.643-0.982,7.547-0.947,11.312-1.531c2.787-0.432,5.524-1.184,8.245-2.466c-5.39,0.567-10.559,1.157-13.043-3.144
		c-6.107,1.19-11.294,2.201-17.563,3.423c5.085-5.923,10.845-10.552,13.752-16.562c3.373-6.969,9.761-9.661,14.729-14.322
		c2.521-2.182,5.042-4.363,7.564-6.545c-0.507-0.578-1.015-1.157-1.521-1.736c-2.661,2.111-5.321,4.223-7.981,6.334
		c-4.763,0.369-8.252,2.318-10.459,6.908c-2.671,5.553-4.996,11.778-11.153,12.49c2.758-4.534,6.038-9.622,8.999-14.889
		c2.44-4.339,5.822-6.328,10.741-7.699c4.711-1.312,8.842-5.004,12.969-8.006c2.746-1.998,5.036-4.621,8.555-6.449
		c-0.396,1.232-0.602,2.573-1.225,3.678c-2.002,3.543-4.417,6.871-6.194,10.516c-2.948,6.048-8.092,9.415-13.65,12.598
		c-2.734,1.566-4.983,3.979-7.452,6.009c0.214,0.426,0.428,0.851,0.643,1.276c1.669,0,3.339,0,4.998,0.004
		c-6.468,1.792-10.461,6.714-14.654,11.474c2.019-0.347,3.802-1.378,5.684-1.608c1.773-0.217,4.127-0.207,5.395,0.775
		c4.449,3.447,4.312,3.623,9.852,2.399c-4.472-2.259-9.136-4.615-13.537-6.839c1.171-0.556,3.25-1.204,4.889-2.438
		C438.512,80.387,438.989,78.734,439.745,77.451z M413.439,346.338c-5.641,7.195-11.64,14.306-16.988,21.877
		c-3.11,4.402-5.194,9.534-7.706,14.355c-2.524,4.846-5.375,9.565-7.397,14.614c-1.792,4.473,0.377,8.039,4.352,11.116
		c0.3-13.854,0.446-14.491,3.227-17.15c-0.545,3.668-1.205,8.11-1.992,13.412c7.218-3.352,5.581-9.454,7.72-14.556
		c0.155,2.55,0.263,4.319,0.374,6.146c7.846-4.16,4.898-10.958,4.969-17.172c0.76,2.522,1.519,5.044,2.57,8.533
		c5.076-7.079,9.6-13.211,13.861-19.519c0.65-0.962,0.091-2.741,0.091-5.42c-5.054,6.235-9.114,11.243-13.174,16.251
		c1.349-3.83,2.888-7.834,5.672-10.567C415.76,361.641,415.788,354.175,413.439,346.338z"/>
	<path fill-rule="evenodd" clip-rule="evenodd" d="M88.043,224.062c1.666-7.083,2.866-14.314,5.081-21.222
		c7.936-24.747,20.011-47.73,34.063-69.286c15.597-23.926,33.02-46.63,56.24-64.363c13.035-9.955,25.849-19.986,41.015-26.333
		c5.46-2.284,11.688-2.673,17.471-4.268c12.666-3.492,25.271-7.204,37.902-10.824c0.907-0.26,1.817-0.506,3.102,0.104
		c-6.286,3.235-12.527,6.561-18.867,9.688c-14.142,6.977-27.299,14.954-36.755,28.282c-4.492,6.332-11.093,11.125-16.287,17.014
		c-6.045,6.854-11.641,14.106-17.35,21.252c-9.65,12.078-15.565,26.048-19.156,40.859c-5.426,22.387-13.913,44.314-11.979,67.979
		c1.057,12.938,2.259,25.88,3.933,38.75c1.986,15.272,5.085,30.413,6.716,45.716c1.733,16.259,7.413,31.344,13.048,46.314
		c4.95,13.151,12.047,25.51,18.458,38.086c1.675,3.286,4.326,6.074,6.529,9.092c0.346-0.22,0.692-0.439,1.039-0.658
		c-1.537-3.398-2.899-6.89-4.643-10.179c-5.992-11.303-12.793-22.236-17.968-33.896c-3.8-8.561-5.821-17.966-8.121-27.124
		c-2.868-11.419-5.636-22.898-7.64-34.49c-1.581-9.144-2.23-18.48-2.783-27.762c-1.011-16.953-2.133-33.924-2.312-50.896
		c-0.229-21.675,5.481-42.384,11.884-62.905c6.078-19.482,17.272-35.908,30.45-51.097c4.896-5.644,11.202-10.146,15.656-16.075
		c12.729-16.948,31.379-25.818,48.554-36.682c4.403-2.785,9.696-4.165,15.035-5.35c-1.403,0.835-2.83,1.633-4.205,2.511
		c-13.862,8.849-28.744,16.471-41.297,26.896c-14.131,11.736-26.361,25.812-39.056,39.215
		c-16.546,17.468-22.542,40.032-28.946,62.281c-1.962,6.816-3.156,13.854-4.512,19.937c4.017-0.952,7.54-2.354,11.126-2.545
		c20.846-1.113,38.007,5.985,51.089,22.775c7.869,10.099,16.521,19.588,24.811,29.359c0.578,0.682,1.075,1.431,0.736,2.921
		c-2.776-2.929-5.569-5.842-8.324-8.79c-7.96-8.518-15.982-16.979-23.837-25.593c-12.146-13.318-27.532-18.727-45.14-18.693
		c-6.648,0.013-10.716,4.268-10.969,10.864c-1.181,30.859,0.74,61.485,5.234,92.075c3.562,24.243,9.38,47.779,20.02,69.733
		c6.782,13.994,15.901,26.856,23.995,40.213c0.851,1.403,1.862,2.71,2.407,4.316c-19.156-12.784-38.481-25.169-48.458-47.218
		c-2.65-5.855-6.298-11.28-9.737-16.746c-1.023-1.626-2.779-2.884-4.401-4.021c-4.947-3.468-4.985-3.413-4.249-8.747
		c-8.064-5.729-15.969-11.392-21.612-19.591l-0.073,0.096c2.094,0.818,4.608,1.156,6.2,2.548c4.128,3.608,7.732,7.811,11.799,11.496
		c1.372,1.244,3.504,1.651,5.289,2.44c1.179,0.4,1.786,2.36,1.066,3.409c-2.252,3.283-0.21,4.496,1.983,6.385
		c3.077,2.649,6.184,5.509,8.402,8.858c4.862,7.341,8.814,15.294,13.819,22.525c4.315,6.232,9.574,11.812,14.416,17.681
		c0.485-0.344,0.97-0.688,1.456-1.032c-0.479-1.326-0.892-2.682-1.447-3.976c-6.419-14.955-13.117-29.799-19.187-44.895
		c-3.029-7.531-5.034-15.488-7.276-23.317c-1.001-3.498-1.65-7.131-2.109-10.746c-2.323-18.293-4.232-36.645-6.865-54.892
		c-2.53-17.54-4.996-35.224-1.539-52.657c3.739-18.86,9.328-37.362,14.342-55.958c3.588-13.304,11.046-24.509,20-34.771
		c10.05-11.518,20.94-22.396,30.064-34.6c7.757-10.375,17.657-17.374,28.385-23.785c0.955-0.57,1.792-1.34,3.526-2.658
		c-5.597,1.555-10.09,2.727-14.537,4.055c-7.621,2.277-15.482,4.022-22.758,7.125c-12.829,5.47-23.233,14.684-34.122,23.249
		c-20.87,16.418-38.425,35.879-53.351,57.55c-13.426,19.492-23.494,40.963-32.216,62.99c-4.198,10.603-8.249,21.266-12.366,31.9
		L88.043,224.062z"/>
	<path fill-rule="evenodd" clip-rule="evenodd" d="M424.088,578.966c19.967-1.483,38.395-2.425,56.724-4.322
		c21.867-2.265,40.777-11.364,56.559-26.801c2.969-2.903,6.143-5.595,9.171-8.438c11.146-10.463,19.128-22.563,18.572-38.558
		c-0.81-23.29-19.013-44.7-41.794-48.357c-6.032-0.969-12.651,0.291-18.771,1.602c-12.271,2.626-23.627,7.261-30.202,19.046
		c-1.905,3.415-3.282,7.125-3.909,11.28c2.48-2.888,4.672-6.101,7.488-8.611c22.979-20.489,52.616-21.689,72.975,5.014
		c9.228,12.104,8.094,29.495-1.18,41.392c-3.975,5.097-7.145,10.862-11.4,15.688c-9.238,10.471-20.684,17.739-34.279,21.342
		c-22.127,5.864-44.368,10.448-67.475,4.867c1.304-0.16,2.604-0.392,3.913-0.461c1.495-0.08,2.998-0.054,4.496-0.009
		c20.347,0.616,40.12-3.055,59.46-8.818c21.066-6.278,35.862-20.548,46.262-39.431c6.85-12.436,1.803-31.195-10.327-40.993
		c-18.969-15.322-40.427-14.754-58.804,1.91c-5.115,4.638-9.514,10.065-14.129,15.011c-1.291-15.444,9.327-29.187,19.617-33.875
		c12.357-5.631,25.002-6.833,37.959-6.546c10.959,0.243,20.338,5.815,27.492,13.539c13.554,14.631,20.789,32.036,13.096,51.708
		c-3.643,9.312-11.041,17.172-16.867,25.6c-1.111,1.606-3.023,2.641-4.238,4.194c-13.746,17.578-32.847,26.752-53.721,31.25
		c-15.952,3.437-32.51,5.413-49.102,3.222c-2.918-0.385-5.951,0.188-8.909-0.007C430.251,580.237,427.77,579.599,424.088,578.966z"
		/>
	<path fill-rule="evenodd" clip-rule="evenodd" d="M446.918,254.06c4.414,4.592,8.96,9.065,13.205,13.81
		c4.473,5,2.639,10.628,0.92,16.073c-2.139,6.77-1.775,13.205,1.684,20.363c2.574-5.956,4.943-11.441,7.312-16.926
		c0.42,0.082,0.84,0.165,1.26,0.248c0.088,0.994,0.372,2.016,0.232,2.978c-1.426,9.871-2.957,19.729-4.343,29.605
		c-0.14,0.998,0.382,2.137,0.755,3.152c5.724,15.575,4.744,29.627-8.728,41.229c-9.737,8.388-12.207,20.509-16.419,32.558
		c2.147-0.482,3.491-0.784,5.702-1.281c-1.657,6.607-3.303,11.969-6.858,17.742c-3.569,5.797-8.29,7.564-13.525,10.879
		c-0.898-2.529-1.751-4.933-2.486-7.004c-2.195,0.702-4.459,1.427-6.755,2.162c-2.097-4.014,3.916-7.481-0.563-12.004
		c-5.863,8.962-12.197,16.979-16.738,25.907c-11.786,23.17-19.734,47.539-14.027,73.872c2.032,9.376,6.765,18.337,11.297,26.942
		c3.287,6.241,8.591,11.385,12.412,17.389c3.7,5.813,9.093,8.523,15.303,10.292c1.569,0.447,3.161,0.812,4.743,1.215
		c-0.087,0.479-0.175,0.959-0.262,1.438c-2.761-0.639-5.739-0.816-8.245-1.996c-10.315-4.859-17.408-13.441-23.291-22.681
		c-4.875-7.657-9.209-16.005-11.854-24.639c-2.579-8.417-3.861-17.604-3.708-26.419c0.491-28.387,12.538-52.986,27.005-76.595
		c0.76-1.24,2.091-2.12,2.943-3.318c1.217-1.711,2.271-3.541,3.334-5.354c2.054-3.502,3.805-7.218,6.175-10.487
		c2.119-2.922,4.902-5.361,7.952-7.84c-1.324,2.282-2.529,4.646-4.003,6.826c-1.861,2.752-4.062,5.277-5.873,8.06
		c-0.771,1.186-1.402,2.822-1.267,4.17c0.422,4.186,1.241,8.331,2.123,13.846c1.646-4.207,3.071-7.849,4.392-11.225
		c0.365,3.908,0.775,8.304,1.186,12.699c0.649,0.097,1.298,0.193,1.947,0.29c1.34-5.254,2.681-10.507,3.964-15.535
		c0,4.63,0,9.615,0,14.602c0.278,0.182,0.556,0.363,0.834,0.544c0.961-2.154,2.194-4.232,2.833-6.479
		c1.718-6.05,2.765-12.318,4.842-18.231c3.4-9.681,7.687-19.051,11.074-28.735c3.147-8.997,6.209-18.104,8.218-27.398
		c2.439-11.292,3.736-22.832,4.705-34.624c-3.336,5.039-6.672,10.079-10.009,15.119c-0.345-0.217-0.688-0.434-1.032-0.649
		c1.923-3.535,3.975-7.01,5.69-10.643c0.517-1.094,0.62-2.948,0.027-3.907c-3.245-5.253-3.569-10.956-3.175-16.839l-0.082,0.118
		c0.777-4.302,1.885-8.584,2.156-12.919c0.095-1.527-1.581-3.478-2.922-4.727c-4.725-4.405-8.987-9.016-9.957-15.759L446.918,254.06
		z M459.315,362.737c9.076-8.83,12.217-24.836,7.28-36.509"/>
	<path fill-rule="evenodd" clip-rule="evenodd" d="M302.748,28.157c-13.429,14.688-26.081,28.946-32.07,47.485
		c-5.507,17.047-10.651,34.013-10.029,52.544c0.465,13.843-2.402,27.794-3.732,41.702c-1.553,16.244,0.944,32.212,3.678,48.113
		c1.392,8.095,3.604,16.049,6.233,24.103c1.331-10.343,8.466-16.271,15.487-22.025c7.488-6.139,16.606-9.263,26.067-8.294
		c11.768,1.203,22.55,5.959,31.9,13.557c-13.435-6.188-26.864-12.73-42.251-9.178c-15.618,3.607-25.232,13.942-29.767,29.428
		c-0.565-0.021-1.13-0.041-1.695-0.062c-1.407-3.25-3.3-6.381-4.124-9.772c-2-8.227-3.459-16.583-5.218-24.87
		c-3.211-15.127-3.078-30.453-2.275-45.737c1.001-19.074,1.367-38.314,4.311-57.122c4.52-28.88,14.35-55.762,37.751-75.522
		c1.385-1.17,2.61-2.527,3.942-3.764C301.167,28.546,301.548,28.537,302.748,28.157z"/>
	<path fill-rule="evenodd" clip-rule="evenodd" d="M382.951,101.949c1.982-1.033,3.884-2.713,5.963-2.972
		c4.744-0.589,7.617-3.394,7.823-7.545c0.125-2.533-2.429-5.199-3.78-7.805c-0.418,0.127-0.836,0.254-1.254,0.381
		c-0.519,2.973-1.039,5.946-1.745,9.99c0-5.265,0-9.294,0-13.324c0.474-0.095,0.948-0.189,1.422-0.283
		c2.164,2.401,4.328,4.804,6.849,7.604c3.893-7.79,4.464-15.843,4.779-23.909c0.233-5.986-0.193-12.083,3.956-17.116
		c1.305-1.584,2.815-2.999,4.232-4.491c9.141-9.62,19.257-18.56,21.779-32.65c0.35-1.952,1.792-3.709,3.565-5.216
		c-2.324,17.068-3.225,34.583-18.667,47.983c10.374-0.877,14.517-7.543,18.943-13.966c-0.423,13.464-7.917,21.986-18.088,28.768
		c4.203-5.318,8.406-10.636,12.609-15.954c-0.29-0.326-0.58-0.652-0.869-0.979c-3.883,2.223-7.973,4.166-11.549,6.804
		c-1.456,1.073-2.249,3.583-2.568,5.564c-1.188,7.376-1.943,14.821-3.098,22.203c-0.454,2.903-1.534,5.708-2.329,8.558
		c-0.527-0.099-1.054-0.198-1.582-0.297c2.207-13.602,3.844-27.333,6.916-40.736c1.146-5.001,5.723-9.185,8.582-13.835
		c2.05-3.336,3.845-6.828,5.114-10.589c-7.369,6.676-14.803,13.283-22.03,20.107c-0.955,0.901-1.318,2.954-1.186,4.402
		c1.712,18.72-2.709,35.687-14.57,50.391c-2.409,2.987-5.9,5.103-9.57,6.978c2.659-2.972,5.317-5.943,8.435-9.429
		c-3.154,0.479-5.678,0.863-8.202,1.248L382.951,101.949z"/>
	<path fill-rule="evenodd" clip-rule="evenodd" d="M485.689,188.632c27.078-12.585,45.613-33.259,57.283-60.451
		c3.068-7.149,7.412-13.994,9.086-21.447c3.033-13.513,0.966-27.24-2.514-40.474c-2.846-10.826-6.974-21.315-10.1-32.322
		c3.391,6.444,7.435,12.637,10.039,19.384c6.049,15.676,8.861,32.124,7.428,48.877c-0.549,6.417-3.25,12.853-5.951,18.837
		c-4.23,9.373-8.507,18.903-14.238,27.368c-5.246,7.748-12.12,14.51-18.886,21.079c-5.793,5.625-12.097,10.907-18.862,15.275
		c-3.719,2.4-8.857,2.601-13.369,3.777C485.592,188.521,485.689,188.632,485.689,188.632z"/>
	<path fill-rule="evenodd" clip-rule="evenodd" d="M265.901,236.138c-0.9-7.343-2.158-14.662-2.627-22.031
		c-0.981-15.43-2.551-30.917-2.059-46.323c0.83-25.983,0.828-52.241,9.62-77.246c5.181-14.733,10.126-29.667,20.671-41.788
		c1.461-1.68,2.841-3.431,4.922-4.607c-11.055,12.933-15.711,28.804-21.346,44.154c-5.88,16.02-9.528,32.559-10.132,49.668
		c-0.616,17.468-1.135,34.939-1.557,52.413c-0.067,2.792,0.666,5.595,0.911,8.403c1.084,12.394,2.125,24.791,3.182,37.187
		C266.958,236.025,266.43,236.082,265.901,236.138z"/>
	<path fill-rule="evenodd" clip-rule="evenodd" d="M457.826,287.259c-1.228-2.977-2.455-5.952-4.275-10.363
		c-1.078,6.428-1.903,11.351-2.983,17.792c-1.303-2.201-2.23-3.156-2.445-4.251c-0.541-2.766-0.813-5.589-1.099-8.398
		c-0.601-5.9-4.565-8.942-9.554-11.303c-7.34,3.873-6.229,12.267-9.475,18.338c-0.519-0.013-1.037-0.025-1.555-0.038
		c-0.13-8.201-0.427-16.406-0.226-24.599c0.033-1.354,2.068-2.914,3.502-3.913c1.812-1.262,3.958-2.045,6.187-3.146
		c-7.959-13.873-14.616-27.521-15.813-42.986c0.542-0.198,1.083-0.396,1.625-0.594c0.544,1.39,1.283,2.735,1.602,4.175
		c2.736,12.361,6.225,24.438,13.17,35.21c0.726,1.126,1.992,1.903,3.803,3.577c-2.465,1.649-4.919,4.007-7.843,5.053
		c-3.133,1.121-3.649,3.301-3.964,5.812c-0.423,3.369-0.567,6.773-0.407,10.314c2.45-4.854,4.537-10.773,10.905-9.84
		c6.02,0.883,9.276,5.911,11.509,11.571c-2.214-6.079-4.428-12.158-6.642-18.237c0.396-0.22,0.792-0.439,1.188-0.659
		c1.344,2.132,2.635,4.301,4.045,6.389c2.177,3.222,4.972,6.153,6.504,9.646c1.41,3.216,1.501,7.01,2.165,10.56
		C457.744,287.377,457.826,287.259,457.826,287.259z"/>
	<path fill-rule="evenodd" clip-rule="evenodd" d="M390.49,5.083c2.672,6.208,6.315,12.01,7.558,18.287
		c1.318,6.656,1.806,14.157,0.065,20.588c-2.96,10.938-2.398,21.338,0.252,31.975c0.24,0.964,0.38,1.957,0.487,2.945
		c0.052,0.479-0.079,0.979-0.871,1.65c-1.902-7.309-4.361-14.533-5.479-21.96c-0.582-3.867,0.991-8.14,1.957-12.142
		c2.405-9.968,4.286-19.874-1.292-29.782c0,2.147-0.165,4.311,0.028,6.44c0.876,9.685-1.899,18.47-6.641,26.706
		c-2.61,4.535-3.137,8.524-1.522,13.994c2.215,7.501,2.319,15.691,2.743,23.618c0.146,2.739-1.454,5.573-2.583,9.5
		c0-8.593,0.331-15.833-0.133-23.021c-0.249-3.853-1.541-7.741-2.95-11.387c-1.588-4.106-2.159-7.966,0.024-11.947
		c0.56-1.022,1.063-2.084,1.711-3.048c7.536-11.199,8.327-23.589,6.495-36.453c-0.234-1.647-0.422-3.304-0.574-4.961
		C389.747,5.875,390.083,5.629,390.49,5.083z"/>
	<path fill-rule="evenodd" clip-rule="evenodd" d="M324.758,64.578c-4.812,1.222-6.913-2.992-10.01-5.104
		c-2.53-1.726-4.777-3.867-7.161-5.834c-0.011-0.009,0.127,0.106,0.113,0.095c-0.643-2.115-1.272-4.219-1.901-6.322
		c-0.743,0.063-1.486,0.127-2.229,0.19c-1.493,12.616-3.024,25.228-4.452,37.851c-0.325,2.873,0.39,5.735-3.39,7.407
		c-2.645,1.17-2.679,4.045-0.521,6.318c10.124,10.665,13.791,24.652,18.993,37.871c-3.212-5.868-6.388-11.757-9.648-17.599
		c-3.561-6.38-7.151-12.745-10.826-19.061c-1.866-3.207-2.611-5.962,0.946-8.719c1.182-0.916,1.838-3.024,1.998-4.66
		c0.712-7.281,0.786-14.642,1.818-21.869c0.789-5.525,2.794-10.866,4.009-16.344c0.713-3.217,0.924-6.543,1.388-9.816
		c0.305-2.15,0.659-4.294,1.988-6.651c-0.559,15.165,6.875,25.186,19.021,32.392C324.893,64.721,324.758,64.578,324.758,64.578z"/>
	<path fill-rule="evenodd" clip-rule="evenodd" d="M582.443,228.041c-5.104-2.992-10.209-5.98-15.309-8.978
		c-10.943-6.43-22.244-6.148-32.664,0.267c-13.722,8.449-28.337,15.876-39.019,28.614c2.14-6.402,6.696-10.967,11.847-14.786
		c7.605-5.637,15.292-11.255,23.428-16.061c12.986-7.672,26.346-8.556,39.376,0.265c4.502,3.047,8.823,6.361,13.228,9.554
		C583.034,227.291,582.738,227.666,582.443,228.041z"/>
	<path fill-rule="evenodd" clip-rule="evenodd" d="M486.204,267.838c-1.097-8.834-1.491-17.829-3.481-26.458
		c-2.158-9.362-5.622-18.447-8.861-27.529c-2.129-5.966-5.293-6.892-11.145-4.715c-3.271,1.217-6.838,1.637-9.716,2.289
		c1.474-9.806,2.833-18.851,4.068-27.068c2.581,7.087,0.909,15.148-0.838,24.482c3.802-1.228,7.463-1.744,10.329-3.532
		c2.572-1.605,4.301-1.385,6.029,0.436c1.798,1.893,3.826,3.886,4.758,6.231c6.502,16.376,10.484,33.303,10.128,51.055
		c-0.032,1.603-0.479,3.197-0.732,4.795C486.563,267.829,486.384,267.833,486.204,267.838z"/>
	<path fill-rule="evenodd" clip-rule="evenodd" d="M322.791,155.111c10.86,9.26,21.227,18.966,28.568,31.428
		c0.331,0.561,0.825,1.04,1.301,1.498c9.655,9.309,9.517,21.442,1.534,35.723c0.942-5.178,2.56-10.667,2.74-16.203
		c0.128-3.924-0.595-8.717-2.821-11.729c-9.548-12.914-19.803-25.306-29.768-37.913c-0.656-0.831-1.042-1.876-1.553-2.82
		L322.791,155.111z"/>
	<path fill-rule="evenodd" clip-rule="evenodd" d="M338.564,55.345c0-7.439,0.155-14.885-0.146-22.312
		c-0.053-1.311-2.204-3.758-3.048-3.62c-5.701,0.933-11.312,2.42-17.224,3.791c0.303-1.269,0.655-2.745,0.875-3.668
		c6.419-0.735,12.4-1.421,18.682-2.14c0.786-1.147,1.829-2.669,3.691-5.385c0,9.17,0,16.795,0,24.42
		c0.415,0.036,0.83,0.072,1.245,0.108c0.662-11.097,1.323-22.192,1.984-33.289c0.671,0.097,1.341,0.193,2.012,0.291
		C347.233,28.01,347.325,42.399,338.564,55.345z"/>
	<path fill-rule="evenodd" clip-rule="evenodd" d="M34.227,205.68c1.181,0.489,2.362,0.978,4.178,1.729
		c-1.514-14.767,8.515-25.358,13.083-37.944c-1.519,12.336-10.728,22.557-10.004,35.743c4.725-1.014,6.17,0.978,5.486,3.937
		c-2.812,0-5.193,0.001-7.574-0.001c-2.539-0.002-5.165,0.113-5.074-3.589C34.312,205.569,34.227,205.68,34.227,205.68z"/>
	<path fill-rule="evenodd" clip-rule="evenodd" d="M518.041,54.023c0.688-1.062,1.224-2.271,2.086-3.164
		c8.385-8.692,12.061-19.315,12.707-31.125c0.076-1.39-0.914-2.838-1.823-5.446c1.566,1.106,3.273,1.647,3.615,2.653
		c4.185,12.299-4.487,31.336-16.681,36.986C517.944,53.927,518.041,54.023,518.041,54.023z"/>
	<path fill-rule="evenodd" clip-rule="evenodd" d="M452.199,326.397c0.152,14.674-6.253,28.435-14.811,41.493
		C442.457,353.691,447.525,339.491,452.199,326.397z"/>
	<path fill-rule="evenodd" clip-rule="evenodd" d="M28.622,204.571c-1.759,0.355-4.062,0.706-2.409-2.117
		c6.945-11.868,14.116-23.604,21.242-35.366c0.493-0.812,1.293-1.439,2.27-2.499c-7.241,13.657-14.245,26.869-21.25,40.08
		L28.622,204.571z"/>
	<path fill-rule="evenodd" clip-rule="evenodd" d="M483.227,260.911c-3.863-4.516-8.359-6.749-14.239-4.931
		c-4.825,1.492-9.642,3.012-14.634,4.002c4.979-6.098,11.951-7.022,19.05-6.871C478.186,253.212,481.789,255.833,483.227,260.911z"
		/>
	<path fill-rule="evenodd" clip-rule="evenodd" d="M440.15,229.407c2.691-10.674,5.382-21.349,7.887-31.286
		C450.245,203.286,445.92,224.982,440.15,229.407z"/>
	<path fill-rule="evenodd" clip-rule="evenodd" d="M395.07,124.085c-6.508,6.761-12.445,14.189-22.264,18.276
		C386.012,127.76,390.33,124.056,395.07,124.085z"/>
	<path fill-rule="evenodd" clip-rule="evenodd" d="M432.479,195.172c-1.293,8.644-2.587,17.287-3.852,25.732
		c-0.279-0.162-1.5-0.869-2.397-1.389c0.528-1.269,1.188-2.226,1.31-3.247c0.681-5.684,1.086-11.405,1.923-17.063
		c0.229-1.547,1.625-2.922,2.484-4.375C432.125,194.944,432.302,195.058,432.479,195.172z"/>
	<path fill-rule="evenodd" clip-rule="evenodd" d="M447.671,364.48c3.677-9.085,7.354-18.171,11.296-27.91
		c0.935,11.646-5.446,19.627-11.348,27.797L447.671,364.48z"/>
	<path fill-rule="evenodd" clip-rule="evenodd" d="M324.758,64.578c0,0,0.134,0.144,0.135,0.145
		c-4.082-6.576-8.317-13.067-12.141-19.793c-0.972-1.71-0.633-4.165-0.882-6.16c4.529,8.294,8.899,16.274,13.227,24.278
		c0.278,0.514,0.248,1.201,0.318,1.812c0.014,0.118-0.169,0.26-0.261,0.39C325.022,65.026,324.891,64.801,324.758,64.578z"/>
	<path fill-rule="evenodd" clip-rule="evenodd" d="M377.053,120.336c-1.28,2.591-2.458,5.238-3.864,7.758
		c-2.21,3.964-4.574,7.842-6.796,11.626c-2.652-2.047-2.337-2.892,9.001-20.065C375.947,119.882,376.5,120.109,377.053,120.336z"/>
	<path fill-rule="evenodd" clip-rule="evenodd" d="M399.472,121.601c6.264-4.146,12.076-8.476,9.354-17.773
		c0.734,0.096,1.468,0.19,2.202,0.286c0.249,2.688,1.237,5.565,0.601,8.023C410.091,118.076,405.071,120.292,399.472,121.601z"/>
	<path fill-rule="evenodd" clip-rule="evenodd" d="M6.383,202.944c3.157,0,5.042,0,8.206,0c-2.398,2.566-4.478,4.935-6.766,7.082
		c-0.331,0.312-2.091-0.184-2.429-0.755c-0.574-0.974-0.945-2.41-0.667-3.456C5.089,204.457,6.169,203.29,6.383,202.944z"/>
	<path fill-rule="evenodd" clip-rule="evenodd" d="M447.022,253.973c-5.749-5.867-4.953-13.479-4.965-20.876
		c1.621,6.987,3.242,13.975,4.862,20.962C446.918,254.06,447.022,253.973,447.022,253.973z"/>
	<path fill-rule="evenodd" clip-rule="evenodd" d="M28.476,204.668c1.911,0.346,3.822,0.691,5.742,1.024
		c0.009-0.013,0.094-0.124,0.104-0.138c-5.652,2.091-11.33,5.164-16.972-1.141c0.75-0.594,1.873-1.484,2.996-2.374
		c0.839,1.408,1.679,2.815,2.862,4.8c1.587-0.663,3.484-1.455,5.397-2.259C28.622,204.571,28.476,204.668,28.476,204.668z"/>
	<path fill-rule="evenodd" clip-rule="evenodd" d="M322.792,155.094c-2.994,2.438-6.014,0.928-8.02-0.981
		c-1.089-1.037-0.651-4.064-0.328-6.104c0.418-2.644,1.408-5.195,2.152-7.787c0.452,0.06,0.904,0.119,1.356,0.179
		c-0.291,2.185-0.141,4.55-0.952,6.52c-2.645,6.423-1.4,8.341,5.791,8.195C322.791,155.111,322.792,155.094,322.792,155.094z"/>
	<path fill-rule="evenodd" clip-rule="evenodd" d="M382.832,101.833c-0.072,0.606,0.066,1.591-0.248,1.766
		c-4.851,2.706-6.35,7.286-6.935,13.523c-1.187-9.2,0.208-11.812,7.304-15.17C382.951,101.949,382.832,101.833,382.832,101.833z"/>
	<path fill-rule="evenodd" clip-rule="evenodd" d="M383.117,121.437c-0.515-5.938,1.619-9.529,7.34-11.449
		C387.877,114.013,385.438,117.816,383.117,121.437z"/>
	<path fill-rule="evenodd" clip-rule="evenodd" d="M447.619,364.367c0.133,6.501-4.717,9.646-9.203,13.037
		c3.096-4.29,6.191-8.58,9.271-12.897C447.671,364.48,447.619,364.367,447.619,364.367z"/>
</g>
</svg>
