<?xml version="1.0" encoding="utf-8"?>
<!-- Generator: Adobe Illustrator 16.2.1, SVG Export Plug-In . SVG Version: 6.00 Build 0)  -->
<!DOCTYPE svg PUBLIC "-//W3C//DTD SVG 1.1//EN" "http://www.w3.org/Graphics/SVG/1.1/DTD/svg11.dtd">
<svg version="1.1" id="Layer_1" xmlns="http://www.w3.org/2000/svg" xmlns:xlink="http://www.w3.org/1999/xlink" x="0px" y="0px"
	 width="221.941px" height="499.466px" viewBox="0 0 221.941 499.466" enable-background="new 0 0 221.941 499.466"
	 xml:space="preserve">
<path fill-rule="evenodd" clip-rule="evenodd" d="M207.185,222.634c-0.382-0.221-0.764-0.441-1.146-0.661
	c-1.423,1.847-2.846,3.693-4.352,5.648c-4.696-3.911-9.184-7.648-13.594-11.321c-10.76,10.915-21.439,27.06-28.124,41.022
	c0-1.612-0.472-3.413,0.083-4.805c2.125-5.334,3.463-10.949,7.574-15.492c5.119-5.661,9.575-11.927,14.236-17.994
	c1.103-1.434,1.883-3.116,2.706-4.508c-0.524-1.822-0.964-3.352-1.56-5.42c2.023,0,3.547,0,5.269,0
	c3.591-7.711-6.031-9.141-6.759-15.065c2.893-3.222,4.355-6.999,1.818-11.522c-0.462-0.823,0.315-2.342,0.689-4.521
	c2.947,1.896,5.094,3.275,7.827,5.033c4.584-6.255,6.365-14.771,13.224-19.525c5.11,2.076,2.424,6.059,2.766,9.2
	c2.365-1.332,4.655-2.622,7.547-4.25c2.069,6.552-1.489,11.03-3.393,16.491c3.601-0.981,6.574-1.793,9.844-2.684
	c0.824,5.286-3.625,6.759-5.277,10.146c1.154,0.858,2.287,1.7,3.99,2.967c-0.812,1.505-1.244,3.582-2.492,4.376
	c-3.686,2.346-5.291,5.556-6.174,9.701c-0.361,1.703-2.432,4.009-3.982,4.231c-1.682,0.24-3.665-1.629-5.518-2.578
	c0.204-0.449,0.407-0.898,0.61-1.348c1.542,0.271,3.084,0.544,4.534,0.8c3.645-1.929,1.486-4.071-0.31-6.542
	c3.219-2.194,6.093-4.154,8.967-6.113c-0.198-0.367-0.396-0.734-0.595-1.102c-2.495,0.536-4.991,1.072-7.487,1.608
	c-0.226-0.42-0.452-0.84-0.679-1.259c2.904-2.831,5.81-5.661,8.939-8.712c-4.515-1.546-5.619,5.781-10.205,3.039
	c2.557-5.89,4.932-11.358,7.307-16.827c-0.514-0.264-1.029-0.527-1.544-0.791c-5.55,4.128-8.161,10.34-10.964,16.168
	c1.326,3.821,4.104,7.28,0.486,11.32c-1.215-2.883-1.618-6.354-3.441-7.439c-1.703-1.014-4.912,0.506-8.303,1.043
	c-0.171-3.03-0.348-6.165-0.525-9.3c-0.43,0.026-0.859,0.053-1.289,0.08c0.008,4.477-4.129,9.818,1.508,13.14
	c4.264,2.513,6.111,6.737,9.506,9.74c0.99,0.876,1.282,2.543,1.895,3.848c-0.363,0.273-0.727,0.547-1.09,0.82
	c-2.336-1.55-4.674-3.099-7.098-4.707c-2.098,4.896-0.148,7.897,8.94,14.312c1.836-2.169,3.717-4.392,4.705-5.559"/>
<path fill-rule="evenodd" clip-rule="evenodd" d="M217.542,217.027"/>
<path fill-rule="evenodd" clip-rule="evenodd" d="M205.271,168.392c-5.224,2.803-11.91,14.559-11.033,18.982
	c0.18,0.912,1.416,1.615,2.441,2.709C201.038,182.979,205.279,176.773,205.271,168.392z"/>
<path fill-rule="evenodd" clip-rule="evenodd" d="M153.81,126.821c-3.518,8.097-9.221,14.586-15.289,20.812
	c-1.857,1.905-3.816,3.749-5.409,5.862c-2.361,3.135-5.399,4.048-9.126,3.749c-3.146-0.253-6.313-0.405-9.466-0.338
	c-4.158,0.09-5.014,1.954-3.901,5.825c1.679,5.84,5.297,8.428,11.233,8.346c1.282-0.019,2.557,0.733,3.864,0.946
	c6.62,1.077,9.823,5.022,12.15,11.36c6.191,16.858,13.248,33.403,20.15,49.994c0.629,1.513,2.617,2.46,4.735,4.348
	c-0.282,1.4-0.464,3.878-1.312,6.102c-0.934,2.446-2.678,4.574-3.695,6.997c-0.855,2.034-1.176,4.294-1.732,6.453
	c-0.592-0.131-1.184-0.262-1.775-0.394c0.426-2.133,0.584-4.364,1.332-6.377c1.685-4.54,1.91-8.796,0.002-13.472
	c-6.848-16.777-13.379-33.684-20.05-50.533c-0.104-0.266-0.467-0.429-1.382-1.227c-0.914,3.059-1.738,5.815-2.562,8.573
	c-0.502-0.08-1.005-0.16-1.507-0.239c0.285-3.104,0.5-6.216,0.869-9.31c0.84-7.055,0.132-8.135-6.86-9.252
	c-2.729-0.437-5.52-0.493-9.281-0.806c0.315,4.569,0.42,8.482,0.913,12.346c0.308,2.416,0.281,4.271-2.916,5.044
	c-1.255-1.871-2.494-3.719-3.999-5.962c-2.983,1.725-5.787,3.346-9.175,5.304c0,15.598,0,31.219,0,46.84c0,15.447,0,30.895,0,46.341
	c-0.343,0.004-0.686,0.008-1.028,0.011c-1.891-35.578-0.046-71.224-1.5-107.077c-4.888-0.674-8.076,3.979-13.782,5.726
	c0.656-2.14,0.94-3.455,1.454-4.673c2.103-4.98,4.275-9.932,6.377-14.788c-15.021-12.061-33.303-17.706-45.65-32.465
	c-2.485,1.456-4.835,2.834-7.397,4.335c-1.388-1.843-2.633-3.497-3.766-5.001c0.209-0.641,0.221-1.14,0.427-1.24
	c6.383-3.112,5.562-8.53,5.396-14.373c-0.302-10.62,0.404-21.268,0.66-31.904c0.062-2.597,0.009-5.197,0.009-7.827
	c-7.513,0.462-8.98,2.031-9.056,8.344c-0.125,10.485-0.448,20.968-0.543,31.453c-0.046,5.142,0.05,10.301,0.466,15.421
	c0.135,1.66,1.206,3.466,2.336,4.788c8.879,10.386,17.868,20.693,29.598,28.062c4.222,2.652,8.631,5.003,12.902,7.578
	c1.926,1.162,4.22,2.252,3.114,5.678c-10.615-4.845-20.047-11.22-28.608-18.642c-8.529-7.395-16.281-15.686-24.622-23.826
	c0-15.901,0.011-31.508-0.031-47.114c-0.002-0.794-0.457-1.586-0.753-2.551c-1.165-0.354-2.365-0.718-3.685-1.119
	c0-3.968,0-7.712,0-11.616c1.923-0.509,3.486-0.923,5.032-1.333c0.645-1.892,1.267-3.72,2.207-6.477
	c1.639,2.031,2.521,3.124,3.695,4.58c2.499-1.26,5.098-2.57,7.946-4.007c-0.575-2.077-1.043-3.773-1.572-5.685
	c5.039-6.482,10.139-13.044,15.239-19.606c-0.328-0.318-0.655-0.638-0.982-0.957c-0.881,0.288-1.873,0.405-2.624,0.893
	c-4.994,3.244-10.235,6.211-14.77,10.015c-2.315,1.942-3.334,5.432-5.119,8.535c-2.482-1.184-1.969-3.53-1.002-5.522
	c0.925-1.906,2.381-3.604,3.823-5.196c1.538-1.698,3.331-3.164,5.22-4.925c-3.415-7.499-5.042-15.623-11.619-21.767
	c-2.176,4.298,0.167,7.524,0.941,10.908c0.742,3.244,3.674,6.088,1.584,10.899c-6.425-3.146-12.186-8.062-21.143-7.202
	c5.085,4.454,9.453,8.279,13.707,12.006c-0.222,3.551-2.431,3.274-4.691,3.089c-5.539-0.455-7.302-0.065-11.582,2.473
	c3.182,4.121,8.576,1.95,11.575,5.012c2.642,2.752,5.285,5.504,8.458,8.808c-1.957,0.576-4.141,1.463-6.409,1.836
	c-4.194,0.688-8.439,1.059-12.658,1.602C6.21,69.437,5.21,69.995,4.29,69.863c-1.052-0.15-2.625-0.632-2.889-1.361
	c-0.364-1.003-0.12-2.744,0.582-3.518c2.091-2.306,4.533-4.294,7.167-6.707c-2.943-1.608-5.807-3.174-9.148-5
	c3.927-6.105,10.153-5.199,15.601-7.817c-1.461-1.3-2.812-2.318-3.938-3.543c-2.112-2.297-4.254-4.601-6.04-7.143
	c-0.599-0.853-0.664-2.988-0.055-3.562c0.859-0.809,2.687-1.199,3.9-0.914c5.477,1.284,10.883,2.87,16.955,4.521
	c-1.173-3.403-2.498-6.229-3.058-9.198c-0.443-2.348-0.398-4.997,0.236-7.29c0.917-3.313,3.221-3.898,6.208-2.04
	c3.933,2.447,5.498,6.514,7.134,10.551c1.663,4.102,3.465,8.146,5.355,12.562c3.451-1.869,6.23-3.311,8.943-4.867
	c1.922-1.103,4.348-2.721,5.666-0.312c0.999,1.823,1.112,5.147,0.072,6.87c-2.561,4.241-5.724,8.228-9.2,11.773
	c-2.662,2.714-3.209,5.641-3.059,9.048c0.403,9.113,0.81,18.227,1.185,26.678c-1.159,2.035-2.72,3.517-2.74,5.02
	c-0.118,8.775,0.125,17.557,0.252,26.722c2.468,0,3.963,0,6.303,0c-1.513,1.862-2.493,3.068-4.049,4.983
	c2.549,2.842,4.777,6.26,7.844,8.56c7.434,5.576,15.194,10.728,22.946,15.862c5.112,3.387,10.438,6.449,16.224,9.997
	c1.469-2.611,2.79-4.958,4.11-7.305c0.681,0.327,1.362,0.653,2.043,0.979c-0.76-1.266-1.324-2.721-2.323-3.755
	c-1.61-1.664-3.537-3.019-5.278-4.562c-6.35-5.627-11.214-11.632-11.438-21.063c-0.228-9.59-2.273-19.144-3.628-28.698
	c-1.179-8.316-1.605-8.603-11.743-8.616c2.506,2.664,4.679,4.59,6.361,6.877c1.505,2.047,2.984,4.372,3.551,6.791
	c0.847,3.612-2.145,4.773-5.679,5.776c1.797,0.881,2.991,1.467,4.569,2.24c-6.433,1.76-12.23-1.248-15.35-7.521
	c-3.323-6.683-1.369-12.528,6.394-18.799c-1.745-3.306-3.524-6.676-5.8-10.987c-3.687-0.662-3.411-4.028-2.992-8.037
	c1.057-10.1,4.066-19.522,8.759-28.454c0.685-1.305,1.463-3.159,2.596-3.523c4.381-1.408,5.808-5.191,7.806-8.597
	c3.486-5.939,9.255-9.219,15.236-11.623c5.461-2.194,11.458-3.051,17.212-4.52c1.704-0.435,3.387-0.946,5.136-1.439
	c0-1.756,0-3.023,0-4.313c0.612-0.241,1.047-0.482,1.511-0.571c0.301-0.058,0.68,0.036,0.962,0.181
	c11.617,5.978,24.274,10.17,34.172,19.1c2.711,2.445,4.359,6.049,6.598,9.044c2.494,3.338,4.453,7.255,9.223,8.776
	c3.65,14.704,0.387,29.25-1.943,43.829c6.148,6.019,4.096,17.465-7.969,26.475c0.498,4.454,1.002,9.229,1.576,13.995
	c0.295,2.447,0.479,4.768-2.665,5.521c-0.882-11.266-1.93-22.521-2.6-33.801c-0.632-10.635-0.903-21.293-1.211-31.944
	c-0.028-0.967,0.836-1.959,1.286-2.939c0.504,0.107,1.008,0.214,1.514,0.321c1.045,8.975-1.109,18.199,0.745,27.691
	c2.772-1.785,4.837-3.116,5.893-3.796c3.188-13.488,6.161-26.05,3.337-38.969c-1.529,4.303-0.992,9.19-4.545,13.304
	c-1.284-1.694-2.321-3.062-3.463-4.566c-2.357,1.792-4.586,3.485-6.814,5.179c-0.243-0.275-0.486-0.552-0.729-0.827
	c2.248-3.729,4.497-7.457,6.746-11.186c0.463-0.109,0.926-0.218,1.39-0.327c0.378,0.75,0.702,1.534,1.146,2.243
	c0.483,0.771,1.076,1.476,1.622,2.209c0.4-0.066,0.803-0.133,1.203-0.199c0-2.405,0.199-4.831-0.037-7.213
	c-0.725-7.309-3.696-10.741-10.59-10.658c-4.123,0.049-8.225,1.896-12.338,2.931c-0.83,0.209-1.666,0.396-3.082,0.73
	c1.43-5.07,5.434-5.35,8.729-6.06c3.588-0.773,7.356-0.714,11.963-1.094c-1.512-1.872-2.301-3.403-3.547-4.294
	c-4.322-3.089-8.652-6.229-13.288-8.79c-2.278-1.259-5.236-1.286-8.665-2.042c-1.721-1.864-4.234-4.587-7.024-7.608
	c-1.484,1.778-2.396,2.87-2.929,3.508c-8.015,1.091-15.449,2.103-22.968,3.126c0.977,5.967,4.055,8.468,8.715,9.589
	c3.557,0.855,7.088,1.889,10.536,3.11c6.009,2.13,10.852,5.44,13.034,12.009c1.398,4.208,3.722,8.109,6.087,13.114
	c2.87-3.381,5.645-6.649,8.701-10.25c3.652,1.738,3.228,5.253,2.836,8.659c-0.311,2.709-1.214,5.036-5.081,5.145
	c0.604-2.482,1.109-4.564,1.872-7.704c-6.87,3.993-10.817,10.563-18.909,12.267c0.867-5.94,10.065-8.544,4.269-15.225
	c-9.161,5.631-17.901,11.045-26.697,16.366c-1.327,0.803-2.914,1.177-4.38,1.749c-0.333-0.388-0.667-0.775-1-1.162
	c2.332-4.613,4.664-9.226,6.995-13.839c-0.224-0.365-0.449-0.73-0.673-1.097c-4.347,0.669-8.753,1.085-13.025,2.08
	c-4.138,0.963-8.138,2.521-13.001,4.075c3.634-6.325,30.817-11.344,39.894-8.3c-3.204,0.73-7.02,0.636-9.436,2.428
	c-2.281,1.691-3.09,5.367-4.546,8.17c0.52,0.414,1.039,0.828,1.559,1.242c7.229-5.24,16.544-7.674,21.17-16.143
	c-3.274-8.058-13.971-14.61-21.89-13.932c1.4,2.306,2.833,4.668,4.949,8.153c-8.07,1.209-14.741,2.209-21.411,3.208
	c0.01,0.313,0.02,0.627,0.03,0.94c2.431,1.108,4.862,2.216,8.05,3.668c-7.388,1.12-13.532-1.335-15.08-5.899
	c7.419-1.3,14.778-2.59,22.636-3.966c-3.66-6.033-6.719-11.077-10.037-16.547c-6.99,2.275-12.416,6.808-16.449,13.2
	c-2.126,3.371-3.67,7.716-6.724,9.719c-2.838,1.86-4.301,4.1-5.326,6.694c-2.719,6.89-4.775,13.991-4.468,21.865
	c2.577-0.886,4.47-1.536,7.592-2.608c-1.2,4.306-2.058,7.383-2.651,9.513c1.985,3.798,3.551,6.793,5.382,10.295
	c1.427,0.245,3.254,0.559,5.691,0.978c-0.2-2.41-0.226-4.044-0.487-5.64c-0.888-5.426-1.943-10.824-2.745-16.262
	c-0.22-1.492,0.224-3.082,0.362-4.628c0.599-0.011,1.198-0.021,1.797-0.033c0.856,5.068,1.712,10.137,2.774,16.419
	c1.144-2.092,1.669-3.033,2.177-3.984c3.363-6.311,6.648-12.665,10.131-18.909c0.973-1.743,2.174-3.877,5.807-2.361
	C87.36,57.192,80.769,66.31,79.587,77.95l0.099-0.121c-2.759,0.662-2.418,2.776-2.175,4.772c1.586,13.041,3.178,26.081,4.825,39.114
	c0.312,2.466,0.479,5.065,1.404,7.318c4.11,10.003,12.063,16.355,20.926,22.001c5.6,3.567,11.549,2.937,17.392,2.379
	c3.413-0.326,7.12-1.815,9.882-3.872c6.85-5.104,12.26-11.628,16.528-19.111C149.517,128.591,150.16,125.207,153.81,126.821z
	 M103.466,154.871c-2.509,6.192-2.473,24.715-0.067,28.966c6.1-8.002,0.713-17.176,3.277-25.177
	C105.477,157.245,104.558,156.159,103.466,154.871z M155.771,102.996c6.984-5.192,9.254-11.641,6.117-17.59
	c-1.639,0.679-3.332,1.381-5.07,2.101c0.595,1.318,0.978,2.168,1.296,2.875c-1.276,1.758-2.411,3.321-4.011,5.524
	C157.724,97.432,156.785,100.059,155.771,102.996z M68.337,96.004c-2.315-2.18-4.63-4.359-6.99-6.581
	c-3.305,5.596-2.104,10.235,3.671,14.056C66.084,101.078,67.135,98.711,68.337,96.004z M99.444,172.409
	c-1.117-3.631-2.037-6.619-2.956-9.607c-0.536-0.078-1.072-0.157-1.607-0.235c-1.664,4.044-3.327,8.089-4.99,12.133
	c0.341,0.238,0.682,0.477,1.023,0.715C93.369,174.548,95.825,173.684,99.444,172.409z M107.535,181.718
	c1.869,0.595,3.144,1,5.489,1.745c-0.597-3.924-1.053-6.918-1.509-9.911c-0.607-0.038-1.214-0.077-1.822-0.115
	C109.01,176.059,108.327,178.681,107.535,181.718z M7.234,63.65c0.126,0.52,0.253,1.04,0.38,1.561
	c2.848-0.868,6.424,0.12,8.383-3.011c-0.185-0.504-0.369-1.008-0.554-1.512C12.707,61.675,9.97,62.663,7.234,63.65z"/>
<path fill-rule="evenodd" clip-rule="evenodd" d="M73.826,179.173c0,9.073-0.035,17.497,0.008,25.92
	c0.067,12.972,0.25,25.942,0.23,38.913c-0.004,2.423-0.815,4.834-1.113,7.268c-1.274,10.4-2.683,20.792-3.567,31.228
	c-0.164,1.941,1.534,4.335,2.938,6.06c4.201,5.158,8.664,10.104,13.074,15.09c0.627,0.708,1.532,1.17,1.861,1.414
	c6.509-5.563,12.769-10.916,19.207-16.42c2.724,4.538,5.991,9.98,9.257,15.423c0.556-0.022,1.112-0.045,1.668-0.067
	c1.911-5.264,3.732-10.562,5.771-15.775c1.002-2.562,3.353-4.932,3.442-7.447c0.2-5.595,0.414-11.572-1.291-16.767
	c-2.847-8.673-2.231-17.406-2.214-26.098c0.017-8.122,1.452-16.234,2.05-24.366c0.304-4.131,0.017-8.304,0.24-12.444
	c0.111-2.059,0.771-4.088,1.544-5.995c8.242,24.497,15.139,49.159,27.209,72.667c8.807-6.04,14.932-13.7,21.873-20.506
	c6.972-6.835,9.146-17.049,16.198-23.741c0.503,0.27,1.006,0.539,1.51,0.81c-0.439,1.222-0.701,2.548-1.347,3.647
	c-8.16,13.906-18.745,25.817-30.39,36.861c-1.436,1.362-2.34,3.383-3.924,4.462c-1.502,1.023-3.574,1.212-5.633,1.839
	c-10.35-19.527-15.938-40.274-23.177-60.369c-0.441-0.034-0.883-0.067-1.325-0.102c-0.717,4.573-1.856,9.129-2.063,13.726
	c-0.425,9.467-0.856,18.986-0.305,28.427c0.363,6.226,2.738,12.309,3.611,18.539c0.437,3.12,0.094,6.61-0.878,9.615
	c-2.527,7.81-1.158,15.472-0.016,23.196c0.138,0.932,0.668,1.828,0.695,2.751c0.141,4.916-0.403,9.928,0.355,14.737
	c2.905,18.418,6.141,36.785,9.398,55.146c3.316,18.689,6.764,37.357,10.24,56.019c1.341,7.202,2.894,14.365,4.406,21.535
	c0.262,1.238,0.803,2.418,1.35,4.021c1.82-1.212,3.231-2.152,4.642-3.092c0.353,0.309,0.705,0.616,1.058,0.925
	c-1.93,2.349-3.859,4.696-6.426,7.82c3.98,1.162,7.379,2.155,11.069,3.233c0.148,1.286,0.312,2.708,0.562,4.877
	c2.889,1.154,6.087,2.412,9.268,3.709c2.98,1.216,6.541,1.628,7.832,5.347c-5.371,3.424-46.58,9.174-51.935,7.037
	c0.723-1.92,1.452-3.856,2.181-5.794c0.207,0.177,0.414,0.354,0.62,0.532c6.022-5.149,12.045-10.299,18.067-15.447
	c-0.436-0.542-0.869-1.083-1.305-1.625c-7.297,5.893-14.595,11.784-21.805,17.606c-1.492-25.318-6.896-49.431-11.029-73.74
	c-2.873-16.899-5.084-33.914-7.407-50.901c-1.083-7.914-1.795-15.882-2.524-23.839c-0.185-2.015,0.211-4.083,0.967-6.137
	c2.787,24.857,5.107,49.698,9.638,74.268c4.505,24.427,8.734,48.904,13.323,74.703c6.937-5.496,13.015-9.826,18.397-14.895
	c1.48-1.394,1.46-5.069,1.128-7.565c-0.876-6.588-2.308-13.101-3.507-19.646c-3.898-21.287-7.794-42.574-11.684-63.862
	c-1.346-7.364-2.729-14.724-3.989-22.104c-1.822-10.667-3.553-21.35-5.314-32.026c-0.267-1.62-0.49-3.247-0.749-4.976
	c-3.172-0.681-6.114-1.312-9.442-2.026c-3.113-5.783-6.257-12.112-11.632-17.049c-0.693,8.013-1.175,15.815,0.642,23.942
	c2.121-0.628,3.65-1.081,5.633-1.668c-0.646,5.874-3.217,10.281-7.809,13.257c-3.37,2.184-4.359,4.979-4.381,8.802
	c-0.125,21.643-0.869,43.292-0.508,64.924c0.241,14.455,1.778,28.902,3.123,43.317c0.548,5.874-0.753,12.032,2.37,17.639
	c0.489,0.879-0.312,2.477-0.376,2.877c-6.198,2.901-11.645,5.45-17.091,7.999c-0.257-0.519-0.514-1.036-0.771-1.554
	c3.027-1.791,5.923-3.874,9.112-5.301c4.307-1.927,5.583-4.784,5.189-9.465c-1.48-17.584-3.197-35.185-3.651-52.81
	c-0.536-20.791,0.295-41.613,0.204-62.42c-0.025-5.778-1.219-11.551-2.05-18.846c3.785-5.356,2.326-13.022,2.155-21.302
	c-4.885,1.852-6.705,9.695-12.452,6.057c-1.841,1.827-3.136,3.973-4.963,4.623c-1.219,0.434-3.196-1.263-4.834-2.005
	c0.136-0.375,0.272-0.75,0.408-1.125c1.359,0,2.719,0,4.015,0c2.074-8.697,0.42-12.234-5.886-15.279
	c-0.27,6.702-0.497,13.062-0.792,19.42c-0.309,6.654-0.799,13.303-0.996,19.961c-0.192,6.491-0.222,12.993-0.124,19.487
	c0.101,6.658,0.342,13.317,0.712,19.966c0.36,6.483,0.864,12.962,1.482,19.425c0.635,6.628,1.483,13.234,2.241,19.851
	c0.738,6.45,1.448,12.904,2.228,19.35c0.8,6.613,1.886,13.2,2.446,19.833c0.523,6.201,3.905,12.057,2.979,18.415
	c-0.397,0.093-0.795,0.186-1.192,0.278c-0.436-0.964-1.125-1.892-1.27-2.897c-1.94-13.512-4.009-27.01-5.633-40.561
	c-1.942-16.198-4.32-32.41-4.993-48.679c-0.838-20.267-0.144-40.598-0.08-60.901c0.023-7.492,0.297-14.989,0.098-22.475
	c-0.052-1.948-1.502-3.842-2.215-5.795c-0.646-1.768-1.779-3.635-1.633-5.369c0.795-9.448,1.853-18.878,2.976-28.295
	c0.29-2.429,1.146-4.788,1.727-7.184c0.309-1.27,0.838-2.547,0.842-3.821c0.053-16.64,0.064-33.279-0.003-49.919
	c-0.014-3.321-0.413-6.641-0.609-9.962C70.86,183.226,70.581,180.865,73.826,179.173z M160.021,472.91
	c-7.823,4.542-17.463,5.759-23.91,13.167c13.064,0.966,25.168-2.89,37.408-6.736C169.22,477.292,164.923,475.245,160.021,472.91z
	 M100.763,320.834c4.109-3.463,1.206-7.477,1.166-11.039c-0.042-3.733-0.502-7.462-0.779-11.191
	C97.992,304.483,98.221,315.437,100.763,320.834z M144.815,477.371c7.797-1.922,11.74-4.219,14.064-7.966
	C154.149,467.188,150.826,468.992,144.815,477.371z M124.367,296.893c-3.808,4.514-3.804,8.378,0.114,12.056
	C126.562,304.792,125.444,301.027,124.367,296.893z M108.148,320.532c-7.069,1.688-9.284,3.642-9.077,7.694
	C103.12,327.205,105.95,324.936,108.148,320.532z"/>
<path fill-rule="evenodd" clip-rule="evenodd" d="M86.086,484.228c4.49-7.054,11.179-9.135,17.654-12.61
	c-0.313,7.921,6.405,8.684,10.562,12.399c0.062,4.854,3.801,7.693,7.835,10.33c-0.086,0.442-0.172,0.885-0.258,1.327
	c-1.683,0.558-3.403,1.688-5.043,1.581c-12.367-0.809-24.551,0.95-36.784,2.174c-1.972,0.197-4.027-0.434-6.8-0.775
	c0.894-2.648,1.472-4.362,2.355-6.981c1.448,2.025,2.255,3.154,3.349,4.684c11.551-0.839,23.357-1.697,35.502-2.579
	c-1.198-4.689-4.628-6.133-8.171-6.707c-8.928-1.449-17.887-1.355-26.767,0.685c-1.849,0.425-3.738,0.671-6.668,1.185
	c1.358-5.282,2.466-9.591,3.733-14.522c3.944,3.339-0.399,6.829,1.686,9.812C80.848,484.228,83.586,484.228,86.086,484.228z
	 M99.006,476.473c-2.893,2.034-5.567,3.916-8.242,5.797c0.181,0.368,0.362,0.735,0.543,1.104c4.995,0,9.989,0,15.447,0
	c-0.693-1.004-0.894-1.491-1.253-1.783C103.595,480.043,101.65,478.546,99.006,476.473z"/>
<path fill-rule="evenodd" clip-rule="evenodd" fill="#FFFFFF" d="M205.271,168.392c0.009,8.381-4.232,14.587-8.592,21.691
	c-1.025-1.094-2.262-1.797-2.441-2.709C193.36,182.951,200.047,171.195,205.271,168.392z"/>
<path fill-rule="evenodd" clip-rule="evenodd" fill="#FFFFFF" d="M79.587,77.95c1.182-11.64,7.773-20.758,14.888-29.916
	c-3.633-1.516-4.834,0.618-5.807,2.361c-3.483,6.244-6.768,12.599-10.131,18.909c-0.507,0.951-1.033,1.893-2.177,3.984
	c-1.062-6.282-1.918-11.351-2.774-16.419c-0.599,0.012-1.198,0.022-1.797,0.033c-0.139,1.546-0.582,3.136-0.362,4.628
	c0.802,5.438,1.856,10.836,2.745,16.262c0.261,1.596,0.288,3.229,0.487,5.64c-2.437-0.419-4.264-0.732-5.691-0.978
	c-1.831-3.502-3.397-6.497-5.382-10.295c0.593-2.13,1.451-5.207,2.651-9.513c-3.122,1.072-5.015,1.723-7.592,2.608
	c-0.307-7.874,1.749-14.976,4.468-21.865c1.024-2.595,2.488-4.834,5.326-6.694c3.054-2.003,4.598-6.348,6.724-9.719
	c4.033-6.393,9.458-10.925,16.449-13.2c3.318,5.47,6.377,10.514,10.037,16.547C93.791,31.7,86.431,32.99,79.012,34.29
	c1.547,4.564,7.692,7.02,15.08,5.899c-3.188-1.452-5.619-2.56-8.05-3.668c-0.01-0.313-0.021-0.627-0.03-0.94
	c6.67-0.999,13.341-1.999,21.411-3.208c-2.116-3.485-3.549-5.848-4.949-8.153c7.919-0.679,18.615,5.874,21.89,13.932
	c-4.626,8.469-13.941,10.902-21.17,16.143c-0.52-0.414-1.039-0.828-1.559-1.242c1.456-2.803,2.265-6.479,4.546-8.17
	c2.416-1.792,6.231-1.697,9.436-2.428c-9.077-3.044-36.26,1.975-39.894,8.3c4.863-1.554,8.863-3.112,13.001-4.075
	c4.271-0.995,8.678-1.411,13.025-2.08c0.225,0.366,0.449,0.731,0.673,1.097c-2.332,4.613-4.664,9.226-6.995,13.839
	c0.333,0.387,0.666,0.774,1,1.162c1.466-0.572,3.053-0.946,4.38-1.749c8.796-5.321,17.536-10.735,26.697-16.366
	c5.796,6.681-3.402,9.284-4.269,15.225c8.091-1.703,12.039-8.273,18.909-12.267c-0.763,3.14-1.269,5.222-1.872,7.704
	c3.867-0.108,4.771-2.436,5.081-5.145c0.392-3.406,0.816-6.921-2.836-8.659c-3.057,3.601-5.831,6.869-8.701,10.25
	c-2.365-5.005-4.688-8.906-6.087-13.114c-2.182-6.568-7.024-9.879-13.034-12.009c-3.448-1.222-6.979-2.255-10.536-3.11
	c-4.661-1.121-7.738-3.622-8.715-9.589c7.519-1.023,14.953-2.035,22.968-3.126c0.532-0.638,1.444-1.729,2.929-3.508
	c2.79,3.021,5.303,5.744,7.024,7.608c3.429,0.756,6.386,0.783,8.665,2.042c4.636,2.561,8.966,5.701,13.288,8.79
	c1.246,0.891,2.035,2.422,3.547,4.294c-4.606,0.38-8.375,0.32-11.963,1.094c-3.295,0.71-7.299,0.989-8.729,6.06
	c1.416-0.335,2.252-0.521,3.082-0.73c4.113-1.034,8.215-2.882,12.338-2.931c6.894-0.083,9.865,3.35,10.59,10.658
	c0.236,2.382,0.037,4.808,0.037,7.213c-0.4,0.066-0.803,0.133-1.203,0.199c-0.546-0.733-1.139-1.438-1.622-2.209
	c-0.444-0.709-0.769-1.493-1.146-2.243c-0.464,0.109-0.927,0.218-1.39,0.327c-2.249,3.729-4.498,7.457-6.746,11.186
	c0.242,0.275,0.485,0.552,0.729,0.827c2.229-1.693,4.457-3.387,6.814-5.179c1.142,1.505,2.179,2.872,3.463,4.566
	c3.553-4.113,3.016-9.001,4.545-13.304c2.824,12.919-0.148,25.48-3.337,38.969c-1.056,0.68-3.12,2.011-5.893,3.796
	c-1.854-9.492,0.3-18.717-0.745-27.691c-0.506-0.107-1.01-0.214-1.514-0.321c-0.45,0.98-1.314,1.973-1.286,2.939
	c0.308,10.651,0.579,21.31,1.211,31.944c0.67,11.279,1.718,22.535,2.6,33.801l0.112-0.117c-3.649-1.614-4.293,1.771-5.342,3.609
	c-4.268,7.483-9.678,14.008-16.528,19.111c-2.762,2.057-6.469,3.546-9.882,3.872c-5.843,0.558-11.792,1.188-17.392-2.379
	c-8.863-5.646-16.816-11.998-20.926-22.001c-0.926-2.253-1.093-4.853-1.404-7.318c-1.647-13.033-3.239-26.073-4.825-39.114
	c-0.243-1.996-0.584-4.11,2.175-4.772c2.104,3.438,4.189,1.268,6.195-0.076c5.602-3.753,11.311-7.066,18.71-5.009
	c0.378-1.298,0.669-2.297,1.001-3.438c-5.351-1.605-9.912-0.004-14.258,2.099C87.306,73.353,83.494,75.75,79.587,77.95z
	 M103.189,121.991c-0.458,0.292-0.917,0.585-1.376,0.877c0.62,1.66,0.812,3.723,1.932,4.911c5.618,5.959,16.661,7.308,23.551,2.756
	c1.725-2.117,3.45-4.235,5.175-6.353c-0.15-0.378-0.299-0.757-0.449-1.135C122.254,125.574,112.714,123.913,103.189,121.991z
	 M122.141,69.923c-0.485,0.028-0.97,0.057-1.455,0.085c-0.142,1.416-0.602,2.886-0.375,4.239c1.76,10.499,3.687,20.971,5.476,31.465
	c0.376,2.204,0.393,4.47,0.583,6.812c-2.322,0.65-3.992,1.118-5.663,1.586c-0.033,0.353-0.066,0.706-0.1,1.059
	c1.556,0.333,3.105,0.906,4.67,0.952c4.724,0.139,6.257-2.138,4.722-6.57c-0.812-2.349-1.688-4.718-2.107-7.151
	c-1.663-9.664-3.14-19.358-4.733-29.034C122.967,72.194,122.487,71.07,122.141,69.923z M131.605,90.22
	c2.858,1.086,4.159-0.317,4.694-2.473c0.598-2.404,1.048-4.884,1.194-7.353c0.312-5.228-1.546-6.382-6.727-4.247
	C129.333,80.956,129.087,85.737,131.605,90.22z M97.181,94.545c4.937-4.948,5.191-9.66,1.045-14.744
	c-3.447-0.166-4.557,2.4-5.022,5.016C92.532,88.599,93.399,92.05,97.181,94.545z M145.564,63.248
	c-10.539-1.755-16.826,0.145-18.067,4.242c0.276,0.166,0.622,0.537,0.823,0.471c4.849-1.606,9.563-3.784,14.954-2.544
	C143.841,65.547,144.792,64.01,145.564,63.248z"/>
<path fill-rule="evenodd" clip-rule="evenodd" fill="#FFFFFF" d="M103.466,154.871c1.091,1.288,2.011,2.374,3.21,3.789
	c-2.564,8.001,2.822,17.175-3.277,25.177C100.994,179.585,100.958,161.063,103.466,154.871z"/>
<path fill-rule="evenodd" clip-rule="evenodd" fill="#FFFFFF" d="M155.771,102.996c1.015-2.937,1.953-5.563-1.668-7.09
	c1.6-2.203,2.734-3.767,4.011-5.524c-0.318-0.707-0.701-1.557-1.296-2.875c1.738-0.72,3.432-1.422,5.07-2.101
	C165.024,91.355,162.755,97.803,155.771,102.996z"/>
<path fill-rule="evenodd" clip-rule="evenodd" fill="#FFFFFF" d="M68.337,96.004c-1.202,2.707-2.253,5.073-3.319,7.475
	c-5.775-3.82-6.976-8.46-3.671-14.056C63.707,91.645,66.022,93.825,68.337,96.004z"/>
<path fill-rule="evenodd" clip-rule="evenodd" fill="#FFFFFF" d="M99.444,172.409c-3.62,1.275-6.075,2.14-8.531,3.005
	c-0.341-0.238-0.682-0.477-1.023-0.715c1.664-4.044,3.327-8.089,4.99-12.133c0.536,0.078,1.072,0.157,1.607,0.235
	C97.408,165.79,98.327,168.778,99.444,172.409z"/>
<path fill-rule="evenodd" clip-rule="evenodd" fill="#FFFFFF" d="M107.535,181.718c0.792-3.037,1.475-5.659,2.159-8.281
	c0.607,0.038,1.215,0.077,1.822,0.115c0.456,2.993,0.912,5.987,1.509,9.911C110.679,182.718,109.404,182.313,107.535,181.718z"/>
<path fill-rule="evenodd" clip-rule="evenodd" fill="#FFFFFF" d="M7.234,63.65c2.736-0.987,5.473-1.975,8.209-2.962
	c0.185,0.504,0.369,1.008,0.554,1.512c-1.958,3.131-5.535,2.143-8.383,3.011C7.487,64.69,7.36,64.169,7.234,63.65z"/>
<path fill-rule="evenodd" clip-rule="evenodd" fill="#FFFFFF" d="M160.021,472.91c4.902,2.335,9.199,4.383,13.498,6.431
	c-12.24,3.847-24.344,7.702-37.408,6.736C142.558,478.668,152.197,477.452,160.021,472.91z"/>
<path fill-rule="evenodd" clip-rule="evenodd" fill="#FFFFFF" d="M100.763,320.834c-2.542-5.397-2.771-16.352,0.387-22.23
	c0.277,3.729,0.736,7.458,0.779,11.191C101.969,313.358,104.872,317.372,100.763,320.834z"/>
<path fill-rule="evenodd" clip-rule="evenodd" fill="#FFFFFF" d="M144.815,477.371c6.011-8.379,9.334-10.183,14.064-7.966
	C156.556,473.152,152.612,475.449,144.815,477.371z"/>
<path fill-rule="evenodd" clip-rule="evenodd" fill="#FFFFFF" d="M124.367,296.893c1.077,4.134,2.195,7.899,0.114,12.056
	C120.563,305.271,120.559,301.407,124.367,296.893z"/>
<path fill-rule="evenodd" clip-rule="evenodd" fill="#FFFFFF" d="M108.148,320.532c-2.199,4.404-5.029,6.673-9.077,7.694
	C98.865,324.173,101.079,322.219,108.148,320.532z"/>
<path fill-rule="evenodd" clip-rule="evenodd" fill="#FFFFFF" d="M99.006,476.473c2.644,2.073,4.589,3.57,6.495,5.117
	c0.36,0.292,0.561,0.779,1.253,1.783c-5.458,0-10.453,0-15.447,0c-0.181-0.368-0.362-0.735-0.543-1.104
	C93.438,480.389,96.113,478.507,99.006,476.473z"/>
<path fill-rule="evenodd" clip-rule="evenodd" d="M103.189,121.991c9.525,1.922,19.065,3.583,28.833,1.057
	c0.149,0.378,0.299,0.757,0.449,1.135c-1.725,2.117-3.45,4.235-5.175,6.353c-6.89,4.552-17.933,3.203-23.551-2.756
	c-1.12-1.188-1.312-3.251-1.932-4.911C102.271,122.576,102.73,122.283,103.189,121.991z M110.697,126.524
	c4.432,4.369,9.903,4.86,14.866,1.124C120.265,127.248,115.814,126.911,110.697,126.524z"/>
<path fill-rule="evenodd" clip-rule="evenodd" d="M122.141,69.923c0.346,1.146,0.826,2.271,1.019,3.442
	c1.593,9.676,3.071,19.37,4.733,29.034c0.418,2.434,1.294,4.803,2.107,7.151c1.535,4.433,0.002,6.709-4.722,6.57
	c-1.565-0.046-3.114-0.619-4.67-0.952c0.033-0.353,0.066-0.706,0.1-1.059c1.67-0.468,3.341-0.936,5.663-1.586
	c-0.19-2.343-0.208-4.608-0.583-6.812c-1.789-10.494-3.715-20.966-5.476-31.465c-0.227-1.354,0.233-2.823,0.375-4.239
	C121.171,69.98,121.656,69.952,122.141,69.923z"/>
<path fill-rule="evenodd" clip-rule="evenodd" d="M131.605,90.22c-2.519-4.483-2.272-9.265-0.838-14.072
	c5.181-2.135,7.039-0.98,6.727,4.247c-0.146,2.469-0.597,4.948-1.194,7.353C135.765,89.903,134.464,91.306,131.605,90.22z"/>
<path fill-rule="evenodd" clip-rule="evenodd" d="M97.181,94.545c-3.782-2.495-4.649-5.946-3.977-9.729
	c0.465-2.615,1.575-5.182,5.022-5.016C102.372,84.885,102.118,89.597,97.181,94.545z"/>
<path fill-rule="evenodd" clip-rule="evenodd" d="M79.587,77.95c3.907-2.199,7.719-4.597,11.747-6.545
	c4.347-2.103,8.908-3.704,14.258-2.099c-0.332,1.141-0.623,2.14-1.001,3.438C97.191,70.686,91.482,74,85.88,77.752
	c-2.006,1.344-4.091,3.515-6.195,0.076L79.587,77.95z"/>
<path fill-rule="evenodd" clip-rule="evenodd" d="M145.564,63.248c-0.772,0.763-1.724,2.3-2.29,2.169
	c-5.391-1.24-10.105,0.938-14.954,2.544c-0.201,0.066-0.547-0.305-0.823-0.471C128.738,63.392,135.025,61.493,145.564,63.248z"/>
<path fill-rule="evenodd" clip-rule="evenodd" fill="#FFFFFF" d="M110.697,126.524c5.117,0.387,9.567,0.724,14.866,1.124
	C120.6,131.384,115.129,130.893,110.697,126.524z"/>
</svg>
