<?xml version="1.0" encoding="utf-8"?>
<!-- Generator: Adobe Illustrator 16.2.1, SVG Export Plug-In . SVG Version: 6.00 Build 0)  -->
<!DOCTYPE svg PUBLIC "-//W3C//DTD SVG 1.1//EN" "http://www.w3.org/Graphics/SVG/1.1/DTD/svg11.dtd">
<svg version="1.1" id="Layer_1" xmlns="http://www.w3.org/2000/svg" xmlns:xlink="http://www.w3.org/1999/xlink" x="0px" y="0px"
	 width="157.963px" height="512.185px" viewBox="0 0 157.963 512.185" enable-background="new 0 0 157.963 512.185"
	 xml:space="preserve">
<path fill-rule="evenodd" clip-rule="evenodd" d="M138.969,291.347c-0.435-0.237-0.868-0.474-1.303-0.711
	c-2.155,3.063-4.311,6.128-6.854,9.743c-1.186-1.948-1.926-3.162-2.67-4.384c1.241-2.493,2.365-4.717,3.457-6.955
	c1.043-2.138,4.021-3.566,2.213-8.02c-2.912,4.326-5.292,7.863-7.673,11.4c-0.416-0.105-0.832-0.212-1.249-0.317
	c0.121-1.546-0.141-3.257,0.44-4.604c1.313-3.049,3.149-5.868,4.538-8.889c0.418-0.908,0.064-2.172,0.064-3.272
	c-0.491-0.098-0.983-0.196-1.476-0.294c-1.67,2.899-3.34,5.799-5.01,8.697c0.062-7.958,3.246-14.494,8.418-20.5
	c1.196,1.993,1.805,3.943,2.146,5.938c0.324,1.899-1.028,4.39,1.968,5.356c2.455-5.087,0.13-12.791-4.703-15.564
	c-1.286,0.626-2.667,1.298-4.814,2.343c-0.604-11.21-1.17-21.688-1.735-32.166c0.368-0.109,0.735-0.22,1.103-0.329
	c0.773,0.962,1.698,1.839,2.296,2.899c3.514,6.237,6.903,12.544,10.454,18.76c0.753,1.318,1.998,2.354,3.017,3.521l1.623-1.143
	c-5.943-10.757-11.888-21.514-18.026-32.624c1.829-2.03,3.509-3.895,5.782-6.419c3.199,7.072,5.736,13.386,8.852,19.4
	c3.347,6.461,4.557,12.885,4.281,19.823c0.885-3.438,1.761-6.786,2.354-10.202c-8.99-19.14-15.185-38.782-29.349-53.547
	c-7.293-0.516-14.112-0.821-20.89-1.524c-7.125-0.74-8.321-2.406-8.246-10.627c17.062-1.735,34.18-3.476,52.363-5.324
	c0.024-2.466,0.384-5.366,0.021-8.173c-1.429-11.066-3.209-22.088-4.603-33.157c-0.674-5.359-0.78-10.79-1.068-15.057
	c4.206-1.865,7.733-2.697,10.318-4.729c5.345-4.201,7.659-9.795,5.871-16.821c-1.463-5.747-4.464-9.23-11.368-8.655
	c0-2.946,0.061-5.534-0.014-8.119c-0.127-4.465-0.163-8.943-0.58-13.385c-0.241-2.571-1.053-5.109-1.781-7.612
	c-1.913-6.58,0.069-14.667-7.332-19.165c-0.142-0.086-0.018-0.609-0.018-1.046c2.521-3.234,8.272-3.028,9.884-8.434
	c-4.05-0.387-7.456-0.713-11.442-1.095c3.142-4.605,8.451-6.474,8.686-12.09h-23.264c-0.853-4.964,5.491-8.964,2.377-14.277
	c-3.636,2.024-6.735,4.376-10.229,5.582c-11.48,3.964-23.061,7.653-34.686,11.175c-9.684,2.934-18.685,6.995-26.304,13.808
	c-0.761,0.681-1.874,0.969-2.87,1.463c-0.923-2.598-1.694-4.768-2.548-7.173c-6.821,5.192-9.806,14.114-6.523,19.034
	c2.739-3.606,0.046-9.351,4.707-12.204c0.598,2.206,1.1,4.061,1.89,6.979c2.218-1.124,4.424-1.512,5.275-2.797
	c4.39-6.633,11.002-10.11,17.965-12.922c5.847-2.36,11.99-3.98,17.981-5.988c10.494-3.518,20.971-7.081,32.065-10.831
	c-1.748,4.175-3.39,8.096-5.419,12.942c8.347-0.68,15.599-3.354,23.043-0.742c-2.024,3.604-3.872,6.896-6.052,10.776
	c2.953,0.639,4.748,1.026,6.542,1.415c-4.375,1.912-3.269,5.792-4.196,9.288c6.887,5.218,8.493,12.565,7.852,20.787
	c-1.644-1.325-2.622-3.018-3.867-4.482c-1.029-1.21-2.316-2.976-3.59-3.064c-5.007-0.354-7.033-3.905-9.231-7.49
	c-0.848-1.382-1.899-2.639-3.317-4.582c-0.886,5.302,3.73,13.427,8.395,14.725c3.596,1.001,5.189,3.535,7.59,5.754
	c3.533,3.269,2.819,7.59,4.167,11.296c0.872-0.082,1.47-0.139,1.847-0.175v15.409c-0.813,0.57-2.067,1.448-3.795,2.658
	c-1.129-6.845,1.549-13.577-3.162-19.149c-0.812,1.273-1.223,2.569-1.092,3.809c0.329,3.108,1.146,6.176,1.335,9.286
	c0.566,9.299,0.485,18.655,1.462,27.905c1.712,16.21,4.059,32.354,6.042,48.537c0.29,2.361,0.04,4.789,0.04,7.596
	c-28.928,3.817-57.181,6.035-85.948,6.61c-0.458-1.173-1.13-2.332-1.363-3.574c-3.286-17.511-6.481-35.039-9.77-52.549
	c-0.988-5.259-1.41-10.252,3.663-13.897c0.39-0.28,0.384-1.111,0.743-2.268c-1.727,0.432-2.9,0.725-4.271,1.067
	c-0.862-1.463-1.68-2.851-2.484-4.216c1.421-2.331,2.661-4.364,4.5-7.382c-2.498,0.654-3.779,0.989-5.061,1.325
	c-0.319-0.235-0.638-0.472-0.957-0.707c1.504-3.362,3.008-6.725,4.512-10.088c-0.24-0.173-0.479-0.345-0.72-0.518
	c-1.405,0.784-2.81,1.567-4.215,2.352c-0.365-0.246-0.731-0.491-1.096-0.737c1.487-3.148,2.975-6.296,4.654-9.85
	c-3.155,0.692-5.447,1.195-7.808,1.713c-0.542,7.569-0.57,14.912,2.839,22.231c-3.884-1.083-4.026-1.049-4.884-4.605
	c-2.884-11.946-3.381-24.062-2.018-36.237c0.432-3.858,1.467-7.65,2.336-12.025c-3.699,1.497-3.732,4.292-4.091,6.831
	c-1.952,13.798-1.814,27.55,0.956,41.247c0.247,1.22,0.033,2.532,0.033,3.679c-6.025,2.114-8.178,4.313-9.677,8.203
	c-3.702,9.604,5.888,21.49,15.726,23.347c0.966,0.182,2.105-0.553,3.164-0.861c-1.432-1.338-2.694-1.611-3.913-2.017
	c-7.259-2.416-12.535-8.854-12.874-15.661c-0.28-5.609,2.596-8.825,8.799-9.445c0.947,3.996,8.497,2.649,7.777,9.134
	c-4.509-0.602-5.469-6.664-11.401-5.236c2.377,2.58,4.249,4.613,6.166,6.694c-4.384,2.522-5.075,4.763-2.685,8.436
	c0.334,0.514,1.197,0.685,2.096,1.164v-4.695c7.358,1.186,8.099,1.958,8.704,8.669c0.119,1.324,0.31,2.647,0.551,3.956
	c2.772,15.055,5.569,30.104,8.339,45.159c1.049,5.7,1.942,5.929,7.803,4.988c5.992-0.961,12.125-1.052,18.813-1.572
	c0.34,3.894,0.59,6.768,0.914,10.471c-8.337,4.805-16.456,9.646-24.74,14.186c-3.831,2.1-7.229,4.166-9.654,8.183
	c-3.331,5.519-7.638,10.449-11.54,15.621c-4.062,5.383-8.488,10.529-12.125,16.184c-5.128,7.973-9.708,16.3-14.436,24.524
	c-0.624,1.084-0.739,2.461-1.09,3.702c0.469,0.207,0.938,0.416,1.407,0.623c8.762-12.321,13.868-27.148,24.771-38.68
	c2.663,1.884,4.751,3.361,7.696,5.444c-7.499,11.489-14.688,22.505-22.184,33.99c10.044,3.727,20.72,4.493,30.496,11.178
	c0.651-4.114,0.918-7.627,1.815-10.971c0.967-3.603,2.523-7.047,3.875-10.699c6.596,1.315,9.774,5.364,11.907,10.441
	c1.482,3.526,2.611,7.2,4.033,10.755c0.361,0.903,1.24,1.6,2.096,2.656c1.897-5.753-6.716-21.021-14.856-27.499
	c-2.534-10.615-5.017-21.021-7.467-31.288c-5.767-0.094-5.341,5.745-9.195,7.57c-1.897-1.548-3.874-3.162-6.014-4.908
	c8.509-11.396,16.26-22.378,29.334-28.629c5.948-2.843,10.154-2.65,14.978,0.965c3.732,2.797,7.475,5.594,11.357,8.176
	c5.472,3.639,7.284,2.967,9.537-3.07c1.8-4.82,3.664-9.617,5.695-14.937c3.881,0.199,7.665,0.286,11.423,0.643
	c1.433,0.137,3.274,0.48,4.125,1.441c3.515,3.97,7.037,8.004,9.953,12.413c3.032,4.585,2.265,6.592-3.002,10.519
	c-0.343-2.702-0.651-5.128-0.993-7.817c-3.694,1.009-2.74,3.297-2.562,5.328c1.455,16.577,2.927,33.153,4.277,49.739
	c0.172,2.12-0.064,4.355-0.559,6.431c-1.192,5.01-2.53,9.993-4.032,14.919c-1.58,5.181-0.843,9.457,4.099,12.238
	c0.482,4.557-2.733,4.466-5.494,4.835c-21.438,2.861-42.876,5.707-64.317,8.529c-0.252,0.033-0.554-0.306-0.78-0.439v-13.092
	c2.125,0.812,3.699,1.412,5.274,2.013c-2.491-4.766-6.202-7.604-10.839-9.133c-0.362,0.35-0.724,0.7-1.086,1.05
	c1.069,1.649,2.139,3.299,3.424,5.282c-1.055,1.125-2.136,2.277-4.424,4.718c-1.615-2.299-2.783-4.343-4.327-6.046
	c-1.389-1.53-2.473-4.113-6.552-2.601c3.684,4.129,6.983,7.827,10.346,11.598c1.562-0.126,2.988-0.241,4.523-0.365
	c0,10.362,0.04,20.6-0.011,30.837c-0.052,10.496-0.231,20.991-0.284,31.487c-0.051,10.073-0.011,20.146-0.011,30.22
	c0.695-0.001,1.39-0.001,2.084-0.001c1.11-13.154-0.309-26.386,0.083-39.562c0.405-13.61,0.476-27.229,0.698-41.17
	c3.677-1.258,6.808-2.33,11.117-3.805c-0.885,4.292-0.864,7.529-2.268,9.935c-1.121,1.921-3.978,2.829-6.908,4.736
	c1.485,0.608,2.509,1.419,3.474,1.353c3.579-0.246,5.726-2.478,6.706-5.785c0.565-1.908,0.918-3.896,1.183-5.873
	c0.443-3.313,2.132-4.817,5.57-5.138c7.443-0.692,14.848-1.795,22.276-2.663c1.407-0.164,2.851-0.023,4.487-0.023
	c0,7.867,0.139,15.146-0.141,22.409c-0.045,1.176-1.947,2.28-2.992,3.418c-0.559-0.262-1.116-0.523-1.675-0.785
	c0.589-7.257,1.177-14.515,1.765-21.771c-0.433-0.13-0.865-0.26-1.299-0.39c-0.601,1.477-1.566,2.913-1.731,4.437
	c-0.449,4.134-0.689,8.303-0.773,12.463c-0.157,7.703-0.09,7.694-7.265,10.429c-1.816,0.691-3.919,1.244-2.836,4.791
	c2.355-0.867,4.519-1.664,7.433-2.736c-0.54,16.795-0.02,33.138-3.404,49.73c-9.967,1.489-19.578,2.925-29.125,4.352
	c0.543,2.88,1.355,5.288,1.398,7.71c0.399,22.644,0.613,45.29,1.006,67.934c0.104,5.99,0.681,11.98-4.07,16.906
	c1.563,1.175,2.723,2.047,4.375,3.288v18.046c-0.588,0.531-1.735,1.565-2.881,2.6c0.134,0.443,0.267,0.886,0.401,1.329
	c1.744-0.209,3.557-0.181,5.22-0.664c13.214-3.842,26.731-5.687,40.444-5.653c4.804,0.012,6.744-3.033,10.378-6.321
	c-12.855-6.729-24.835-13.001-36.111-18.904c-2.666-8.755-6.788-80.801-4.983-85.899c4.96-0.511,10.215-3.964,15.479,2.142
	c0.639-1.96,1.327-3.226,1.435-4.539c0.599-7.303,1.048-14.618,1.566-21.929c0.526-7.419,1.074-14.836,1.612-22.254
	c0.28,0.012,0.56,0.024,0.839,0.036c1.166,14.205,2.333,28.41,3.499,42.615c0.598-0.033,1.194-0.066,1.792-0.1
	c-1.091-17.964-2.181-35.927-3.252-53.581c15.697-5.653,15.697-5.653,15.434-8.938c-2.915,1.041-5.809,2.074-9.768,3.488
	c0.85-8.813,1.604-16.643,2.396-24.846c4.078-0.392,7.605-0.731,11.744-1.129c0,2.911-0.318,5.061,0.087,7.062
	c0.429,2.118,0.991,4.926,2.497,5.936c2.057,1.378,4.977,0.929,7.647-1.379c-2.407-0.673-4.257-1.19-6.977-1.95
	c0.306-3.406,0.602-6.704,0.914-10.186c2.647-0.402,4.512-0.686,6.334-0.962c3.662,6.703,0.641,14.071,3.643,21.421
	c3.644-6.562,0.444-12.485,1.676-17.99c5.593-0.151,8.09-2.255,8.497-7.21c-1.099,0.599-2.083,1.135-3.309,1.802
	C134.736,297.811,140.055,295.713,138.969,291.347z"/>
<path d="M156.565,486.064c-6.759,0.567-14.124,1.06-20.51-1.557c-6.47-2.652-12.626-7.647-13.872-14.999
	c-0.732-4.321,0.309-8.183,0.195-12.468c-0.126-4.808-1.003-9.509-2.191-14.161c-2.617-10.243-5.782-20.534-7.183-31.034
	c-0.637-4.775-3.246-12.565-0.057-16.963c3.265-4.503,9.646-4.721,14.946-3.789c0.662-1.131,1.782-1.984,3.356-2.192
	c-1.027-3.603-2.421-7.177-3.4-10.727c-0.805-2.914,0.88-5.042,3.076-5.846l-4.774-21.182c0.079,1.149,0.053,2.354-0.016,3.611
	c-0.151,2.809,0.354,5.646,0.376,8.472c0.061,7.615,0.021,15.23,0.021,23.546c-9.686,2.535-19.032,4.981-28.173,7.374
	c0.643,4.386,1.396,8.291,1.757,12.233c0.864,9.446,1.279,18.94,2.368,28.358c1.127,9.749,2.911,19.42,4.232,29.148
	c0.303,2.233,0.71,5.12-0.379,6.721c-1.73,2.543-1.143,4.559-0.567,7.014c0.945,4.037,1.599,8.142,2.417,12.209
	c0.251,1.247,0.64,2.467,1.045,3.997c6.779-1.064,13.206-2.074,19.633-3.084c0.041,0.236,0.081,0.473,0.121,0.708
	c-3.24,1.164-6.479,2.327-10.615,3.812c1.609,1.201,2.227,1.981,2.575,1.876c11.926-3.62,24.236-4.754,37.016-4.881L156.565,486.064
	z"/>
<path d="M126.152,351.147c-0.095-1.369-0.346-2.659-0.871-3.863L126.152,351.147z"/>
<path d="M121.238,342.811c2.08,1.319,3.32,2.816,4.043,4.474l-2.544-11.286C118.647,336.812,117.705,340.57,121.238,342.811z"/>
<path fill-rule="evenodd" clip-rule="evenodd" d="M112.948,394.883c1.021-1.407,2.352-2.384,3.853-3.051
	c-1.947,0.236-3.943,0.479-6.018,0.73c0.266,2.063,0.524,4.035,0.775,5.955C111.766,397.172,112.188,395.93,112.948,394.883z"/>
<path fill-rule="evenodd" clip-rule="evenodd" d="M122.184,469.509c-0.732-4.321,0.309-8.183,0.195-12.468
	c-0.126-4.808-1.003-9.509-2.191-14.161c-2.199-8.606-4.772-17.249-6.373-26.019c1.437,12.437,2.807,24.881,4.436,37.292
	c0.755,5.751,2.251,11.409,3.508,17.088c0.469,2.12,1.529,3.664,3.065,4.713C123.528,474.055,122.591,471.91,122.184,469.509z"/>
<path fill-rule="evenodd" clip-rule="evenodd" d="M150.454,340.909"/>
<path fill-rule="evenodd" clip-rule="evenodd" d="M67.01,396.388c-6.124-0.538-7.12,0.044-7.201,4.594
	c-0.191,10.633-0.268,21.272-0.118,31.905c0.237,16.73,0.698,33.458,1.085,51.127c4.463-0.672,7.739-1.164,11.341-1.705
	C70.386,453.184,68.703,424.864,67.01,396.388z"/>
<path fill-rule="evenodd" clip-rule="evenodd" d="M19.286,269.166c6.834,3.247,13.85,6.159,22.089,7.389
	c1.949-5.901,3.816-11.356,5.539-16.857c0.812-2.593,2.235-5.417,1.833-7.884c-0.905-5.538-2.736-10.929-4.303-16.348
	c-0.229-0.793-1.076-1.407-1.674-2.151C35.315,241.62,20.617,263.856,19.286,269.166z"/>
<path fill-rule="evenodd" clip-rule="evenodd" d="M119.203,474.344c-6.27-26.409-5.75-53.387-11.432-79.483
	c-4.952,0.688-5.458,1.363-5.284,6.792c0.676,21.143,2.481,42.169,7.135,62.847c0.802,3.563,1.292,6.698-1.863,9.65
	C111.485,477.27,114.818,475.801,119.203,474.344z"/>
<path fill-rule="evenodd" clip-rule="evenodd" d="M61.897,501.547c6.616-0.789,12.156-1.521,17.713-2.091
	c4.556-0.467,7.078-2.972,8.094-7.206c-8.705-8.373-17.714-9.68-26.766-3.583C61.229,492.572,61.542,496.776,61.897,501.547z"/>
<path fill-rule="evenodd" clip-rule="evenodd" d="M130.031,481.191c-4.726-0.879-9.444-1.81-14.206-2.362
	c-1.878-0.218-3.926,1.027-6.231,1.701c0.562,3.478,1.025,6.338,1.551,9.586c6.195-0.755,11.959-1.093,17.52-2.336
	c1.81-0.403,3.156-2.874,4.685-4.542C132.201,482.634,131.086,481.952,130.031,481.191z"/>
<path fill-rule="evenodd" clip-rule="evenodd" d="M93.688,191.694c-6.334-2.382-6.329-2.384-8.567-9.408
	c-0.251-0.788-0.627-1.535-0.9-2.316c-0.953-2.727-2.665-3.628-6.076-1.984c0,4.572,0,9.449,0,15.408
	c1.988,1.806,4.085,5.863,8.758,5.178C90.373,198.063,92.613,195.544,93.688,191.694z"/>
<path fill-rule="evenodd" clip-rule="evenodd" d="M139.272,98.938c1.104,1.675,2.892,3.2,2.645,4.246
	c-0.635,2.69-2.17,5.169-3.31,7.652c7.329-1.629,11.674-8.923,9.685-16.477c-1.104-4.189-3.353-6.33-6.152-5.856
	c-3.817,0.646-7.617,5.103-7.437,8.829c1.548-0.437,3.073-0.867,5.118-1.444C139.542,97.442,139.355,98.476,139.272,98.938z"/>
<path fill-rule="evenodd" clip-rule="evenodd" d="M71.856,193.082c-0.354,0.481-0.708,0.963-1.062,1.444
	c6.481,4.729,12.275,10.492,20.771,13.658c2.104-5.062,3.962-9.535,5.819-14.008c-2.319,1.366-3.719,3.327-5.401,5.005
	c-3.282,3.277-6.954,3.914-10.302,1.74c-1.93-1.253-3.588-2.921-5.391-4.374C74.829,195.371,73.335,194.235,71.856,193.082z"/>
<path fill-rule="evenodd" clip-rule="evenodd" d="M62.755,507.893c9.046-1.433,18.093-2.865,27.697-4.386
	C78.211,500.866,68.615,502.117,62.755,507.893z"/>
<path fill-rule="evenodd" clip-rule="evenodd" d="M136.353,484.619c-0.65,0.693-1.102,1.679-1.257,2.951h14.527
	c0.098-0.362,0.195-0.724,0.293-1.086C145.282,486.621,140.608,486.292,136.353,484.619z"/>
<path fill-rule="evenodd" clip-rule="evenodd" d="M90.065,496.404c2.217,1.393,4.166,2.616,6.72,4.22
	c1.362-0.205,3.345-0.502,5.837-0.876C97.245,494.629,93.183,493.69,90.065,496.404z"/>
<path fill-rule="evenodd" clip-rule="evenodd" d="M120.651,141.871c-2.118,17.706-31.184,25.475-41.905,16.115
	c-3.147-2.747-6.165-5.407-6.466-10.52C88.856,148.273,104.58,144.517,120.651,141.871z M78.199,151.415
	c3.029,5.402,8.142,8.071,14.57,7.387c9.018-0.96,17.617-2.98,23.006-13.149C102.747,147.65,90.751,149.49,78.199,151.415z"/>
<path fill-rule="evenodd" clip-rule="evenodd" d="M76.826,35.13c-3.486-4.657-8.229-1.17-11.864-3.231
	c5.518-4.153,12.317-4.271,18.242-6.851c0.147,0.322,0.294,0.646,0.441,0.968c-2.385,1.315-4.771,2.632-7.365,4.062
	c1.43,1.901,2.679,3.562,4.667,6.204c-2.897,1.2-5.099,2.531-7.467,2.978c-2.515,0.474-5.188,0.106-8.933,0.106
	c2.844,3.251,4.938,5.643,7.014,8.015c-4.635,4.102-18.378,3.026-21.653-2.143c3.078,0.556,5.508,1.18,7.975,1.391
	c2.599,0.222,5.232,0.049,8.287,0.049c-1.722-5.825-7.806-6.382-11.575-11.466c2.414,0,3.753-0.098,5.073,0.019
	c4.445,0.39,8.876,0.957,13.327,1.22C74.107,36.516,75.274,35.692,76.826,35.13z"/>
<path fill-rule="evenodd" clip-rule="evenodd" d="M110.455,40.674C98.06,51.861,83.106,56.055,66.143,56.176
	c-1.549,2.207-3.375,4.545-4.915,7.059c-2.596,4.237-5.621,7.517-11.12,6.158c-1.308,1.764-2.478,3.342-4.161,5.61
	c-2.16-1.291-4.2-2.51-6.24-3.729c0.183-0.439,0.366-0.879,0.548-1.318c1.458,0.176,2.916,0.352,4.635,0.558
	c1.092-1.902,2.195-3.825,3.417-5.953c1.835,0.938,3.255,1.664,5.419,2.77c1.714-1.693,3.684-3.352,5.286-5.311
	c1.461-1.785,2.292-4.105,3.822-5.812c1.921-2.144,3.918-4.259,7.437-3.935c10.932,1.008,21.055-1.753,30.501-7.182
	c3.098-1.78,6.127-3.678,9.188-5.521C110.125,39.938,110.29,40.307,110.455,40.674z"/>
<path fill-rule="evenodd" clip-rule="evenodd" d="M56.423,102.863c-6.564-3.513-6.931-7.352-0.954-10.488
	c4.166-2.187,8.864-3.648,13.496-4.518c1.876-0.353,4.658,1.293,6.179,2.855c1.045,1.072,1.061,3.674,0.645,5.374
	c-0.159,0.647-2.825,0.62-4.318,1.015c-3.609,0.953-7.248,1.834-10.777,3.033C59.183,100.648,57.917,101.88,56.423,102.863z"/>
<path fill-rule="evenodd" clip-rule="evenodd" d="M93.603,82.886c0.816,1.396,1.986,2.697,2.396,4.205
	c3.584,13.164,7.004,26.374,10.542,39.551c0.878,3.27,2.016,6.469,3.249,10.385c-8.138,0.92-14.843,4.85-22.14,5.754
	c-0.183-0.8-0.366-1.599-0.548-2.398c5.858-1.995,11.715-3.989,17.977-6.12c-2.822-17.621-8.239-34.05-13.32-50.558
	C92.374,83.432,92.988,83.158,93.603,82.886z"/>
<path fill-rule="evenodd" clip-rule="evenodd" d="M104.058,96.981c-0.492-2.929-0.786-4.683-1.1-6.55
	c4.06-3.738,8.294-6.72,13.904-7.129c3.237-0.237,5.9,0.66,7.539,3.65c1.573,2.869,0.438,5.923-2.747,5.73
	C115.57,92.318,110.048,93.704,104.058,96.981z"/>
<path fill-rule="evenodd" clip-rule="evenodd" d="M43.526,285.107c-0.496,1.415-0.965,2.753-1.646,4.697
	C28.097,284.242,13,284.12,0,277.19c0.124-0.548,0.247-1.096,0.371-1.643c1.313,0.195,2.661,0.267,3.935,0.606
	c10.267,2.742,20.498,5.623,30.793,8.247C37.562,285.029,40.23,284.857,43.526,285.107z"/>
<path fill-rule="evenodd" clip-rule="evenodd" d="M44.76,87.611c4.766-6.945,12.794-8.741,20.254-11.143
	c4.317-1.391,8.944-1.526,12.806,2.287c-5.688,0.665-11.628,0.529-16.992,2.221c-5.331,1.681-10.082,5.199-15.087,7.911
	C45.414,88.462,45.087,88.036,44.76,87.611z"/>
<path fill-rule="evenodd" clip-rule="evenodd" d="M91.494,38.185c10.435-3.734,20.447-7.317,31.166-11.153
	c-0.246,5.472-4.952,6.729-7.557,10.516c-0.721-1.861-1.098-2.836-1.44-3.719c-7.244,1.994-14.32,3.948-21.415,5.836
	C92.155,39.689,91.838,38.871,91.494,38.185z"/>
<path fill-rule="evenodd" clip-rule="evenodd" d="M99.101,77.187c-0.082-1.363-0.551-2.596-0.141-3.354
	c3.816-7.065,15.402-11.416,22.884-8.683c2.036,0.744,4.138,1.559,3.23,5.226c-4.588-1.159-9.055-5.129-13.854-2.18
	C107.221,70.654,103.633,73.783,99.101,77.187z"/>
<path fill-rule="evenodd" clip-rule="evenodd" d="M64.863,289.091c-4.334-4.886-8.668-9.771-13.147-14.82
	c2.718-1.945,4.273-0.251,5.421,1.124c3.392,4.061,7.694,7.612,9.062,12.955C65.753,288.597,65.308,288.844,64.863,289.091z"/>
<path fill-rule="evenodd" clip-rule="evenodd" d="M60.049,294.758c-2.001-6.289-9.793-6.622-12.103-12.675
	c6.153,0.504,9.21,5.41,13.052,9.108c0.571,0.55,0.291,1.984,0.404,3.009C60.951,294.386,60.5,294.571,60.049,294.758z"/>
<path fill-rule="evenodd" clip-rule="evenodd" fill="#FFFFFF" d="M67.01,396.388c1.693,28.477,3.376,56.796,5.108,85.921
	c-3.603,0.541-6.878,1.033-11.341,1.705c-0.387-17.669-0.849-34.396-1.085-51.127c-0.15-10.633-0.073-21.272,0.118-31.905
	C59.89,396.432,60.886,395.85,67.01,396.388z"/>
<path fill-rule="evenodd" clip-rule="evenodd" fill="#FFFFFF" d="M19.286,269.166c1.331-5.31,16.029-27.546,23.483-35.852
	c0.598,0.744,1.445,1.358,1.674,2.151c1.567,5.419,3.398,10.81,4.303,16.348c0.403,2.467-1.02,5.291-1.833,7.884
	c-1.723,5.501-3.59,10.956-5.539,16.857C33.136,275.325,26.12,272.413,19.286,269.166z"/>
<path fill-rule="evenodd" clip-rule="evenodd" fill="#FFFFFF" d="M119.203,474.344c-4.385,1.457-7.718,2.926-11.444-0.194
	c3.155-2.952,2.665-6.087,1.863-9.65c-4.653-20.678-6.459-41.704-7.135-62.847c-0.174-5.429,0.332-6.104,5.284-6.792
	C113.453,420.957,112.934,447.935,119.203,474.344z"/>
<path fill-rule="evenodd" clip-rule="evenodd" fill="#FFFFFF" d="M61.897,501.547c-0.355-4.771-0.668-8.975-0.958-12.88
	c9.051-6.097,18.061-4.79,26.766,3.583c-1.016,4.234-3.538,6.739-8.094,7.206C74.053,500.025,68.513,500.758,61.897,501.547z"/>
<path fill-rule="evenodd" clip-rule="evenodd" fill="#FFFFFF" d="M130.031,481.191c-4.726-0.879-9.444-1.81-14.206-2.362
	c-1.878-0.218-3.926,1.027-6.231,1.701c0.562,3.478,1.025,6.338,1.551,9.586c6.195-0.755,11.959-1.093,17.52-2.336
	c1.81-0.403,3.156-2.874,4.685-4.542C132.201,482.634,131.086,481.952,130.031,481.191z"/>
<path fill-rule="evenodd" clip-rule="evenodd" fill="#FFFFFF" d="M93.688,191.694c-1.075,3.85-3.315,6.369-6.785,6.877
	c-4.673,0.686-6.771-3.372-8.758-5.178c0-5.959,0-10.836,0-15.408c3.411-1.644,5.124-0.742,6.076,1.984
	c0.273,0.781,0.649,1.528,0.9,2.316C87.359,189.311,87.354,189.312,93.688,191.694z"/>
<path fill-rule="evenodd" clip-rule="evenodd" fill="#FFFFFF" d="M139.272,98.938c0.083-0.462,0.27-1.495,0.549-3.05
	c-2.045,0.577-3.57,1.008-5.118,1.444c-0.181-3.727,3.619-8.183,7.437-8.829c2.8-0.474,5.049,1.667,6.152,5.856
	c1.989,7.554-2.355,14.848-9.685,16.477c1.14-2.483,2.675-4.962,3.31-7.652C142.164,102.138,140.376,100.612,139.272,98.938z"/>
<path fill-rule="evenodd" clip-rule="evenodd" fill="#FFFFFF" d="M71.856,193.082c1.479,1.153,2.973,2.289,4.434,3.466
	c1.803,1.453,3.461,3.121,5.391,4.374c3.348,2.174,7.02,1.537,10.302-1.74c1.682-1.678,3.082-3.639,5.401-5.005
	c-1.857,4.473-3.716,8.945-5.819,14.008c-8.496-3.166-14.29-8.929-20.771-13.658C71.147,194.045,71.502,193.563,71.856,193.082z"/>
<path fill-rule="evenodd" clip-rule="evenodd" fill="#FFFFFF" d="M62.755,507.893c5.86-5.775,15.457-7.026,27.697-4.386
	C80.848,505.027,71.801,506.46,62.755,507.893z"/>
<path fill-rule="evenodd" clip-rule="evenodd" fill="#FFFFFF" d="M136.353,484.619c-0.65,0.693-1.102,1.679-1.257,2.951h14.527
	c0.098-0.362,0.195-0.724,0.293-1.086C145.282,486.621,140.608,486.292,136.353,484.619z"/>
<path fill-rule="evenodd" clip-rule="evenodd" fill="#FFFFFF" d="M90.065,496.404c3.117-2.714,7.18-1.775,12.557,3.344
	c-2.492,0.374-4.475,0.671-5.837,0.876C94.231,499.021,92.282,497.797,90.065,496.404z"/>
<path fill-rule="evenodd" clip-rule="evenodd" fill="#FFFFFF" d="M78.199,151.415c12.553-1.925,24.548-3.765,37.576-5.763
	c-5.389,10.169-13.988,12.189-23.006,13.149C86.341,159.486,81.228,156.817,78.199,151.415z"/>
</svg>
