<?xml version="1.0" encoding="utf-8"?>
<!-- Generator: Adobe Illustrator 16.2.1, SVG Export Plug-In . SVG Version: 6.00 Build 0)  -->
<!DOCTYPE svg PUBLIC "-//W3C//DTD SVG 1.1//EN" "http://www.w3.org/Graphics/SVG/1.1/DTD/svg11.dtd">
<svg version="1.1" id="Layer_1" xmlns="http://www.w3.org/2000/svg" xmlns:xlink="http://www.w3.org/1999/xlink" x="0px" y="0px"
	 width="192.799px" height="503.904px" viewBox="0 0 192.799 503.904" enable-background="new 0 0 192.799 503.904"
	 xml:space="preserve">
<path fill-rule="evenodd" clip-rule="evenodd" d="M192.063,267.352c1.375-4.701,0.854-8.232-1.833-12.048
	c-4.694-6.665-9.207-13.461-13.66-20.29c-11.111-17.042-25.095-31.677-37.674-45.896c-12.363-1.655-23.517-3.148-33.844-4.531
	c-2.266-3.659-1.478-5.582,0.753-7.123c1.917-1.324,4.23-2.273,5.733-3.956c4.579-5.128,8.851-10.53,12.834-15.334
	c3.746-0.603,8.154-0.217,11.094-2.111c2.613-1.684,4.83-2.884,7.893-3.164c5.361-0.49,9.145-3.508,9.229-8.145
	c0.08-4.324,2.453-6.641,5.284-9.017c0.964-0.809,1.865-1.693,2.768-2.517c-2.118-4.877-7.299-0.352-9.582-3.761
	c13.827-8.362,14.872-10.351,9.936-18.825c5.623-6.688,5.62-6.721-1.076-14.096c0.468-4.857,7.437-6.501,6.166-12.177
	c-6.85-2.524-9.217-4.073-11.351-8.641c-1.459-3.124-2.267-6.561-3.279-9.884c-2.663-8.743-5.065-17.574-8.025-26.215
	c-1.104-3.222-3.523-5.938-7.421-6.264c-2.061,2.242-0.633,3.236,0.871,4.574c1.562,1.388,3.325,3.024,3.953,4.902
	c2.64,7.884,5.427,15.788,7.095,23.903c1.192,5.804,3.543,10.715,7.136,15.128c1.729,2.123,4.097,3.727,6.428,5.788
	c-2.423,3.148-4.724,6.138-7.507,9.754c2.645,2.258,5.129,4.379,8.137,6.946c-2.917,2.359-5.278,4.269-8.095,6.546
	c2.364,1.801,4.39,3.343,6.733,5.128c-3.064,7.14-8.71,10.12-16.039,10.541c-1.243,7.369,5.258,6.257,8.927,8.673
	c-2.529,2.415-4.72,4.506-6.893,6.58c0.95,1.564,1.681,2.768,2.376,3.913c-2.328,4.014-5.766,4.927-9.6,4.058
	c-3.053-0.692-5.122-0.402-6.39,2.812c-0.945,2.397-3.231,2.441-5.078,1.485c-1.398-0.725-3.272-2.295-3.327-3.557
	c-0.313-7.384-0.154-14.786-0.154-22.626c4.011,1.339,6.316,5.716,10.961,2.517c-3.742-2.656-7.13-5.061-10.989-7.801
	c0.824-6.463-3.425-14.298,4.069-20.952c1.059,0.605,2.34,1.338,3.621,2.069c-1.426,2.291-2.853,4.583-4.387,7.049
	c3.467,0.882,5.766-1.02,7.291-3.963c1.782-3.44,0.619-5.287-5.937-10.109c1.055-1.654,2.119-3.325,3.472-5.447
	c-6.591-1.108-5.984,5.354-9.479,7.525c-0.265-1.051-0.534-1.799-0.635-2.569c-0.802-6.126,1.258-9.2,7.015-10.535
	c3.825-0.887,7.495,1.575,9.376,6.48c1.899,4.953,1.335,9.844-0.9,14.543c-2.047,4.304-4.739,7.948-10.9,7.973
	c2.635,3.335,4.901,3.052,7.317,1.309c8.134-5.865,10.923-19.355,5.804-27.969c-3.328-5.599-8.119-7.121-14.045-4.458
	c-1.295,0.582-2.585,1.175-4.362,1.982c-1.014-4.276-1.901-7.954-2.754-11.639c-1.115-4.815-2.596-9.653,0.667-14.279
	c0.059-0.082-0.339-0.485-0.701-0.981c-0.675,0.344-1.391,0.689-2.089,1.068c-5.543,3.015-7.39,2.116-8.264-4.078
	c-0.187-1.317-0.017-2.724-0.413-3.959c-0.318-0.995-1.244-1.795-2.371-3.317c-2.374,4.103-0.95,9.208-6.493,11.127
	c-1.528-7.332-3-14.399-4.472-21.467c-0.689-0.146-1.378-0.29-2.066-0.436c-2.862,13.814-8.724,25.557-21.422,33.533
	c-0.149-4.8,1.938-9.23-1.915-13.494c-1.14,1.626-2.041,2.893-2.923,4.173c-1.317,1.913-2.351,4.114-3.984,5.696
	c-3.671,3.554-7.786,6.44-13.415,6.122c1.759-4.253,3.472-7.971,4.82-11.816c0.811-2.312-0.414-3.361-3.347-2.974
	c-1.629,8.162-6.444,13.76-14.206,16.715c-3.099-3.531,0.246-9.119-3.647-11.88c-0.572,0.138-1.144,0.274-1.716,0.412
	c0.374,4.309,0.749,8.617,1.179,13.575c-1.793,0-3.159,0.34-4.198-0.098c-1.006-0.424-1.675-1.647-2.667-2.706
	c-1.95,5.057-1.896,5.105,7.166,6.878c0.271,1.236,0.695,2.641,0.879,4.075c1.455,11.395,2.498,22.855,4.376,34.179
	c2.757,16.622,6.663,32.844,16.218,47.31c5.76,8.721,13.562,13.592,23.327,15.673c4.305,0.917,8.849,0.709,13.485,1.026
	c1.813,2.341,1.185,4.723-1.136,6.288c-3.557,2.4-7.297,4.6-11.171,6.438c-4.457,2.116-9.144,3.749-13.229,5.39
	c-1.708,9.433-3.176,18.28-4.972,27.062c-0.629,3.078-2.066,5.991-3.323,9.508c0.166,1.468,1.05,3.832,0.57,5.876
	c-4.479,19.099-6.486,38.794-13.64,57.245c-3.964,10.228-8.016,20.423-12.118,30.596c-0.521,1.294-1.594,2.367-2.49,3.655
	c-6.433-2.641-12.447-5.109-18.461-7.577c-0.372,0.417-0.743,0.835-1.115,1.253c0.566,1.561,0.791,3.394,1.771,4.623
	c1.745,2.188,4.137,3.861,5.887,6.047c1.012,1.264,2.204,3.454,1.755,4.635c-2.26,5.938-5.033,11.68-7.957,18.231
	c-0.09-0.125,0.298,1.019,1.045,1.35c5.754,2.547,11.439,5.388,17.426,7.229c4.658,1.433,6.956-0.329,9.018-4.883
	c1.081-2.389,2.186-4.767,3.011-6.564c-0.41-7.051-4.73-10.571-9.981-13.733c-5.048-3.038-9.665-6.799-14.405-10.33
	c-0.777-0.579-1.213-1.616-2.139-2.902c6.395,0.677,9.787,6.746,15.887,6.682c1.294-2.65,2.6-4.949,3.572-7.381
	c5.522-13.803,13.178-26.734,15.518-41.824c1.859-11.995,4.898-23.81,7.47-35.692c0.977-4.514,2.108-8.994,3.328-14.163
	c3.933,1.121,7.3,2.082,11.473,3.271c-8.749,36.946-14.216,73.821-30.756,107.775c1.491-0.596,2.388-1.451,2.831-2.499
	c3.826-9.038,6.901-18.472,11.524-27.076c4.878-9.076,6.042-18.72,7.265-28.528c0.103-0.819,0.432-1.607,0.62-2.419
	c3.283-14.109,6.559-28.222,9.845-42.331c0.371-1.594,0.796-3.176,1.195-4.763c0.428,0.059,0.854,0.118,1.281,0.177
	c1.219,7.695,2.554,15.375,3.63,23.091c1.794,12.851,3.568,25.706,5.041,38.596c0.519,4.541,2.84,9.612-2.791,13.516
	c1.736,0.72,2.856,1.184,4.382,1.815c0.149,2.447,0.307,5.023,0.464,7.599c1.271,3.139,2.519,6.401,2.907,9.763
	c1.664,14.387,2.837,28.833,4.638,43.201c2.442,19.484,5.153,38.938,8.021,58.365c2.018,13.661,4.578,27.241,6.657,40.895
	c0.292,1.92-0.133,4.639-1.344,5.971c-3.888,4.276-8.336,8.04-12.483,12.087c-0.899,0.878-1.45,2.113-2.161,3.184
	c0.291,0.39,0.581,0.779,0.871,1.169c12.107-0.418,22.261-7.551,33.586-10.663c0.485-0.133,0.62-1.54,1.223-3.184
	c-8.672,0.794-15.266,6.876-23.732,5.849c1.369-1.893,2.896-3.664,4.816-4.379c2.896-1.078,6.094-1.312,9.112-2.099
	c4.468-1.163,8.892-2.496,12.878-3.627c1.804,1.566,2.958,2.568,4.112,3.57c0.374-0.123,0.747-0.246,1.12-0.369
	c0-1.985,0.227-4.003-0.055-5.947c-0.379-2.618-1.268-5.159-1.732-7.771c-3.443-19.345-6.849-38.696-10.241-58.05
	c-3.794-21.643-7.622-43.28-11.273-64.947c-0.502-2.977-0.069-6.11-0.069-9.944c3.112,0.17,5.459,0.298,7.806,0.426
	c-0.141-0.167-0.28-0.333-0.421-0.5c2.396-1.331,4.792-2.662,7.964-4.424c0.975,5.399,1.711,9.612,2.497,13.816
	c4.127,22.071,8.259,44.143,12.406,66.21c2.889,15.371,5.778,30.742,8.758,46.096c0.265,1.361,1.201,2.593,1.825,3.884
	c0.527-0.146,1.055-0.292,1.582-0.438c-0.12-1.478-0.081-2.987-0.384-4.426c-3.773-17.914-7.842-35.771-11.33-53.739
	c-2.918-15.034-5.262-30.184-7.689-45.31c-1.368-8.526-2.343-17.115-3.615-25.658c-0.217-1.45-1.045-2.81-1.611-4.266
	c-2.553,0.733-4.43,1.273-7.043,2.024c-0.509-3.07-1.141-5.771-1.375-8.505c-0.632-7.374,1.408-9.336,9.486-9.096
	c2.469,3.536,4.597,8.256,11.04,5.468c-2.636,7.405,4.481,9.719,5.464,14.686c-0.23,3.593-0.335,7.19,0.24,10.676
	c0.921,5.576,2.564,11.036,3.431,16.618c4.596,29.621,9.218,59.224,16.599,88.33c1.949,7.688,2.868,15.635,4.305,23.708
	c-7.34,3.396-14.533,2.271-21.299,2.489c-3.533,9.97-14.334,12.277-19.89,20.158c3.397,2.764,6.806,1.906,9.849,1.024
	c10.072-2.917,20.065-6.113,30.036-9.361c1.022-0.334,1.694-1.743,2.529-2.653c-0.305-0.525-0.608-1.052-0.912-1.578
	c-5.175,1.776-10.317,3.658-15.534,5.301c-5.453,1.718-10.979,3.205-16.473,4.793c-0.235-0.445-0.471-0.892-0.706-1.337
	c2.896-2.292,6.208-4.218,8.606-6.948c6.437-7.328,15.218-5.863,22.996-7.402c1.354,1.831,2.332,3.156,3.311,4.48
	c1.149-1.512,1.291-2.607,1.534-3.681c0.29-1.281,0.666-2.543,0.706-2.69c-12.188-45.855-19.689-91.543-27.062-137.654
	c1.671,0.422,2.892,0.73,4.958,1.253c2.09-4.23,4.156-8.411,6.241-12.631c0.458,0.058,0.951,0.082,1.428,0.184
	c5.112,1.091,6.492-0.137,5.604-5.272c-0.452-2.617-1.158-5.201-1.912-7.753c-0.862-2.915-0.643-5.349,1.517-7.824
	C180.398,298.164,187.369,283.408,192.063,267.352z M24.707,347.59c0.344,0.424,0.688,0.847,1.032,1.27
	c-1.34,2.736-2.792,5.424-3.983,8.223c-0.979,2.296-1.671,4.714-2.479,7.082c0.022,0.016,0.049,0.032,0.07,0.049h0
	c1.475-1.535,3.217-2.91,4.292-4.688c1.431-2.363,2.168-5.137,3.46-7.599c0.561-1.068,1.76-1.802,2.669-2.687
	c0.496,0.36,0.992,0.722,1.489,1.083c-1.925,3.637-3.796,7.304-5.794,10.899c-0.994,1.788-2.448,3.43-0.922,5.482
	c0.104,0.051,0.209,0.101,0.313,0.15c1.212-1.655,2.56-3.232,3.575-5.002c1.882-3.275,3.552-6.672,5.615-10.598
	c1.403,1.234,2.402,2.112,3.2,2.813c-2.595,5.222-4.938,9.938-7.584,15.262c-1.757-0.905-3.265-1.683-4.772-2.459
	c-0.011-0.006-0.023-0.011-0.034-0.017c-0.032,0.043-0.065,0.086-0.097,0.129c-0.081-0.094-0.148-0.187-0.217-0.279
	c-1.731-0.831-3.463-1.662-5.195-2.492c-0.043,0.046-0.089,0.09-0.132,0.136c0.021-0.062,0.041-0.124,0.062-0.185
	c-0.758-0.555-2.07-1.115-2.064-1.661c0.055-4.849,0.75-9.639,3.807-13.598C21.69,348.036,23.449,348.007,24.707,347.59z
	 M105.943,191.034c0.682-2.577,2.273-3.021,4.793-0.938c-2.064,3.896-4.104,7.743-6.144,11.59c-0.299-0.085-0.597-0.17-0.896-0.255
	C104.432,197.961,105.036,194.458,105.943,191.034z M83.921,180.396c-11.287-0.168-20.045-4.556-26.506-14.019
	c-11.553-16.924-15.157-36.303-17.927-55.975c-1.066-7.576-1.873-15.191-2.724-22.797c-0.293-2.619-0.361-5.264-0.592-8.81
	c3.481-0.769,6.77-2.077,10.07-2.107c8.18-0.075,14.854-3.08,20.445-8.87c0.417-0.432,0.967-0.734,1.569-1.183
	c0.94,2.826-1.975,5.925,1.686,8.399c5.739-1.82,9.812-6.356,13.596-10.787c3.809-4.46,6.646-9.749,10.451-15.492
	c0.521,2.906,0.929,5.264,1.367,7.614c1.469,7.884,3.787,8.798,10.011,3.76c1.118,1.392,2.03,3.064,3.417,4.101
	c1.396,1.042,3.264,1.45,5.562,2.399c0.701,8.939,6.19,17.579,3.383,25.478c1.231,5.731,2.689,9.79,2.881,13.907
	c0.633,13.609,0.923,27.237,1.127,40.861c0.205,13.638-7.699,22.239-18.746,28.4C97.168,178.524,90.821,180.498,83.921,180.396z
	 M95.399,182.07c1.461-0.296,2.684-0.544,3.978-0.806c2.802,5.586,5.879,10.798,1.222,17.257c-1.87-1.865-3.672-3.661-5.474-5.457
	c0.311-0.141,0.621-0.28,0.933-0.42C95.852,189.348,95.646,186.052,95.399,182.07z M111.467,338.43
	c-0.346,1.473-0.91,2.705-0.866,3.915c0.122,3.318,0.274,6.665,0.812,9.936c2.94,17.9,5.918,35.796,9.04,53.666
	c4.067,23.284,8.304,46.538,12.399,69.817c0.393,2.227,0.306,4.538,0.464,7.185c-6.271,1.312-12.068,2.523-18.579,3.886
	c-0.967-2.798-2.239-5.332-2.706-8.006c-4.355-24.932-8.842-49.845-12.714-74.853c-1.909-12.325-2.59-24.84-3.86-37.266
	c-0.762-7.451-1.603-14.895-2.372-22.345c-0.167-1.614-0.182-3.244-0.283-5.187c6.621-0.23,6.621-0.23,6.955-11.562
	c5.18-1.742,10.615-3.57,17.102-5.753c0.322,5.863,0.604,11.011,0.909,16.566H111.467z M94.002,329.422
	c0.479-0.081,0.957-0.162,1.437-0.243c0.515,1.998,1.028,3.996,1.737,6.747C92.053,333.958,91.779,333.099,94.002,329.422z
	 M139.699,321.777c-1.153-1.843-1.995-3.188-3.298-5.27c3.346-0.638,5.347-1.02,7.572-1.443
	C144.795,319.092,142.066,319.814,139.699,321.777z M145.541,307.398c-0.696,2.68-1.324,4.646-4.174,5.435
	c-14.102,3.908-28.188,7.875-42.287,11.788c-0.376,0.104-0.855-0.165-2.064-0.431c5.055-3.384,9.577-6.41,14.1-9.438l-0.779-1.301
	c-6.24,3.121-12.48,6.241-18.646,9.325c-3.299-3.151-1.744-4.715,0.83-6.025c6.377-3.247,12.787-6.432,19.131-9.743
	c2.287-1.194,4.425-2.676,6.631-4.026c-0.21-0.369-0.42-0.738-0.63-1.106c-9.265,4.498-18.53,8.997-28.491,13.834
	c-0.642-2.715-1.246-4.553-1.495-6.438c-2.229-16.83-4.219-33.693-6.64-50.496c-1.754-12.176-4.008-24.282-6.178-36.395
	c-0.229-1.274-1.396-2.38-2.592-3.332c-2.761,7.164,2.469,13.189,2.203,19.747c-3.74,1.419-6,1.084-12.403-1.83
	c0-1.051-0.228-2.376,0.036-3.594c1.831-8.445,3.775-16.865,5.658-25.298c0.679-3.043,2.545-4.822,5.454-5.889
	c3.432-1.258,6.808-2.706,10.093-4.308c2.499-1.218,4.591-0.661,6.423,1.018c3.435,3.146,6.723,6.449,10.093,9.665
	c1.015,0.968,2.101,1.861,3.467,3.065c3.699-7.93,6.966-14.931,10.471-22.445c7.981,1.138,15.197,2.102,22.381,3.266
	c0.986,0.16,1.91,1.219,2.697,2.024c5.342,5.474,10.669,10.964,15.929,16.517c1.101,1.163,1.899,2.612,2.955,4.097
	c-2.183,2.504-4.105,4.71-6.769,7.766c-5.073-5.247-9.82-10.156-15.378-15.905c-0.269,2.512-0.811,4.448-0.62,6.31
	c1.376,13.403,2.712,26.816,4.441,40.177c1.216,9.394,3.5,18.662,4.442,28.073C144.688,290.081,147.848,298.517,145.541,307.398z
	 M144.985,273.962c-0.371-2.437-0.676-4.884-0.895-7.336c-0.36-1.645-0.461-2.922-0.264-3.879c-0.02-0.409-0.029-0.819-0.044-1.229
	c-0.556-1.122-0.697-2.46-0.423-3.692c-0.04-0.077-0.08-0.155-0.121-0.232c-0.078-0.147-0.131-0.309-0.192-0.466
	c-0.101,0.018-0.195,0.034-0.3,0.053c-2.983-13.561-2.512-26.927-3.306-40.357c12.049,10.084,21.144,22.236,29.56,35.438
	c-0.121,0.081-0.224,0.155-0.339,0.234c1.358,0.61,2.21,1.812,2.555,3.163c0.149-0.062,0.297-0.121,0.452-0.188
	c1.846,3.771,5.449,6.13,4.522,11.417c-0.336,0.044-0.674,0.097-1.012,0.146c0.452,1.612,0.171,3.456-0.842,4.774
	c0.023,0.006,0.044,0.007,0.068,0.012c-3.427,12.366-10.926,22.012-18.722,32.836c-1.088-2.656-1.63-4.34-2.442-5.88
	c-1.268-2.401-2.714-4.708-4.094-7.049c-0.336-0.568-0.918-1.073-1.033-1.676c-0.523-2.733-1.022-5.478-1.525-8.278
	C145.898,279.186,145.381,276.557,144.985,273.962z M164.566,312.39c-1.104,1.203-2.062,2.54-3.197,3.951
	c0.869,1.263,1.571,2.282,2.336,3.394c-6.738,4.94-3.246,13.879-8.003,20.8c-2-2.584-3.492-4.514-4.985-6.442
	c0.264-0.299,0.528-0.598,0.792-0.896c1.118,0.622,2.235,1.245,3.752,2.089c1.018-5.72,1.964-11.037,2.91-16.355
	c-0.382-0.192-0.765-0.385-1.146-0.577c-0.729,1.049-1.534,2.054-2.164,3.159c-0.678,1.187-1.191,2.468-1.776,3.708
	c-0.449-0.124-0.898-0.248-1.349-0.371c0.371-3.392,0.741-6.783,1.235-11.31c-5.036,2.968-2.726,8.06-5.752,11.254v-10.295
	c0.273,0.096,0.547,0.191,0.819,0.287c0.963-1.381,1.925-2.762,2.887-4.143c-0.018-0.004-0.035-0.006-0.053-0.01
	c0.022-0.038,0.04-0.075,0.062-0.113c-0.936-0.819-1.876-1.642-3.123-2.734c0.546-2.655,1.125-5.473,1.704-8.29
	c0.371,0.034,0.741,0.067,1.112,0.101c1.144,3.57,2.538,7.123,0.307,10.924c0.017,0.015,0.032,0.028,0.048,0.042l-0.057,0.081
	c2.462,0.584,4.549,0.167,6.044-2.124c8.997-13.791,18.371-27.371,23.997-43.039c0.272-0.76,0.382-1.578,0.461-1.914
	c-9.471-12.918-18.677-25.475-28.334-38.648c2.224-2.271,4.425-4.52,6.987-7.138c4.38,5.612,8.496,10.398,12.058,15.566
	c5.277,7.659,10.092,15.638,15.25,23.382c1.997,2.998,2.3,5.884,1.497,9.407C184.874,283.739,176.752,299.111,164.566,312.39z"/>
<path fill-rule="evenodd" clip-rule="evenodd" d="M26.815,141.602c-9.727-2.204-10.211-2.872-7.798-10.22
	c-2.641-2.233-5.925-3.98-7.658-6.711c-2.854-4.498,3.696-4.985,4.643-8.828c-2.45-1.537-5.101-3.087-7.627-4.816
	c-2.516-1.724-4.906-3.628-7.553-5.603c1.103-1.247,1.434-1.978,1.953-2.154c5.74-1.953,7.261-3.745,7.61-9.796
	c0.153-2.646-0.185-5.317-0.167-7.976c0.032-4.718,0.165-9.435,0.269-14.829C7.141,68.19,0.827,67.03,0,59.807
	c3.964-1.715,7.964-2.948,11.404-5.083c3.016-1.872,5.816-4.438,7.993-7.252c7.31-9.453,14.933-18.563,25.226-24.908
	c7.795-4.806,15.731-9.771,24.832-11.386c7.94-1.409,16.134-1.402,24.218-1.993c1.3-0.095,2.626-0.175,3.913-0.027
	c1.299,0.149,2.565,0.591,4.139,0.976c-2.036,4.181-5.166,2.944-7.8,2.972c-4.966,0.052-10.044-0.761-14.88,0.009
	C57.23,16.587,38.463,25.61,25.533,44.376c-3.991,5.793-7.869,11.617-14.632,14.575c-1.783,0.779-3.624,1.427-5.448,2.139
	c2.533,5.971,4.86,6.778,12.972,4.195c-0.367,1.833-0.187,3.604-0.985,4.488c-5.303,5.866-2.66,11.693-0.504,17.946
	c1.271-0.712,2.196-1.229,4.03-2.256c2.068,4.856,4,9.395,5.933,13.932c-0.349,0.275-0.697,0.551-1.046,0.826
	c-1.636-1.608-3.271-3.216-5.275-5.188c-0.678,0.276-1.808,0.738-3.476,1.42c-1.02-1.752-2.037-3.502-2.929-5.035
	c-1.565,4.812-3.153,9.69-5.17,15.891c1.997,3.832,8.09,4.787,13.153,8.182c-2.82,2.881-5.173,5.283-8.385,8.562
	c4.146,2.201,7.64,4.057,11.447,6.078c-1.458,1.906-2.799,3.661-4.166,5.449c2.383,4.021,6.448,1.266,9.777,3.233
	c0,4.622,0,9.62,0,15.581c3.556-1.473,6.295-2.606,9.014-3.732c2.114,3.489,3.935,6.494,5.748,9.489
	c-3.138,1.517-3.138,1.517-7.637-4.75c-0.935,0.374-1.992,0.705-2.966,1.201c-4.648,2.364-7.292,0.943-7.623-4.338
	c-0.155-2.479,0.225-4.986,0.18-7.477C27.525,143.683,27.054,142.584,26.815,141.602z"/>
<path fill-rule="evenodd" clip-rule="evenodd" d="M105.061,3.469c0,2.242,0,3.814,0,5.398c-4.81-0.178-7.738-3.655-7.141-8.132
	c12.427-2.658,19.512,1.652,27.668,16.876c3.363,1.209,6.771-3.159,10.559,0.054c-0.573,1.356-1.124,2.659-1.8,4.259
	c3.134,1.811,8.474,2.75,4.557,8.909c-0.883-0.77-1.944-1.239-2.144-1.95c-0.717-2.561-2.238-3.387-4.806-3.217
	c-1.188,0.078-2.475-0.499-3.631-0.982c-1.546-0.646-3.009-1.491-5.547-2.778C119.764,14.353,117.234,4.667,105.061,3.469z"/>
<path fill-rule="evenodd" clip-rule="evenodd" d="M69.106,31.97c-4.511,1.668-9.021,3.336-13.771,5.091
	c2.523,5.438,7.334,1.624,10.042,4.01c0.35,2.817-1.427,2.885-3.37,3.083c-4.233,0.433-7.92,1.942-10.525,5.997
	c3.177,2.572,6.343,2.23,9.555,1.124c2.919-1.007,5.796-2.137,9.243-3.418c-3.23,5.372-14.224,9.188-19.122,7.176
	c-3.834-1.575-4.591-4.854-1.696-7.911c1.346-1.42,2.959-2.586,4.411-3.833c-3.149-5.826-2.55-7.705,3.41-10.416
	c2.262-1.028,4.619-1.983,7.034-2.49c1.558-0.327,3.3,0.222,4.96,0.377C69.22,31.162,69.163,31.566,69.106,31.97z"/>
<path fill-rule="evenodd" clip-rule="evenodd" d="M132.416,53.545c1.614-1.374,2.699-2.298,4.225-3.596
	c1.146,2.893,0.146,5.573-1.8,5.96c-2.689,0.534-5.703-0.564-8.578-0.964c0.043-0.371,0.087-0.741,0.131-1.112
	c-1.979,0.513-3.958,1.024-6.562,1.698c-0.513-3.677-0.688-6.799-1.439-9.775c-0.695-2.761-2.006-5.366-3.108-8.2
	c4.355-0.188,4.355-0.188,7.858,12.642c1.173-1.009,2.217-1.908,3.688-3.173C128.744,49.259,130.511,51.321,132.416,53.545z"/>
<path fill-rule="evenodd" clip-rule="evenodd" fill="#FFFFFF" d="M24.76,366.984c1.236-1.703,2.63-3.315,3.672-5.131
	c1.882-3.275,3.552-6.672,5.615-10.598c1.403,1.234,2.402,2.112,3.2,2.813c-2.595,5.222-4.938,9.938-7.584,15.262
	c-1.757-0.905-3.265-1.683-4.772-2.459L24.76,366.984z"/>
<path fill-rule="evenodd" clip-rule="evenodd" fill="#FFFFFF" d="M19.348,364.213c-0.745-0.57-2.141-1.148-2.135-1.71
	c0.055-4.849,0.75-9.639,3.807-13.598c0.671-0.869,2.43-0.898,3.688-1.315c0.344,0.424,0.688,0.847,1.032,1.27
	c-1.34,2.736-2.792,5.424-3.983,8.223c-1.004,2.355-1.705,4.84-2.54,7.267L19.348,364.213z"/>
<path fill-rule="evenodd" clip-rule="evenodd" fill="#FFFFFF" d="M150.982,310.561c-0.951-0.833-1.902-1.665-3.171-2.776
	c0.546-2.655,1.125-5.473,1.704-8.29c0.371,0.034,0.741,0.067,1.112,0.101c1.155,3.605,2.571,7.193,0.245,11.037L150.982,310.561z"
	/>
<path fill-rule="evenodd" clip-rule="evenodd" fill="#FFFFFF" d="M136.401,316.508c3.346-0.638,5.347-1.02,7.572-1.443
	c0.821,4.027-1.907,4.75-4.274,6.713C138.546,319.935,137.704,318.59,136.401,316.508z"/>
<path fill-rule="evenodd" clip-rule="evenodd" fill="#FFFFFF" d="M95.438,329.179c0.515,1.998,1.028,3.996,1.737,6.747
	c-5.123-1.968-5.396-2.827-3.174-6.504C94.48,329.341,94.959,329.26,95.438,329.179z"/>
<path fill-rule="evenodd" clip-rule="evenodd" d="M105.174,141.931c-0.005,6.083-3.607,9.394-7.175,12.316
	c-8.104,6.639-15.767,6.682-30.856,0.43c1.486-1.298,2.496-2.837,3.854-3.263c10.09-3.17,20.244-6.132,30.393-9.112
	C102.293,142.036,103.295,142.103,105.174,141.931z M99.319,146.362c-7.872,2.621-14.986,4.989-22.101,7.357
	C86.123,158.354,95.239,155.239,99.319,146.362z"/>
<path fill-rule="evenodd" clip-rule="evenodd" d="M109.44,86.027c-1.07,4.971-1.97,9.144-2.926,13.583
	c-1.799,0.505-3.5,0.982-5.757,1.615c-1.001-2.967-1.927-5.712-2.852-8.454c-3.756-2.268-8.321,2.354-12.621-1.557
	c3.743-3.138,7.953-1.729,11.561-2.631C100.525,87.666,104.283,87.058,109.44,86.027z"/>
<path fill-rule="evenodd" clip-rule="evenodd" d="M56.293,109.834c-1.273-3.005-2.397-5.66-3.55-8.382
	c-2.995,0-6.025,0.052-9.046-0.095c-0.251-0.012-0.437-1.364-0.713-2.3c7.012-1.612,13.688-3.148,20.376-4.687
	C64.216,99.092,60.779,107.215,56.293,109.834z"/>
<path fill-rule="evenodd" clip-rule="evenodd" d="M77.622,134.75c2.188,0.159,3.741,0.272,5.673,0.414
	c-0.881,3.152-3.141,4.28-5.311,3.774c-1.524-0.354-3.428-2.344-3.781-3.914c-1.818-8.094-3.244-16.278-4.686-24.452
	c-0.432-2.447-0.594-4.961-0.636-7.448c-0.021-1.228,0.515-2.465,0.798-3.697c0.562,0.006,1.123,0.013,1.686,0.019
	c0.382,2.123,0.854,4.234,1.129,6.371c0.977,7.57,1.772,15.166,2.895,22.715C75.715,130.73,76.898,132.802,77.622,134.75z"/>
<path fill-rule="evenodd" clip-rule="evenodd" d="M61.279,82.959c-6.537-3.94-11.982-1.542-17.324,2.011
	c-0.702,0.467-1.982,0.063-3.729,0.063c4.464-5.657,13.55-8.714,18.934-7.122C61.291,78.542,62.893,79.364,61.279,82.959z"/>
<path fill-rule="evenodd" clip-rule="evenodd" d="M105.038,78.254c-7.078-5.022-14.305-5.451-21.714-0.277
	c-0.266-0.478-0.531-0.955-0.797-1.432c0.692-1.122,1.129-2.852,2.117-3.268c6.503-2.737,13.107-3.521,19.365,0.664
	c0.959,0.642,1.294,2.217,1.917,3.36C105.631,77.619,105.334,77.937,105.038,78.254z"/>
</svg>
