<?xml version="1.0" encoding="utf-8"?>
<!-- Generator: Adobe Illustrator 16.2.1, SVG Export Plug-In . SVG Version: 6.00 Build 0)  -->
<!DOCTYPE svg PUBLIC "-//W3C//DTD SVG 1.1//EN" "http://www.w3.org/Graphics/SVG/1.1/DTD/svg11.dtd">
<svg version="1.1" id="Layer_1" xmlns="http://www.w3.org/2000/svg" xmlns:xlink="http://www.w3.org/1999/xlink" x="0px" y="0px"
	 width="91.028px" height="375.854px" viewBox="0 0 91.028 375.854" enable-background="new 0 0 91.028 375.854"
	 xml:space="preserve">
<path fill-rule="evenodd" clip-rule="evenodd" d="M17.723,129.871"/>
<path fill-rule="evenodd" clip-rule="evenodd" d="M11.725,128.866"/>
<path fill-rule="evenodd" clip-rule="evenodd" d="M22.641,104.254"/>
<path fill-rule="evenodd" clip-rule="evenodd" d="M9.509,89.562"/>
<path fill-rule="evenodd" clip-rule="evenodd" d="M82.094,223.613c-0.71-0.597-1.052-1.051-1.504-1.236
	c-3.634-1.497-5.079-4.096-5.436-8.096c-0.842-9.451-2.812-18.826-3.243-28.281c-0.369-8.097-0.826-16.094-2.741-23.971
	c-0.239-0.983-0.661-1.922-0.999-2.881c-0.423,0.061-0.847,0.121-1.271,0.182c0,2.248-0.083,4.5,0.013,6.744
	c0.651,15.209,1.331,30.416,2.027,45.623c0.071,1.551,0.053,3.188,0.551,4.621c0.893,2.569,0.803,4.562-2.034,5.453
	c0.374,3.066,0.709,5.822,1.113,9.139c1.688-0.437,3.037-0.786,4.259-1.104c-0.009-6.984,0.105-7.203,3.581-6.943
	c-1.269,2.046-2.698,4.086-0.725,6.257c1.526,0.669,2.942,1.291,4.451,1.954C80.795,228.566,81.416,226.199,82.094,223.613z"/>
<path fill-rule="evenodd" clip-rule="evenodd" d="M42.104,120.084c-1.956-5.917-0.198-12.984-6.403-17.608
	c0,6.981,0,13.412,0,20.062c2.696,3.268,5.521,6.691,8.566,10.385C48.13,124.804,47.752,122.912,42.104,120.084z"/>
<path fill-rule="evenodd" clip-rule="evenodd" d="M34.56,369.287c0.137,0.274,0.274,0.548,0.412,0.822
	c3.847,0.18,6.673-2.165,10.646-4.179c-3.545-2.181-6.261-3.852-8.906-5.479c-3.884,2.222-6.736,4.733-8.66,8.13
	c0.186,0.232,0.37,0.466,0.556,0.698c3.594-1.257,7.187-2.515,10.78-3.772c0.125,0.335,0.25,0.67,0.373,1.006
	C38.027,367.438,36.294,368.363,34.56,369.287z"/>
<path fill-rule="evenodd" clip-rule="evenodd" d="M17.592,162.59c-1.505,7.64-2.87,14.566-4.234,21.493
	C20.021,177.589,21.744,168.997,17.592,162.59z"/>
<path fill-rule="evenodd" clip-rule="evenodd" d="M81.735,19.75c-3.629-3.823-4.373-3.81-10.274,0.108
	c3.578,1.943,7.097,3.854,10.614,5.764c0.108-0.15,0.217-0.301,0.326-0.452c-0.688-0.876-1.376-1.752-2.016-2.566
	C80.911,21.492,81.339,20.587,81.735,19.75z"/>
<path fill-rule="evenodd" clip-rule="evenodd" d="M73.402,364.85c-5.289-4.432-9.904-3.838-12.648,1.448
	C65.271,365.78,69.337,365.314,73.402,364.85z"/>
<path fill-rule="evenodd" clip-rule="evenodd" d="M32.085,135.279c-1.539,4.26-0.78,7.647,0.674,11.084
	c1.923,0.075,3.404-0.386,3.152-2.498C35.56,140.922,34.943,137.999,32.085,135.279z"/>
<path fill-rule="evenodd" clip-rule="evenodd" d="M69.062,234.551c1.45,3.118,2.694,5.794,4.131,8.879
	c1.164-0.857,2.016-1.485,2.872-2.116c-0.467-1.571-0.829-2.792-1.191-4.012c-0.162,0.123-0.324,0.246-0.486,0.37
	c-1.188-1.278-2.373-2.557-3.817-4.112c0.075-0.022-0.438,0.053-0.864,0.285C69.399,234.01,69.206,234.385,69.062,234.551z"/>
<path fill-rule="evenodd" clip-rule="evenodd" d="M49.906,124.087c-2.252,2.149-4.723,12.977-3.571,15.653
	C48.213,136.835,50.699,125.937,49.906,124.087z"/>
<path fill-rule="evenodd" clip-rule="evenodd" d="M25.233,226.122c-0.319-0.264-0.639-0.527-0.958-0.791
	c-2.098,0.7-4.979-0.631-6.527,3.33c1.871,0.525,3.699,1.584,5.255,1.274C23.962,229.745,24.504,227.465,25.233,226.122z"/>
<path fill-rule="evenodd" clip-rule="evenodd" d="M47.774,232.042c0.573-3.377,0.281-6.399-0.429-9.939
	C43.736,226.146,43.921,229.617,47.774,232.042z"/>
<path fill-rule="evenodd" clip-rule="evenodd" d="M87.535,54.7c-0.656,1.615-1.091,3.223-1.922,4.591
	c-1.082,1.786-1.095,3.025,0.941,3.939C89.471,59.429,89.639,57.26,87.535,54.7z"/>
<path fill-rule="evenodd" clip-rule="evenodd" d="M34.68,125.046c-0.374,0.304-0.748,0.609-1.121,0.913
	c2.771,3.444,5.544,6.888,8.316,10.33c0.349-0.284,0.698-0.569,1.048-0.854C40.563,131.655,37.773,128.227,34.68,125.046z"/>
<g>
	<path fill-rule="evenodd" clip-rule="evenodd" d="M48.162,40.194c-6.3,0.695-12.588,1.504-19.172,2.315
		c2.419,1.983,16.971,1.263,21.547-1.353C49.519,40.726,48.803,40.123,48.162,40.194z"/>
	<path fill-rule="evenodd" clip-rule="evenodd" d="M67.772,54.168c4.108-1.037,4.772-4.601,1.723-9.232
		C65.992,45.989,65.267,49.871,67.772,54.168z"/>
	<path fill-rule="evenodd" clip-rule="evenodd" d="M40.064,49.02c-3.657,2.692-3.878,5.711-0.487,9.3
		C42.926,55.579,43.056,51.458,40.064,49.02z"/>
	<path fill-rule="evenodd" clip-rule="evenodd" d="M63.841,64.81c-0.832-7.708-1.222-15.463-1.831-23.522
		c2.936-0.536,5.659-0.809,8.24-1.568c2.431-0.715,5.556,0.916,7.88-2.641c-6.469-1.273-12.222,2.324-18.999,0.106
		c1.736,15.799,3.369,30.641,4.981,45.312c-3.296,1.136-5.372-2.648-8.773-0.496c3.627,2.108,6.788,3.946,10.756,6.252
		C66.916,79.867,64.66,72.398,63.841,64.81z"/>
	<path fill-rule="evenodd" clip-rule="evenodd" d="M62.922,124.993c9.719-18.351,15.48-37.335,19.482-56.627
		c1.561,0.091,3.182,0.072,3.683-0.686c1.762-2.667,3.793-5.43,4.521-8.447c1.509-6.236-1.04-8.503-7.733-6.828
		c0.364-7.415-0.003-14.77,1.291-21.819c1.118-6.099,0.491-11.065-3.646-15.738c0.285-1.114,0.596-2.332,1.009-3.956
		c-1.657-0.634-3.169-1.212-4.679-1.791c-0.635-3.189-0.635-3.189-4.215-4.575C72.552,3.218,72.47,1.908,72.35,0
		c-2.091,1.159-3.494,2.037-4.979,2.742C62.05,5.269,56.362,4.561,50.856,4.068C36.172,2.754,24.383,8.984,13.482,17.796
		c-0.852-0.919-1.602-1.729-2.333-2.519c-3.777,2.76-5.252,9.247-2.593,13.312c0.388-3.254,0.707-5.934,1.026-8.614
		c0.287,0.028,0.573,0.058,0.86,0.087c0.449,1.002,0.898,2.004,1.254,2.799c2.007-0.356,3.71-0.659,5.783-1.026
		c1.514-5.237,5.124-8.983,10.113-11.458c8.208-4.073,16.83-5.518,25.86-3.741c4.369,0.859,8.534,0.401,12.659-1.098
		c0.832-0.302,1.707-0.492,2.761-0.787c0.162,1.411,0.299,2.76,0.432,3.76c1.441,0,2.602,0,4.132,0
		c-1.376,1-2.427,2.761-3.477,3.954c0.146,0.307,0.291,0.615,0.437,0.922c2.27-0.486,4.538-0.974,7.351-1.578
		c-3.896,6.307-8.348,6.458-13.789,2.195c-0.381,2.154-0.632,3.573-1.027,5.817c-3.475-0.378-6.944-0.755-10.687-1.162
		c0.188,1.459,0.35,2.695,0.548,4.216c-5.015,2.935-9.993,2.75-14.721-0.268c-7.49,2.804-13.067,7.661-16.915,14.192
		c-1.848,3.137-2.423,7.01-3.692,10.507c-0.494,1.359-1.311,2.6-1.921,3.779c-6.524-1.858-6.87-2.226-6.876-8.147
		c-0.003-3.127,0.265-6.253,0.316-9.382c0.012-0.748-0.354-1.502-0.545-2.254c-0.388,0.023-0.774,0.047-1.162,0.07
		c-0.988,6.055,0.058,12.249-0.388,18.216c-7.83,5.917-6.09,16.799-1.283,22.084c4.521,4.972,8.719,5.054,12.868,0.127
		c0.149-0.178,0.444-0.232,1.152-0.582c2.14,4.711,4.156,9.472,6.443,14.099c2.307,4.666,4.882,9.199,7.003,13.164
		c0,2.47-0.05,4.26,0.011,6.045c0.132,3.907,0.444,7.813,0.407,11.717c-0.011,1.147-0.636,2.689-1.509,3.362L10.263,135.36
		c0.299,0.172,0.599,0.345,0.898,0.518c-1.378,4.091-1.487,8.675-4.328,11.115c-0.298,4.098-0.345,7.392-0.81,10.624
		c-1.297,9.015-2.861,17.99-4.137,27.008C1.083,190.291,0.567,196,0.022,201.699c-0.111,1.16,0.226,2.363,0.357,3.547
		c0.557,0.019,1.114,0.038,1.671,0.057c1.671-8.932,1.192-18.074,1.993-27.097c0.812-9.159,3.311-18.027,5.204-27.031
		c1.869,0.279,3.041,0.388,4.179,0.643c1.224,0.274,2.417,0.688,4.165,1.198c-2.751,13.778-5.432,27.203-8.112,40.628
		c1.298-0.221,2.382-0.81,2.873-1.72c4.573-8.482,9.107-16.977,12.098-26.209c1.126-3.479,2.846-6.764,4.295-10.137
		c0.298,0.072,0.596,0.144,0.895,0.215c0.172,1.787,0.412,3.57,0.498,5.361c0.086,1.813,0.019,3.635,0.019,5.453
		c-0.254-0.105-0.509-0.211-0.763-0.316c-1.048,2.414-2.38,4.746-3.096,7.253c-3.665,12.835-10.096,23.967-19.784,33.201
		c-0.904,0.862-1.485,2.063-2.216,3.107c0.349,0.258,0.697,0.517,1.046,0.775c6.7-4.954,10.365-12.64,15.904-18.766
		c-0.192,4.278-0.607,8.405-1.266,12.494c-1.129,7.017-2.496,13.997-3.58,21.021c-0.372,2.408-0.261,4.9-0.259,7.355
		c0.005,6.104-0.021,12.211,0.141,18.312c0.21,7.945,0.622,15.886,0.88,23.831c0.1,3.047,0.016,6.102,0.016,9.349
		c2.812-0.335,5.186-0.616,7.929-0.942c0.302,1.736,0.71,2.978,0.703,4.217c-0.07,13.567-0.217,27.134-0.317,40.701
		c-0.045,6.115-0.816,12.358,0.145,18.316c1.317,8.178,0.969,15.957-1.578,24.071c0.916,4.11,4.348,2.056,7.409,2.302
		c0.36,0.691,0.894,1.716,1.544,2.964c3.148-2.898,5.74-5.037,9.1-1.918c2.938-3.472,8.59,0.954,10.562-4.466
		c2.027,0.85,3.799,1.593,5.325,2.232c1.57-0.858,2.745-1.82,4.076-2.141c1.316-0.317,3.012,0.496,4.157-0.026
		c5.605-2.559,11.495-1.887,17.336-2c1.18-0.023,2.352-0.444,3.516-0.68c-0.052-3.132-2.118-3.067-3.814-3.578
		c-6.721-2.025-13.442-4.054-20.127-6.197c-2.927-0.938-3.794-3.251-3.656-6.176c0.153-3.247,0.136-6.502,0.168-9.755
		c0.172-16.821,0.317-33.643,0.516-50.464c0.04-3.323,0.271-6.646,0.425-10.247c3.718-0.491,6.793-0.938,9.88-1.289
		c1.462-0.167,2.875-0.218,2.424-1.987c-8.182,0.913-16.094,1.796-24.007,2.678c-0.01,0.287-0.02,0.573-0.03,0.859
		c1.111,0.522,2.222,1.045,3.798,1.788c0,13.331-0.201,26.739,0.058,40.138c0.256,13.233-1.268,26.51,0.764,39.74
		c0.823-1.151,1.037-2.328,0.994-3.494c-0.118-3.253-0.482-6.5-0.502-9.75c-0.065-11.471-0.121-22.942-0.001-34.411
		c0.103-9.904,0.428-19.807,0.703-29.709c0.046-1.658,0.144-3.438,2.316-3.882c2.519,3.982,2.147,61.927-0.471,76.128
		c1.762,1.051,3.656,2.181,6.423,3.831c-4.161,2.034-7.49,3.664-10.524,5.147c-7.397-1.294-12.115-6.846-18.492-10.271
		c-0.393,4.385-2.566,6.938-5.814,8.909c-1.258-27.302-1.451-54.353-0.175-81.353c2.075,0,3.429,0,5.165,0
		c0.2,4,0.583,8.198,0.544,12.208c-0.151,15.391-0.478,30.741-0.636,46.133c-0.027,2.585,0.242,5.159,0.488,7.748
		c0.479-0.026,1.223-0.07,1.223-0.096c0-21.862,0-43.993,0-65.993c4,0,8.348,0,12.478,0c0.128-9,0.353-18.584,0.344-27.819
		c-0.007-5.734-0.404-11.407-0.559-17.142c-0.087-3.287,1.447-5.314,4.733-6.185c2.512-0.665,4.958-1.589,7.385-2.53
		c0.961-0.373,1.79-1.076,2.68-1.634c-0.159-0.359-0.318-0.715-0.476-1.074c-3.638,1.337-7.275,2.676-11.844,4.354
		c0.359-3.83,0.641-6.814,0.942-10.031c3.643-0.685,6.761-1.271,9.829-1.849c1.836,3.776,1.797,8.026,6.174,8.987
		c0.979,15.581,1.931,30.702,2.883,45.823c0.426-0.021,0.852-0.04,1.278-0.06c-0.451-8.892-0.9-17.782-1.381-27.271
		c3.511-1.328,6.71-2.669,9.996-3.747c3.487-1.145,3.989-1.853,3.166-5.303c-0.269-1.128-0.649-2.355-0.455-3.443
		c0.601-3.367,1.418-6.7,2.227-10.027c0.416-1.715,0.326-3.448-1.524-3.875c-4.214-0.971-5.317-3.85-5.734-7.651
		c-1.037-9.447-2.358-18.864-3.399-28.312c-0.643-5.816-0.957-11.67-1.464-17.503c-0.244-2.828-0.592-5.647-0.859-8.161
		c1.482-1.38,2.591-2.411,3.076-2.863c-1.008-5.347-1.988-9.891-2.685-14.478c-0.45-2.959-0.618-5.979-0.668-8.975
		c-0.055-3.268-1.719-4.708-4.69-5.792c-6.474-2.36-12.858-5.001-19.13-7.855c-3.647-1.659-4.196-3.491-3.4-7.087
		C49.822,116.17,56.117,120.411,62.922,124.993z M22.855,72.095c-0.815-2.196-1.695-4.368-2.655-6.835
		c-0.761,0.132-1.582,0.272-1.809,0.312c-3.421-2.625-6.518-5.003-9.822-7.538c-0.662,1.882-0.233,2.444,3.46,5.88
		c-0.282,3.006-0.544,5.796-0.831,8.869c-3.735-1.104-5.85-4.386-6.92-8.243c-1.2-4.326-0.951-8.029,2.212-12.029
		c2.185,0,4.025,0,5.865,0c3.231,2,5.129,5.485,10.315,4.9c-0.584-2.098-0.741-4.207-1.786-5.907
		c-1.681-2.733-1.78-5.33-0.841-8.172c2.893-8.754,9.41-14.106,17.142-18.475c4.573,2.871,9.615,3.042,13.952,0.796
		c3.894-2.018,7.344-4.422,11.994-4.27c1.059,0.035,2.162-1.287,2.819-1.712c2.169,1.232,4.091,2.592,6.209,3.481
		c6.583,2.759,9.73,4.83,9.171,14.196c-0.701,11.703-0.78,23.518-2.56,35.064c-2.406,15.605-6.557,30.876-14.576,44.766
		c-0.637,1.103-1.313,2.183-2.072,3.439c-5.152-1.719-9.479-4.139-13.273-7.675C36.643,101.564,28.602,87.569,22.855,72.095z"/>
	<path fill-rule="evenodd" clip-rule="evenodd" d="M62.735,94.512c-6.221,0-12.475,0-18.726,0c-0.266,4,5.064,7.759,10.169,7.661
		C59.905,102.062,63.182,99.512,62.735,94.512z"/>
</g>
<path fill-rule="evenodd" clip-rule="evenodd" fill="#FFFFFF" d="M17.749,231.28c6.746,1.53,6.746,1.53,10.213-7.166
	c4.93-0.628,10.015-1.274,15.564-1.981c0,4.03,0,7.472,0,11.561c-1.628,0.586-3.745,1.351-6.203,2.236
	c2.716,2.344,5.035-0.772,7.747-0.035c0.982,14.857,2.409,29.706,0.334,45.188c-8.696,2.271-17.233-1.045-26.407,0.646
	C18.479,264.448,16.364,248.114,17.749,231.28z"/>
<path fill-rule="evenodd" clip-rule="evenodd" fill="#FFFFFF" d="M82.094,223.613c-0.678,2.586-1.299,4.953-1.957,7.461
	c-1.509-0.663-2.925-1.285-4.451-1.954c-1.974-2.171-0.544-4.211,0.725-6.257c-3.476-0.26-3.59-0.041-3.581,6.943
	c-1.222,0.317-2.571,0.667-4.259,1.104c-0.404-3.316-0.739-6.072-1.113-9.139c2.837-0.892,2.927-2.884,2.034-5.453
	c-0.498-1.434-0.479-3.07-0.551-4.621c-0.696-15.207-1.376-30.414-2.027-45.623c-0.096-2.244-0.013-4.496-0.013-6.744
	c0.424-0.061,0.848-0.121,1.271-0.182c0.338,0.959,0.76,1.897,0.999,2.881c1.915,7.877,2.372,15.874,2.741,23.971
	c0.432,9.455,2.401,18.83,3.243,28.281c0.356,4,1.802,6.599,5.436,8.096C81.042,222.562,81.384,223.017,82.094,223.613z"/>
<path fill-rule="evenodd" clip-rule="evenodd" fill="#FFFFFF" d="M42.104,120.084c5.647,2.827,6.025,4.72,2.163,12.839
	c-3.046-3.694-5.87-7.117-8.566-10.385c0-6.651,0-13.081,0-20.062C41.906,107.101,40.148,114.167,42.104,120.084z"/>
<path fill-rule="evenodd" clip-rule="evenodd" fill="#FFFFFF" d="M34.56,369.287c1.734-0.924,3.468-1.85,5.2-2.773
	c-0.123-0.336-0.248-0.671-0.373-1.006c-3.594,1.258-7.187,2.516-10.78,3.772c-0.186-0.232-0.37-0.466-0.556-0.698
	c1.924-3.396,4.776-5.908,8.66-8.13c2.646,1.627,5.361,3.298,8.906,5.479c-3.973,2.014-6.799,4.358-10.646,4.179
	C34.834,369.835,34.696,369.562,34.56,369.287z"/>
<path fill-rule="evenodd" clip-rule="evenodd" fill="#FFFFFF" d="M17.592,162.59c4.152,6.407,2.428,14.999-4.234,21.493
	C14.723,177.156,16.087,170.229,17.592,162.59z"/>
<path fill-rule="evenodd" clip-rule="evenodd" fill="#FFFFFF" d="M81.735,19.75c-0.396,0.837-0.824,1.742-1.35,2.854
	c0.64,0.814,1.327,1.689,2.016,2.566c-0.109,0.151-0.218,0.302-0.326,0.452c-3.518-1.91-7.036-3.821-10.614-5.764
	C77.362,15.94,78.106,15.927,81.735,19.75z"/>
<path fill-rule="evenodd" clip-rule="evenodd" fill="#FFFFFF" d="M73.402,364.85c-4.065,0.465-8.131,0.931-12.648,1.448
	C63.498,361.012,68.113,360.418,73.402,364.85z"/>
<path fill-rule="evenodd" clip-rule="evenodd" fill="#FFFFFF" d="M32.085,135.279c2.858,2.72,3.475,5.643,3.826,8.586
	c0.252,2.112-1.229,2.573-3.152,2.498C31.305,142.927,30.546,139.539,32.085,135.279z"/>
<path fill-rule="evenodd" clip-rule="evenodd" fill="#FFFFFF" d="M69.062,234.551c0.144-0.166,0.337-0.541,0.644-0.706
	c0.427-0.232,0.939-0.308,0.864-0.285c1.444,1.556,2.63,2.834,3.817,4.112c0.162-0.124,0.324-0.247,0.486-0.37
	c0.362,1.22,0.725,2.44,1.191,4.012c-0.856,0.631-1.708,1.259-2.872,2.116C71.757,240.345,70.513,237.669,69.062,234.551z"/>
<path fill-rule="evenodd" clip-rule="evenodd" fill="#FFFFFF" d="M49.906,124.087c0.793,1.85-1.693,12.748-3.571,15.653
	C45.184,137.064,47.654,126.236,49.906,124.087z"/>
<path fill-rule="evenodd" clip-rule="evenodd" fill="#FFFFFF" d="M25.233,226.122c-0.729,1.343-1.271,3.623-2.23,3.813
	c-1.556,0.31-3.384-0.749-5.255-1.274c1.549-3.961,4.43-2.63,6.527-3.33C24.595,225.595,24.914,225.858,25.233,226.122z"/>
<path fill-rule="evenodd" clip-rule="evenodd" fill="#FFFFFF" d="M47.774,232.042c-3.854-2.425-4.038-5.896-0.429-9.939
	C48.056,225.643,48.348,228.665,47.774,232.042z"/>
<path fill-rule="evenodd" clip-rule="evenodd" fill="#FFFFFF" d="M87.535,54.7c2.104,2.56,1.936,4.729-0.98,8.53
	c-2.036-0.914-2.023-2.154-0.941-3.939C86.444,57.923,86.879,56.315,87.535,54.7z"/>
<path fill-rule="evenodd" clip-rule="evenodd" fill="#FFFFFF" d="M34.68,125.046c3.094,3.181,5.884,6.609,8.243,10.39
	c-0.35,0.285-0.699,0.569-1.048,0.854c-2.772-3.442-5.545-6.886-8.316-10.33C33.932,125.655,34.306,125.35,34.68,125.046z"/>
<path fill-rule="evenodd" clip-rule="evenodd" d="M66.095,88.254c-3.968-2.306-7.129-4.144-10.756-6.252
	c3.401-2.152,5.478,1.632,8.773,0.496c-1.612-14.672-3.245-29.514-4.981-45.312c6.777,2.217,12.53-1.38,18.999-0.106
	c-2.324,3.557-5.449,1.926-7.88,2.641c-2.581,0.759-5.305,1.032-8.24,1.568c0.609,8.059,0.999,15.814,1.831,23.522
	C64.66,72.398,66.916,79.867,66.095,88.254z"/>
<path fill-rule="evenodd" clip-rule="evenodd" d="M44.01,94.716c6.251,0,12.505,0,18.726,0c0.446,4.749-2.83,7.55-8.557,7.66
	C49.074,102.475,43.744,98.527,44.01,94.716z M49.345,96.916c-0.038,0.308-0.078,0.616-0.116,0.924
	c3.509,2.952,7.201,2.933,10.191-0.357C55.882,97.283,52.614,97.099,49.345,96.916z"/>
<path fill-rule="evenodd" clip-rule="evenodd" d="M50.537,41.157c-4.576,2.615-19.128,3.335-21.547,1.353
	c6.584-0.812,12.872-1.62,19.172-2.315C48.803,40.123,49.519,40.726,50.537,41.157z"/>
<path fill-rule="evenodd" clip-rule="evenodd" d="M69.495,44.936c3.05,4.632,2.386,8.195-1.723,9.232
	C65.267,49.871,65.992,45.989,69.495,44.936z"/>
<path fill-rule="evenodd" clip-rule="evenodd" d="M39.577,58.32c-3.391-3.589-3.17-6.608,0.487-9.3
	C43.056,51.458,42.926,55.579,39.577,58.32z"/>
<path fill-rule="evenodd" clip-rule="evenodd" fill="#FFFFFF" d="M49.345,96.916c3.27,0.184,6.537,0.368,10.075,0.567
	c-2.99,3.29-6.683,3.309-10.191,0.357C49.267,97.531,49.307,97.223,49.345,96.916z"/>
<path fill-rule="evenodd" clip-rule="evenodd" fill="#FFFFFF" d="M67.395,156.405c1.563-0.787,2.535-1.276,3.464-1.743
	c-0.838-7.349-1.548-14.342-2.516-21.3c-0.17-1.221-1.165-2.841-2.221-3.335c-4.089-1.918-8.357-3.455-12.512-5.114
	c-4.683,5.626-2.764,13.177-6.835,19.606c-6.094-7.056-11.648-13.486-17.483-20.242c-3.491,2.565-6.47,5.469-10.019,7.209
	c-6.986,3.427-7.442,10.021-9.537,16.78c3.002,0.672,5.54,1.24,7.691,1.721c2.401-2.534,0.86-6.574,4.698-7.501
	c1.587,1.09,1.257,2.097,0.49,3.627c-0.991,1.98-1.388,4.258-2.04,6.408c-2.144,2.895-1.693,8.415,2.248,13.323
	c1.177-3.51,2.562-6.609,3.234-9.857c1.37-6.629,4.508-12.912,3.79-19.985c-0.168-1.655,0.327-3.711,2.885-4.292
	c3.772,3.225,3.622,8.396,5.716,12.367c4.326,0.283,5.62,1.303,5.967,5.591c0.381,4.719,0.506,9.475,0.434,14.21
	c-0.071,4.64-5.826,8.089-10.426,6.45c-0.135-0.048-0.142-0.46-0.33-1.147c2.549-0.638,5.114-1.28,7.679-1.923
	c-0.053-0.295-0.106-0.589-0.159-0.884c-2.17,0.15-4.339,0.3-6.508,0.45c-0.061-0.47-0.121-0.938-0.182-1.408
	c1.665-0.402,3.318-0.864,4.999-1.194c1.92-0.377,3.477-0.92,2.617-3.756c-1.739,0.392-3.227,0.814-4.742,1.042
	c-1.384,0.207-3.033,0.93-4.157-1.585c3.288-0.745,6.882,0.098,9.462-3.094c-2.966-4.708-7.052,0.865-10.068-1.185
	c-0.078-0.363-0.157-0.727-0.235-1.091c3.085-0.791,6.169-1.582,10.141-2.602c-0.999-1.748-1.709-3.99-2.375-3.978
	c-2.487,0.05-5.143,0.455-7.356,1.518c-1.019,0.489-1.635,2.816-1.607,4.295c0.081,4.282,0.581,8.558,0.816,11.549
	c-3.509,7.943-6.569,14.872-9.399,21.28c0.312,1.917,0.879,3.313,0.695,4.603c-1.197,8.386-2.579,16.747-3.84,25.125
	c-0.177,1.172-0.024,2.393-0.024,4.228c12.077-5.936,22.758-12.896,34.122-18.506c0.245,0.439,0.489,0.88,0.732,1.318
	c-11.075,5.273-21.752,11.206-31.983,17.868c0.142,0.264,0.284,0.526,0.426,0.79c7.727-3.438,15.454-6.875,23.18-10.312
	c0.132,0.291,0.264,0.582,0.396,0.873c-5.25,2.613-10.499,5.226-15.748,7.838c0.158,0.449,0.315,0.898,0.474,1.348
	c11.737-1.853,23.475-3.703,35.518-5.604c0.131-1.387,0.381-2.652,0.345-3.908c-0.159-5.468-0.36-10.935-0.622-16.397
	c-0.866-18.049-1.771-36.095-2.634-54.144c-0.069-1.456-0.391-3.191,2.077-3.543C67.105,144.132,65.712,150.16,67.395,156.405z"/>
</svg>
