<?xml version="1.0" encoding="utf-8"?>
<!-- Generator: Adobe Illustrator 16.2.1, SVG Export Plug-In . SVG Version: 6.00 Build 0)  -->
<!DOCTYPE svg PUBLIC "-//W3C//DTD SVG 1.1//EN" "http://www.w3.org/Graphics/SVG/1.1/DTD/svg11.dtd">
<svg version="1.1" id="Layer_1" xmlns="http://www.w3.org/2000/svg" xmlns:xlink="http://www.w3.org/1999/xlink" x="0px" y="0px"
	 width="267.639px" height="449.11px" viewBox="0 0 267.639 449.11" enable-background="new 0 0 267.639 449.11"
	 xml:space="preserve">
<path fill-rule="evenodd" clip-rule="evenodd" d="M123.72,421.934c-0.419,1.408-0.838,2.816-1.464,4.922
	c4.048-0.674,7.733-1.335,11.434-1.894c9.547-1.44,19.141-2.615,28.638-4.328c6.396-1.152,7.153-3.03,4.943-8.99
	c-0.623-1.683-1.032-3.445-1.691-5.688c-12.897,2.403-26.032,4.442-39.335,10.557c-0.393-38.867-1.005-76.358,1.065-114.681
	c-3.414,0.366-6.088,0.653-9.214,0.989c-6.81,30.672-8.078,61.791-12.021,92.826c-3.416-1.153-2.818-3.375-2.606-5.22
	c1.194-10.421,2.487-20.83,3.753-31.243c2.107-17.353,4.229-34.703,6.304-52.06c0.09-0.753-0.231-1.557-0.341-2.209
	c-3.267-1.56-6.471,2.717-10.621-1.206c5.522-1.498,10.161-2.756,14.35-3.893c1.058-6.709,2.069-13.121,3.25-20.605
	c-6.688,1.497-12.619,2.708-18.464,4.246c-1.008,0.266-1.973,1.798-2.406,2.952c-2.247,5.987-6.009,9.04-12.671,7.19
	c-0.57-0.158-1.275,0.174-1.821,0.263c-4.019,8.973-16.722,100.898-14.976,108.804c8.631,1.12,15.96-5.046,24.326-5.466
	c0.171,0.478,0.342,0.955,0.514,1.433c-1.514,0.719-2.969,1.623-4.552,2.122c-5.707,1.801-11.494,3.355-17.18,5.219
	c-3.673,1.204-3.668,1.471-2.594,5.835c3.832-0.927,7.678-1.858,11.524-2.789c0.203,0.461,0.406,0.921,0.61,1.382
	c-1.075,0.722-2.057,1.739-3.241,2.114c-5.389,1.706-10.821,3.28-16.266,4.805c-3.812,1.067-7.765,1.819-10.517,6.69
	c16.626-1.568,32.474-3.063,48.513-4.576c0.283,0.66,0.826,1.292,0.729,1.803c-0.535,2.81-6.828,9.336-9.496,9.753
	c-16.773,2.622-33.53,5.378-50.356,7.611c-3.792,0.503-7.895-0.629-11.744-1.499c-2.419-0.546-4.496-2.118-4.655-6.049
	c11.217-1.821,21.795-5.17,28.111-15.403c3.99-1.215,7.756-2.361,11.765-3.581c0-0.852,0-1.894,0-3.007
	c-4.507-0.867-8.647,4.249-12.832,0.89c-0.088-0.486-0.176-0.972-0.264-1.458c4.304-1.219,8.608-2.438,12.455-3.527
	c5.581-39.716,11.068-78.762,16.462-117.146c4.215,1.146,7.488,2.537,10.817,2.686c1.262,0.057,2.651-2.753,3.982-4.256
	c-0.241-0.445-0.483-0.891-0.725-1.336c-2.173,0.271-4.37,0.42-6.514,0.839c-4.157,0.813-5.061,0.344-5.355-3.979
	c-0.953-13.944-1.572-27.915-2.7-41.844c-0.831-10.273-2.224-20.503-3.455-30.74c-0.19-1.583-0.858-3.108-1.414-5.039
	c-1.492,0.576-2.647,0.787-3.517,1.402c-2.905,2.056-5.752,3.738-9.636,2.831c-1.235-0.289-2.835,0.732-4.203,1.306
	c-14.737,6.177-29.444,12.425-44.21,18.529c-1.689,0.698-3.688,0.648-5.542,0.944c-0.236-0.409-0.474-0.819-0.71-1.229
	c0.731-0.814,1.31-2.028,2.221-2.379c6.019-2.318,12.221-4.188,18.152-6.702c10.39-4.406,20.679-9.06,30.885-13.875
	c2.115-0.998,3.685-3.155,5.733-4.982c-1.158-2.43-2.115-4.435-3.321-6.964c-19.258,11.669-39.601,18.85-60.899,23.386
	c-0.242-0.484-0.484-0.969-0.728-1.453c1.379-0.727,2.69-1.656,4.148-2.148c10.242-3.458,20.651-6.471,30.732-10.343
	c7.43-2.854,14.551-6.591,21.575-10.37c2.124-1.143,3.464-3.743,5.361-5.023c3.069-1.23,6.529-1.915,9.142-3.785
	c11.896-8.516,23.533-17.388,32.771-28.937c0.302-0.377,0.458-0.869,0.687-1.314c-0.435-3.756-3.26-3.462-5.938-3.81
	c-8.401-1.092-16.816-2.168-25.144-3.698c-3.019-0.555-6.083-1.96-8.65-3.686c-19.225-12.927-28.624-28.807-26.363-54.806
	c0.155-1.778,0.251-3.561,0.352-5.002c-3.905-2.089-7.337-3.925-10.749-5.75c0.966-3.447,2.351-3.68,4.58-2.242
	c1.937,1.248,4.054,2.217,6.092,3.31c0.31-0.498,0.619-0.996,0.93-1.494c-1.403-1.248-2.806-2.496-4.779-4.253
	c1.95-1.244,3.473-2.216,5.223-3.331c-10.764,0.9-10.764,0.9-14.867-2.129c3.742-2.684,7.345-5.266,10.948-7.85
	c-6.784-0.457-13.66,2.02-19.272-3.738c4.787-3.105,9.644-5.338,13.25-8.853c3.628-3.534,6.014-8.345,9.288-12.345
	c0.404,5.477-2.673,9.992-13.569,20.718c2.721,1.669,5.463,0.947,8.021,0.285c5.411-1.399,10.692-0.793,16.167-0.262
	c4.654,0.452,9.708-0.246,14.198-1.66c11.885-3.742,23.854-7.528,33.383-16.256c0.841-0.77,2.373-0.784,3.585-1.15
	c0.282,0.417,0.565,0.834,0.848,1.251c-4.423,5.983-8.847,11.967-13.271,17.95c0.045,0.183,0.089,0.364,0.133,0.547
	c5.791-3.755,12.04-6.974,17.244-11.416c5.23-4.464,9.421-10.145,14.633-14.896c0.624,6.104-4.176,9.418-7.652,14.563
	c8.768-0.612,15.355-4.193,21.9-8.024c4.037,3.087-0.276,4.852-1.149,8.021c3.55-1.293,6.525-2.377,9.501-3.461
	c0.421,0.289,0.841,0.577,1.262,0.866c-0.775,3.412-1.552,6.824-2.41,10.603c2.627-0.951,5.36-1.941,8.165-2.957
	c1.433,6.396-4.527,16.93-10.859,17.971c2.138-4.295,3.94-7.916,5.742-11.538c-0.224-0.233-0.447-0.468-0.671-0.701
	c-2.849,1.929-5.696,3.857-9.226,6.248c-1.239-6.023,3.497-9.654,3.287-15.004c-6.206,1.987-12.091,3.871-18.069,5.784
	c2.058,1.827,3.994,3.426,5.701,5.241c0.178,0.189-1.006,1.66-1.567,2.553c-11.139-8.246-20.812-3.197-30.436,2.122
	c-1.377,0.762-2.595,1.811-4.263,2.993c-1.474-4.148,1.2-5.522,3.379-6.389c6.901-2.743,13.956-5.104,20.951-7.613
	c0.153,0.314,0.307,0.629,0.461,0.943c0.426-1.352,0.853-2.703,1.681-5.329c-13.854,5.849-26.771,11.302-39.708,16.763
	c1.884,3.793,1.884,3.793-0.11,6.866c-0.975-0.89-1.782-1.907-2.828-2.512c-1.345-0.777-2.846-1.355-4.349-1.769
	c-1.068-0.295-2.524,0.232-3.335-0.312c-3.61-2.422-6.767-0.863-9.759,0.979c-4.246,2.613-8.312,5.52-12.707,8.47
	c-2.424,12.753-4.128,25.722,0.751,38.6c3.848,10.158,10.281,18.659,19.513,23.978c22.958,13.227,46.482,12.124,69.45-0.126
	c3.914-2.087,7.047-6.708,9.175-10.857c4.979-9.707,7.164-20.354,8.376-31.175l-0.14,0.143c7.209,3.22,12.408,1.582,17.416-5.485
	c4.021-5.675,3.61-12.294-1.072-17.283c-3.88-4.135-8.965-3.578-12.02,1.257c-0.898,1.421-1.998,2.714-3.299,4.459
	c-3.344-4.337,0.465-6.619,1.261-9.44c-0.083,0.148-0.161,0.3-0.234,0.453c2.715-1.149,5.339-2.639,8.161-3.379
	c6.473-1.699,15.247,10.142,13.151,18.208c-2.112,8.133-8.141,16.528-20.874,17.281c-1.368,6.02-2.614,12.173-4.188,18.24
	c-1.467,5.651-3.231,11.289-7.614,15.481c-2.354,2.25-4.992,4.244-7.684,6.088c-2.31,1.583-4.877,2.788-7.653,4.341
	c0.388,1.599,0.716,2.952,1.238,5.107c2.384-0.665,4.572-0.836,6.287-1.827c11.089-6.406,22.154-12.861,33.062-19.568
	c6.494-3.993,12.645-8.54,19.026-12.721c7.098-4.65,11.625-11.795,15.277-18.798c6.576-12.609,11.437-26.114,16.968-39.138
	c-3.755-4.8-6.928-8.809-10.049-12.857c-2.653-3.441-3.66-7.011-1.04-11.035c3.151-4.841,2.242-10.231,1.809-15.534
	c-0.129-1.577-0.205-3.158-0.326-5.056c7.919-1.62,10.75,3.498,13.529,9.212c2.752-3.687,5.027-7.101,7.682-10.19
	c2.813-3.274,5.883-6.353,9.054-9.287c1.287-1.191,3.045-2.111,4.746-2.57c3.443-0.927,5.64,1.145,4.936,4.647
	c-0.546,2.714-1.581,5.329-2.594,8.622c2.821-1.331,4.964-2.535,7.244-3.362c2.245-0.814,4.889-2.511,6.847,0.14
	c2.079,2.812-0.27,4.987-1.879,7.047c-1.255,1.607-2.722,3.049-4.175,4.652c4.858,0,9.173,0,13.9,0
	c-0.366,5.496-4.773,7.032-7.595,9.865c5.295,1.482,5.92,2.097,7.038,7.302c-2.813,0.969-5.676,2.134-8.639,2.921
	c-2.774,0.737-3.906,2.266-4.578,5.101c-0.819,3.452-2.18,6.987-4.176,9.888c-1.962,2.851-3.804,2.145-5.633-1.869
	c8.542-2.454,3.391-9.698,4.933-15.026c3.678-0.824,7.275-1.631,10.873-2.437c-0.062-0.497-0.125-0.994-0.188-1.491
	c-4.087,0.293-8.174,0.585-12.929,0.925c2.847-6.767,10.697-5.687,13.393-11.57c-7.089-0.408-11.778,4.668-17.283,7.283
	c-2.665-2.893-1.272-4.575,0.595-6.276c2.705-2.466,5.385-4.963,7.98-7.543c1.246-1.239,2.273-2.698,3.108-4.395
	c-4.763,0.435-8.165,3.323-11.479,6.084c-3.201,2.665-5.962,5.859-8.887,8.792c-3.039-2.336-1.609-3.744-0.409-5.468
	c2.941-4.223,5.774-8.53,8.419-12.943c0.968-1.615,1.282-3.622,1.977-5.696c-7.521,0.862-17.842,13.598-19.247,23.322
	c4.156,2.082,8.782,4.049,9.822,9.413c0.175,0.899-0.928,2.047-1.842,3.89c-1.39-1.851-2.339-2.758-2.854-3.866
	c-1.687-3.625-4.175-4.818-8.104-3.573c-1.435,0.454-3.201-0.139-4.886-0.259c1.752-10.672,1.319-12.746-3.381-16.328
	c-0.268,1.024-0.758,1.908-0.671,2.73c0.578,5.437-0.52,10.521-2.308,15.658c-0.63,1.809,0.094,4.656,1.208,6.375
	c1.878,2.893,4.306,5.575,6.979,7.763c2.611,2.137,3.482,4.316,2.278,7.367c-5.126,12.994-9.285,26.494-15.697,38.822
	c-5.697,10.954-13.274,21.146-24.757,27.384c-3.472,1.886-6.665,4.283-10.562,6.821c2.439,5.154,4.875,10.3,7.639,16.138
	c7.333-5.978,14.278-11.338,20.863-17.11c4.498-3.943,8.447-8.506,12.723-12.71c5.771-5.675,8.687-12.902,11.302-20.317
	c2.932-8.313,5.902-16.614,8.829-24.931c1.157-3.289,2.045-6.69,3.438-9.872c0.761-1.738,2.322-3.127,3.521-4.672
	c0.553,0.251,1.105,0.503,1.658,0.755c-0.212,1.41-0.193,2.904-0.671,4.218c-3.972,10.924-8.306,21.725-11.991,32.743
	c-3.259,9.742-7.553,18.47-14.762,26.196c-12.141,13.011-26.45,23.301-40.054,34.497c-2.561,2.107-5.094,4.249-7.548,6.298
	c1.605,16.152,3.21,32.186,4.79,48.221c1.562,15.853,2.132,31.748,3.297,47.617c-0.779,0.124-1.56,0.248-2.339,0.372
	c-0.448-1.668-1.176-3.315-1.301-5.007c-1.094-14.784-1.928-29.589-3.145-44.362c-0.942-11.446-2.104-22.886-3.628-34.267
	c-0.527-3.938-2.439-7.69-4.081-12.612c4.148-3.314,9.257-7.396,14.667-11.718c-0.557-6.166-3.533-11.342-7.284-16.467
	c-10.411,5.974-20.436,11.726-30.552,17.53c0.066,9.817-6.27,15.123-13.847,19.19c-8.591,4.611-15.675-0.154-22.979-5.101
	c-5.354,4.433-10.445,8.919-15.826,13.027c-5.402,4.124-11.092,7.872-16.907,11.962c1.054,3.551,2.077,6.998,3.185,10.729
	c4.434,0.195,7.929-5.327,13.642-4.535c-4.062,4.412-2.274,9.187-1.862,13.848c1.76,19.899,3.425,39.808,5.195,59.706
	c0.305,3.42,0.949,6.81,1.592,11.299c4.453-1.071,8.134-1.957,11.814-2.843c8.532,0.788,48.969-8.056,54.529-12.651
	c3.438-0.207,6.422-0.387,9.406-0.565c0.202,0.414,0.405,0.828,0.607,1.242c-2.472,1.564-4.943,3.129-8.077,5.111
	c0.241,2.646,0.514,5.643,0.767,8.427c5.986,1.962,7.357-3.28,11.308-5.299c0-3.888,0-7.993,0-12.099
	c0.602-0.062,1.204-0.123,1.806-0.185c0.362,1.862,1.003,3.719,1.041,5.587c0.278,13.652,0.332,27.31,0.659,40.961
	c0.339,14.146,1.024,28.283,1.334,42.43c0.259,11.796,0.22,23.599,0.261,35.399c0.014,3.997-0.068,7.997-0.242,11.99
	c-0.065,1.511-0.514,3.005-0.857,4.889c-3.555-1.652-2.866-4.058-2.759-6.324c0.503-10.642,1.2-21.281,1.339-31.928
	c0.085-6.473-0.932-12.952-1.079-19.437c-0.38-16.646-0.504-33.296-0.833-49.942c-0.111-5.586-0.537-11.165-0.835-17.071
	c-12.609,10.604-15.142,4.644-15.765-6.724c-6.193,1.257-12.432,1.853-18.127,4.613c-1.247,0.605-2.188,2.51-2.614,4.003
	c-0.864,3.03-1.257,6.194-1.892,9.293c-0.305,1.487-0.719,2.951-1.084,4.427c-0.566-0.085-1.133-0.17-1.698-0.256
	c0.368-5.25,0.735-10.5,1.144-16.312c-1.555,0.412-3.033,0.441-3.18,0.897c-1.984,6.199-5.938,12.114-2.843,19.812
	c6.002-0.782,12.231-1.594,18.757-2.443c-0.584,2.11-1.225,2.396-8.747,4.687c-4.005,8.29-4.773,94.028-0.797,108.937
	c5.694-1.322,11.438-2.652,17.18-3.99c5.633-1.312,11.265-2.633,17.281-4.039c6.778,4.638,5.927,11.91,5.532,19.679
	c-4.793,1.11-9.259,2.402-13.814,3.145c-9.04,1.472-18.129,2.642-27.198,3.932c-9.487,1.35-16.014,7.669-22.758,13.603
	c-0.268,0.235-0.165,0.892-0.393,2.396c20.136-7.164,41.44-8.344,59.834-18.898c2.656,3.31,2.372,4.509-1.296,5.629
	c-12.083,3.688-24.183,7.32-36.292,10.92c-6.38,1.896-12.782,3.721-19.198,5.489c-1.75,0.482-3.631,1.02-5.374,0.825
	c-1.274-0.141-2.965-1.19-3.464-2.291c-0.465-1.025,0.211-2.733,0.744-3.988c0.363-0.854,1.268-1.552,2.064-2.134
	c6.114-4.47,10.791-10.186,14.716-16.601c1.165-1.904,2.612-3.654,5.237-1.98L123.72,421.934z M33.47,433.057
	c7.461,3.223,54.582-3.854,59.081-9.015C71.828,424.607,52.504,427.866,33.47,433.057z M108.415,148.968
	c0.51,4.218,0.92,7.604,1.318,10.892c5.865,3.772,13.326,2.004,16.952-3.693c-2.157-3.208-4.243-6.31-6.606-9.823
	C116.334,147.186,112.546,148.038,108.415,148.968z M45.772,66.933c5.707-3.287,10.898-6.277,16.09-9.268
	c-0.168-0.357-0.337-0.715-0.505-1.073c-5.966,0-11.933,0-18.188,0c-2.903,2.529-6.197,5.397-9.764,8.504
	C37.622,67.426,42.261,61.7,45.772,66.933z M65.618,58.008c0.18,0.469,0.36,0.938,0.54,1.407c2.641,0,5.539,0.712,7.874-0.133
	c7.133-2.582,15.259-9.804,16.749-14.062c-6.425,2.605-12.954,5.032-19.268,7.931C69.276,54.179,67.568,56.355,65.618,58.008z
	 M102.194,162.946c10.088,10.151,24.266,7.204,28.513-4.637c-3.726,2.068-7.771,5.077-12.312,6.637
	c-5.192,1.782-10.154,0.071-13.719-4.821C103.588,161.362,102.969,162.066,102.194,162.946z"/>
<path fill-rule="evenodd" clip-rule="evenodd" d="M177.844,32.696c-0.825,3.647-1.437,6.35-2.281,10.088
	c0.502,0.891,1.501,2.778,2.606,4.601c4.68,7.716,5.533,15.889,2.912,24.454c-0.621,2.03-1.294,4.194-5.113,4.043
	c6.782-14.06,1.656-25.082-8.281-34.756c0-2.819,0-5.561,0-8.269c-1.848,1.291-3.523,2.462-5.76,4.024
	c-1.529-9.196-6.384-14.954-13.087-19.03c-6.791-4.13-13.534-9.217-21.009-11.181C102.37-0.021,78.661,3.827,58.271,21.75
	c-0.994,0.874-2.066,1.663-3.142,2.438c-0.229,0.166-0.63,0.097-0.959,0.137c8.234-13.788,36.433-25.423,55.516-24.241
	c22.411,1.387,40.353,10.623,54.517,28.341c1.558-2.255,3.021-4.371,4.716-6.824c3.911,3.849,1.169,8.411,3.311,12.189
	C173.446,33.552,174.792,33.29,177.844,32.696z"/>
<path fill-rule="evenodd" clip-rule="evenodd" d="M64.609,113.728c10.404-2.756,20.49-5.062,30.334-8.139
	c9.938-3.106,19.639-6.979,29.943-10.697c1.487,4.958,1.727,9.299-0.944,13.593c-4.104,6.598-10.248,10.753-17.475,12.441
	c-8.03,1.876-16.379,3.275-24.584,3.25C75.085,124.154,68.918,120.738,64.609,113.728z M92.269,110.35
	c1.345,3.083,2.689,6.165,4.195,9.617c2.692-0.669,5.146-1.278,7.991-1.984c-1.338-3.971-2.466-7.318-3.732-11.079
	c-3.21,1.359-5.771,2.443-8.334,3.528c-3.587,0.744-7.175,1.489-10.966,2.276c0.486,2.929,0.804,4.843,1.209,7.28
	c2.94,0,5.654,0,8.341,0C91.573,116.32,88.036,112.781,92.269,110.35z M104.892,105.856c1.044,3.884,1.954,7.27,2.885,10.732
	c9.125-3.57,9.68-5.577,3.927-13.626C109.646,103.836,107.47,104.761,104.892,105.856z M118.673,107.168
	c0.557,0.116,1.113,0.233,1.67,0.35c0.599-2.305,1.196-4.609,2.082-8.026c-2.604,0.793-3.897,1.187-5.603,1.705
	C117.532,103.488,118.103,105.328,118.673,107.168z"/>
<path fill-rule="evenodd" clip-rule="evenodd" d="M98.846,80.377c-0.3-1.404-0.64-2.999-1.079-5.06
	c6.138-5.33,12.925-8.636,21.255-7.274c3.083,0.504,6.11,1.637,9.021,2.829c3.936,1.612,4.574,3.214,3.689,8.502
	c-1.417,0-3.1,0.426-4.441-0.071c-6.677-2.474-13.034-1.633-19.345,1.22C105.214,81.757,102.399,83.062,98.846,80.377z"/>
<path fill-rule="evenodd" clip-rule="evenodd" d="M67.205,87.12c-2.921,1.039-7.145,2.325-11.174,4.062
	c-2.175,0.937-4.049,1.807-5.722-0.435c-1.492-1.999-1.99-4.13-0.24-6.381c4.434-5.706,10.902-8.039,17.387-9.91
	c3.697-1.066,9.504,6.062,8.395,9.752C74.782,87.763,72.185,88.666,67.205,87.12z"/>
<path fill-rule="evenodd" clip-rule="evenodd" d="M150.885,94.275c-4.148-2.02-4.637-3.11-3.237-7.304
	c0.314-0.944,0.75-1.854,0.997-2.815c0.246-0.96,0.325-1.964,0.391-2.39c3.793-3.558,7.195-6.749,10.689-10.026
	c3.804,3.585-0.593,4.718-1.207,6.744c2.911,4.958,2.756,6.748-0.882,10.32c-1.536,1.509-1.536,1.509-4.751-0.33
	c0.812-1.463,1.625-2.927,2.646-4.767c-3.876,1.514-4.345,2.669-4.786,10.71L150.885,94.275z"/>
<path fill-rule="evenodd" clip-rule="evenodd" d="M123.849,422.075c1.285-1.172,2.396-3.021,3.885-3.405
	c10.418-2.693,20.913-5.093,31.394-7.542c0.574-0.134,1.244,0.138,1.869,0.221c0.098,0.338,0.194,0.676,0.292,1.014
	c-2.455,0.859-4.875,1.838-7.371,2.557c-7.965,2.291-15.935,4.573-23.955,6.656c-1.978,0.514-4.156,0.26-6.242,0.358
	L123.849,422.075z"/>
<path fill-rule="evenodd" clip-rule="evenodd" d="M84.544,81.701c0,1.471,0.166,2.965-0.04,4.405
	c-0.281,1.972-1.01,3.883-1.254,5.855c-0.517,4.181-0.735,8.357,3.648,11.306c-2.839,2.102-4.761,1.65-5.903-0.644
	c-0.86-1.727-1.549-3.822-1.43-5.697c0.282-4.471,1.02-8.919,1.744-13.349c0.129-0.792,1.073-1.451,1.642-2.172
	C83.482,81.505,84.014,81.603,84.544,81.701z"/>
<path fill-rule="evenodd" clip-rule="evenodd" d="M152.797,68.378c0.073-0.153,0.151-0.305,0.234-0.453
	c-1.914,1.704-3.827,3.408-5.741,5.112c-0.371-0.289-0.742-0.577-1.113-0.866c1.084-6.865,8.153-10.377,9.685-17.02
	c3.883,1.216,3.132,3.262,1.979,5.228C156.248,63.097,154.486,65.717,152.797,68.378z"/>
<path fill-rule="evenodd" clip-rule="evenodd" d="M105.368,401.498c1.157,6.579,0.681,13.166,0.238,20.498
	c-3.815-1.927-2.893-4.566-2.887-6.574c0.013-4.673-0.626-9.455,0.514-14.036C103.945,401.423,104.657,401.461,105.368,401.498z"/>
<path fill-rule="evenodd" clip-rule="evenodd" fill="#FFFFFF" d="M33.47,433.057c19.034-5.19,38.358-8.449,59.081-9.015
	C88.052,429.202,40.931,436.279,33.47,433.057z"/>
<path fill-rule="evenodd" clip-rule="evenodd" fill="#FFFFFF" d="M108.415,148.968c4.131-0.93,7.919-1.782,11.664-2.625
	c2.363,3.514,4.449,6.615,6.606,9.823c-3.626,5.697-11.087,7.466-16.952,3.693C109.335,156.572,108.925,153.186,108.415,148.968z"/>
<path fill-rule="evenodd" clip-rule="evenodd" fill="#FFFFFF" d="M45.772,66.933c-3.512-5.232-8.15,0.493-12.367-1.837
	c3.566-3.106,6.86-5.975,9.764-8.504c6.256,0,12.223,0,18.188,0c0.168,0.358,0.337,0.716,0.505,1.073
	C56.671,60.655,51.479,63.646,45.772,66.933z"/>
<path fill-rule="evenodd" clip-rule="evenodd" fill="#FFFFFF" d="M65.618,58.008c1.95-1.652,3.658-3.829,5.896-4.856
	c6.313-2.898,12.843-5.325,19.268-7.931c-1.49,4.258-9.616,11.479-16.749,14.062c-2.335,0.845-5.233,0.133-7.874,0.133
	C65.979,58.946,65.798,58.477,65.618,58.008z"/>
<path fill-rule="evenodd" clip-rule="evenodd" fill="#FFFFFF" d="M102.194,162.946c0.774-0.88,1.394-1.584,2.481-2.821
	c3.564,4.893,8.526,6.604,13.719,4.821c4.542-1.56,8.587-4.568,12.312-6.637C126.46,170.15,112.282,173.098,102.194,162.946z"/>
<path fill-rule="evenodd" clip-rule="evenodd" fill="#FFFFFF" d="M104.892,105.856c2.578-1.096,4.755-2.021,6.812-2.894
	c5.753,8.049,5.198,10.056-3.927,13.626C106.846,113.126,105.936,109.74,104.892,105.856z"/>
<path fill-rule="evenodd" clip-rule="evenodd" fill="#FFFFFF" d="M92.389,110.432c2.562-1.085,5.124-2.169,8.334-3.528
	c1.267,3.761,2.395,7.108,3.732,11.079c-2.845,0.706-5.299,1.315-7.991,1.984c-1.506-3.452-2.851-6.534-4.195-9.617L92.389,110.432z
	"/>
<path fill-rule="evenodd" clip-rule="evenodd" fill="#FFFFFF" d="M92.269,110.35c-4.232,2.432-0.695,5.971-1.296,9.639
	c-2.687,0-5.4,0-8.341,0c-0.405-2.438-0.723-4.352-1.209-7.28c3.791-0.787,7.379-1.532,10.966-2.276L92.269,110.35z"/>
<path fill-rule="evenodd" clip-rule="evenodd" fill="#FFFFFF" d="M118.673,107.168c-0.57-1.84-1.141-3.68-1.851-5.972
	c1.705-0.519,2.999-0.912,5.603-1.705c-0.886,3.417-1.483,5.722-2.082,8.026C119.786,107.401,119.229,107.284,118.673,107.168z"/>
</svg>
