<?xml version="1.0" encoding="utf-8"?>
<!-- Generator: Adobe Illustrator 16.2.1, SVG Export Plug-In . SVG Version: 6.00 Build 0)  -->
<!DOCTYPE svg PUBLIC "-//W3C//DTD SVG 1.1//EN" "http://www.w3.org/Graphics/SVG/1.1/DTD/svg11.dtd">
<svg version="1.1" id="Layer_1" xmlns="http://www.w3.org/2000/svg" xmlns:xlink="http://www.w3.org/1999/xlink" x="0px" y="0px"
	 width="231.407px" height="868.08px" viewBox="0 0 231.407 868.08" enable-background="new 0 0 231.407 868.08"
	 xml:space="preserve">
<g id="_x32_Jk6Cb.tif">
	<g>
		<path fill-rule="evenodd" clip-rule="evenodd" d="M69.042,358.407c-0.47-1.726-1.179-3.424-1.375-5.18
			c-2.634-23.68-5.275-47.359-7.652-71.065c-0.229-2.275,0.937-4.917,2.075-7.06c2.871-5.401,6.533-10.415,9.054-15.958
			c2.536-5.575,1.433-11.484-0.909-17.012c-2.311-5.455-6.889-8.306-12.381-6.837c-4.633,1.239-5.797-1.13-6.338-4.522
			c-2.122-13.311-4.087-26.646-6.094-39.863c12.256-7.308,17.34-16.492,15.482-27.666c-1.86-11.186-10.366-17.993-27.323-21.624
			C36.419,91.722,28.186,44.237,0,0c5.28,2.07,9.391,3.458,13.316,5.254c44.085,20.17,75.132,52.392,91.653,98.383
			c14.116,39.297,25.289,79.279,30.612,121.436c-2.342-1.945-4.22-3.62-6.219-5.136c-3.068-2.328-6.313-2.52-9.851-0.871
			c-3.638,1.697-2.958,4.717-2.808,7.688c1.618,32.12,3.195,64.241,4.875,96.357c0.154,2.96,0.535,6.026,1.5,8.803
			c2.339,6.728,6.868,7.974,12.195,3.273c6.241-5.508,12.136-11.408,18.261-17.052c2.004-1.846,4.257-3.422,6.632-4.846
			c-13.628,21.145-27.883,41.824-32.471,68.228c9.468-5.183,17.587-10.849,27.346-10.725c-6.668,9.367-13.288,18.57-19.754,27.879
			c-0.787,1.134-0.744,2.844-1.287,5.136c8.86-0.235,17.264-0.457,26.104-0.691c-8.377,7.037-17.923,12.512-25.247,22.875
			c5.547,1.071,9.776,1.888,14.535,2.807c-6.415,3.751-13.678,6.586-16.498,14.167c0.379,0.448,0.539,0.763,0.797,0.922
			c2.029,1.258,4.077,2.486,6.118,3.724c-1.697,1.548-3.459,3.031-5.072,4.663c-1.639,1.661-3.129,3.471-5.267,5.866
			c3.286,1.023,5.406,1.685,8.312,2.59c-1.529,1.878-2.605,3.449-3.927,4.776c-3.876,3.891-3.752,4.559,1.436,6.446
			c0.743,0.271,1.424,0.708,2.713,1.362c-2.057,2.304-3.833,4.295-6.058,6.787c2.571,1.553,4.728,2.855,7.224,4.364
			c-2.061,1.817-3.861,3.408-6.386,5.636c4.153,2.671,7.824,5.03,12.205,7.847c-1.618,1.091-3.032,2.254-4.624,3.077
			c-4.274,2.208-4.777,4.109-1.352,7.548c3.118,3.129,6.571,5.926,11.123,9.979c-4.271,0.731-7.223,1.331-10.202,1.725
			c-3.815,0.505-5.385,2.262-3.758,6.062c2.197,5.134,4.405,10.265,6.721,15.659c-2.06-0.312-4.437-0.669-8.725-1.313
			c4.889,8.466,9.092,15.742,13.638,23.614c-2.23-1.259-4.253-2.37-6.247-3.533c-6.63-3.865-9.695-2.687-11.41,4.821
			c-1.788,7.827,0.294,15.231,3.523,22.281c0.632,1.379,2.771,2.067,4.214,3.074c1.015-1.58,2.635-3.067,2.896-4.763
			c0.359-2.336-0.308-4.829,0.442-7.873c0.726,0.895,1.922,1.714,2.079,2.699c0.309,1.935-0.106,3.974,0.05,5.947
			c0.165,2.091,0.217,5.71,1.072,5.947c2.763,0.766,6.718,1.442,8.656,0.023c3.169-2.318,5.407-6.138,7.475-9.655
			c1.702-2.894,2.585-6.269,4.865-9.326c1.131,7.69,2.263,15.38,3.394,23.07c0.46,0.03,0.92,0.06,1.38,0.089
			c5.636-8.148,11.271-16.297,17.599-25.443c0.358,12.132,0.682,23.081,1.004,34.031c0.519,0.224,1.038,0.448,1.556,0.673
			c5.201-4.615,10.402-9.231,16.493-14.637c-2.151,10.244-4.073,19.397-6.085,28.983c8.132,1.597,12.687-5.834,20.507-6.341
			c-1.128,1.827-1.768,2.804-2.349,3.813c-3.133,5.453-6.727,10.705-9.241,16.431c-2.46,5.6,0.628,10.374,6.636,11.188
			c4.541,0.615,9.15,0.718,15.087,1.146c-2.53,1.62-4.034,2.71-5.651,3.595c-4.817,2.636-9.803,4.984-14.485,7.838
			c-4.355,2.653-4.51,5.622-1.009,9.147c2.113,2.127,4.229,4.253,6.317,6.405c0.182,0.188,0.163,0.567,0.416,1.542
			c-5.949-0.766-11.616-1.775-17.321-2.099c-2.367-0.134-5.159,0.675-7.158,1.978c-3.777,2.46-7.493,5.254-10.493,8.576
			c-1.539,1.706-1.39,4.884-2.175,7.341c-0.522,1.632-1.316,3.181-2.046,4.741c-2.452,5.248-5.551,10.298-7.188,15.786
			c-1.172,3.928,5.401,12.089,9.228,11.391c3.063-0.558,5.583-4.102,8.346-6.302c1.031,4.413-2.646,5.398-5.104,7.441
			c-0.935,0.777-0.964,2.642-1.405,4.01c1.316,0.308,3.134,1.311,3.855,0.79c2.07-1.491,4.068-3.372,5.394-5.529
			c1.319-2.145,1.479-4.979,2.7-7.21c1.951-3.562,2.001-7.028-1.131-9.397c-3.555-2.688-6.694-0.747-9.106,2.073
			c2.227,1.564,4.47,2.723,6.13,4.445c1.24,1.29,1.923,3.384-1.325,3.456c-1.456-6.231-3.505-6.829-9.767-1.234
			c0.302-3.127-0.103-5.298,0.763-6.661c2.199-3.461,9.29-5.913,13.005-4.116c2.129,1.03,4.702,3.857,4.766,5.946
			c0.229,7.502-2.93,14.192-8.855,18.658c-2.812,2.119-7.25,2.081-11.619,3.188c2.02,21.458-3.301,40.406-27.378,49.747
			c4.354,3.196,2.977,7.327,1.979,11.478c-0.909,3.772-0.712,8.137-2.601,11.279c-3.763,6.264-2.602,14.695-9.11,19.707
			c-1.113,0.858-1.405,3.228-1.477,4.925c-0.535,12.614-0.918,25.235-1.349,37.854c-0.406,0.114-0.812,0.229-1.218,0.344
			c-0.78-1.972-1.778-3.887-2.304-5.924c-2.532-9.836-4.936-19.705-7.394-29.561c-0.2-0.809-0.207-2.028-0.729-2.336
			c-5.827-3.438-7.54-9.54-10.457-15.012c-1.76-3.301-5.065-5.665-4.061-10.146c0.202-0.899-0.907-2.312-1.731-3.188
			c-11.226-11.958-11.031-23.25,0.5-35.003c1.068-1.09,1.512-2.951,1.874-4.539c0.511-2.247,0.861-4.567,0.932-6.868
			c0.061-1.962-0.26-3.96-0.621-5.904c-0.3-1.613-1.082-3.143-1.34-4.758c-0.729-4.583-1.665-9.179-1.826-13.793
			c-0.15-4.324,0.619-8.677,0.906-13.022c0.07-1.073,0.205-2.405-0.317-3.212c-3.312-5.109-2.778-10.056-0.417-13.694
			c-0.52-3.655-0.791-6.083-1.233-8.479c-0.256-1.386-0.984-2.695-1.155-4.083c-0.271-2.22-1.238-5.379-0.171-6.538
			c2.695-2.922,1.063-5.224,0.571-8.085c-0.584-3.407-0.02-7.005-0.041-10.519c-0.015-2.546-0.043-5.103-0.292-7.633
			c-0.623-6.328-1.376-12.646-2.157-19.699c-5.556,4.409-6.53,18.848-2.775,27.896c-14.305-6.009-19.79-17.784-21.861-30.941
			c-3.226,2.939-8.111,5.343-9.286,8.951c-1.663,5.11-6.065,5.93-8.861,8.983c-1.138,1.241-1.285,3.39-1.442,5.354
			c-2.441,3.043-7.566,4.681-4.991,10.379c0.103,0.226-0.15,0.627-0.268,0.936c-2.141,5.625-4.132,11.312-6.468,16.855
			c-3.5,8.312-2.319,13.18,4.897,18.488c4.33,3.187,7.038,7.215,6.002,12.799c-1.02,5.489-1.688,11.202-3.786,16.292
			c-2.197,5.331-9.199,7.848-13.342,6.036c-4.448-1.947-7.394-9.479-5.544-15.936c1.109,1.883,2.028,3.086,2.567,4.441
			c0.855,2.152,0.433,5.577,4.403,4.338c3.618-1.131,5.336-5.276,3.402-8.5c-1.079-1.8-2.624-3.553-4.376-4.677
			c-14.137-9.075-19.741-22.417-19.634-38.657c0.167-25.344,11.5-45.96,27.121-64.935c4.747-5.765,8.73-12.263,12.347-18.82
			c3.382-6.13,6.697-11.888,14.731-14.059c-0.729,1.493-1.04,2.568-1.685,3.38c-5.487,6.913-5.857,14.785-3.352,22.646
			c0.624,1.959,4.485,3.982,6.881,4.01c3.183,0.035,6.474-1.736,6.72-5.995c0.134-2.316,0.002-4.744,0.687-6.901
			c0.562-1.766,2.154-3.204,3.93-5.681c1.616,4.766-0.256,9.992,5.062,10.938c-0.904-6.615-1.757-12.86-2.584-18.912
			c-1.836,0.2-3.666,0.4-5.495,0.599c0.468-2.016,0.455-4.334,1.501-5.984c2.331-3.677,4.166-7.201,1.78-11.887
			c-1.553,1.027-3.096,2.051-4.923,3.262c-4.313-7.584,5.867-12.547,3.254-19.448c-0.475-0.014-0.812-0.125-1.04-0.015
			c-1.667,0.818-3.312,1.68-4.965,2.526c-0.23-2.005-1.082-4.186-0.574-5.983c1.595-5.655,3.719-11.16,5.589-16.74
			c0.257-0.762,0.419-1.637,0.327-2.427c-1.471-12.795-2.893-25.599-4.553-38.37c-0.516-3.959-1.711-7.829-2.596-11.74
			c-0.654-0.201-1.309-0.403-1.963-0.605c-4.31,3.843-8.621,7.686-13.252,11.815c0.021-7.766,2.233-15.088,7.008-21.088
			c5.116-6.43,6.144-13.451,5.414-21.034c-0.814-8.454-1.889-16.89-3.1-25.297c-0.936-6.497-5.288-8.323-10.78-4.463
			c-2.085,1.465-3.555,3.805-6.221,6.764c0.571-4.022,0.384-7.296,1.553-9.98c2.375-5.452,4.944-10.984,8.459-15.722
			c2.721-3.666,3.687-7.05,3.256-11.411c-0.783-7.92-1.188-15.878-1.752-23.821c0.564,1.472,1.142,2.939,1.69,4.417
			c1.846,4.973,3.682,9.949,5.522,14.924c0.554-0.19,1.106-0.38,1.66-0.569c-1.263-9.688-2.411-19.391-3.851-29.051
			c-0.501-3.364-1.721-6.621-2.618-9.927c-0.333-5.422-0.756-10.843-0.957-16.271c-0.163-4.365-0.057-8.739-0.07-13.202
			c3.146,0.01,5.775,4.18,3.517,9.568c-3.372,8.046,0.223,14.208,4.057,20.523c0.449,0.741,1.6,1.056,1.646,1.084
			c-0.125-8.036-0.045-16.036-0.438-24.012c-0.31-6.296-1-12.463-6.29-17.233c-3.387-3.054-4.123-7.352-2.958-12.007
			c0.445-1.774,0.1-4.028-0.619-5.758c-1.996-4.806-0.719-9.537,3.64-11.509c0.922,2.944-5.273,6.147,0.343,9.152
			c1.286-2.876,1.618-6.719,7.649-5.251c-2.58,2.999-4.593,5.338-6.604,7.676c5.409,6.198,15.755,9.564,11.22,20.861
			c6.599,6.324,7.204,10.009,2.786,17.964c-2.717,4.893-2.689,9.835-0.634,14.908c1.274,3.144,2.258,6.438,3.856,9.403
			c0.649,1.204,2.586,1.713,3.937,2.539c0.687-0.266,1.372-0.533,2.059-0.799c-0.389-2.11-1.856-5.156-0.979-6.17
			c3.727-4.301,0.957-7.6-0.985-10.972c-2.583-4.484-0.679-7.637,2.573-11.215c-0.619,9.516,0.097,11.003,6.312,13.224
			c2.148-9.54,1.524-18.068-6.368-25.131c-5.68-5.083-7.574-12.025-5.632-19.153c1.338-4.908,3.115-9.335-0.086-14.151
			c4.723,3.415,4.379,8.088,3.454,12.693c-1.427,7.102,1.578,12.08,5.62,15.386c0.555-9.647,1.152-20.023,1.749-30.398
			c1.241,9.211-1.2,19.106,6.074,27.595c1.119-2.204,1.906-3.753,2.811-5.534c2.418,4.781-6.502,10.577,1.041,13.746
			c0.839,5.571,1.603,10.646,2.578,17.126c1.252-1.97,2.401-2.933,2.373-3.859c-0.503-16.065-1.15-32.125-1.764-48.109
			c-1.851-0.496-3.463-0.928-5.076-1.36c0.079-0.264,0.158-0.527,0.237-0.791c1.447-0.055,2.896-0.109,5.15-0.193
			c-0.215-1.891-0.481-3.522-0.575-5.164c-0.843-14.824-1.683-29.648-2.464-44.476c-0.376-7.121,3.198-10.176,10.205-8.785
			c1.897,0.377,3.751,0.974,7.357,1.928c-4.989-9.795,0.958-22.009-11.137-28.168c0.95,0.054,1.648,0.394,2.383,0.611
			c0.894,0.264,1.817,0.424,3.632,0.833c-11.402-46.075-19.012-92.748-47.995-132.192c-4.123,3.794-10.333,4.919-10.47,11.649
			c-0.043,2.126-0.869,5.182,0.188,6.15c1.371,1.256,4.264,0.852,6.767,1.198c-0.619,1.786-1.505,4.343-2.114,6.099
			c-2.822-0.494-6.56-2.338-8.562-1.181c-2.243,1.298-2.914,5.312-4.817,9.292c-0.209-4.458-0.354-7.537-0.517-10.995
			c4.923-2.858,4.91-3.078,0.303-7.967c-1.04-1.104-1.687-2.577-2.883-4.462c5.019,1.211,14.713-6.665,18.615-14.425
			C56.012,34.676,35.341,17.955,9.877,7.804c9.01,17.024,15.007,34.792,19.161,53.22c5.417,24.031,7.244,48.398,6.799,72.987
			c-0.03,1.66,0.628,4.28,1.766,4.845c4.271,2.122,8.872,3.575,14.046,5.545c0.98-2.386,3.171-6.415,2.688-6.766
			c-2.507-1.824-5.698-2.709-10.016-4.483c2.152-1.184,3.921-2.939,4.959-2.58c2.987,1.033,5.679,2.921,8.372,4.41
			c3.626-3.341,5.801-6.653,5.835-11.733c0.033-4.827,2.173-9.445,7.169-12.217c-1.819,4.41-3.638,8.82-5.457,13.229
			c0.783,0.301,1.565,0.602,2.348,0.902c3.004-8.456,6.008-16.913,9.035-25.429c1.51,0.586,2.587,1.003,4.991,1.936
			c-1.597-3.008-2.531-4.769-3.428-6.458c0.224-1.335,0.523-3.124,0.782-4.665c-2.474-0.314-4.037-0.513-5.417-0.688
			c2.294-2.042,4.133-3.677,6.29-5.595c0.567,2.818,1.141,5.658,1.727,8.571c1.232-0.069,2.416-0.137,5.001-0.283
			c-7.788,3.111-3.651,7.332-3.343,12.147c2.61-3.167,4.528-5.494,6.446-7.821c0.521,0.062,1.041,0.123,1.562,0.184
			c0.646,4.65,1.293,9.301,1.978,14.217c2.062-1.517,3.76-2.764,6.243-4.59c0.712,3.397,1.271,6.075,1.833,8.753
			c-0.313,0.108-0.627,0.216-0.941,0.325c-0.966-1.422-1.931-2.844-2.859-4.211c-4.674,2.394-6.171,4.746-1.894,8.774
			c1.518,1.428,1.57,4.411,2.486,7.301c-3.589,0.548-6.422,0.981-9.255,1.415c-0.073-0.579-0.147-1.158-0.223-1.736
			c1.25-0.393,2.501-0.785,4.061-1.275c-0.757-2.438-1.477-4.755-2.62-8.44c-5.024,5.794-9.296,10.72-13.462,15.523
			c6.27,8.219,7.522,8.762,11.43,5.4c-0.634-1.597-1.265-3.187-1.896-4.776c0.405-0.27,0.811-0.54,1.217-0.809
			c1.303,1.51,2.605,3.021,3.903,4.525c8.846-4.254,11.064-3.696,12.244,3.272c-3.167-0.129-6.326-0.557-9.407-0.235
			c-1.18,0.124-3.164,2.024-3.101,3.005c0.369,5.674,1.24,11.314,2.088,18.147c2.537-2.778,4.28-4.903,6.249-6.793
			c2.995-2.876,6.314-2.707,7.546,1.097c1.534,4.742,2.227,9.937,2.201,14.932c-0.013,2.692-2.281,5.374-3.503,7.996
			c0.249-6.073,0.737-11.721,0.521-17.342c-0.052-1.321-2.334-3.24-3.875-3.576c-1.005-0.219-3.104,1.675-3.7,3.058
			c-1.563,3.628-2.571,7.495-3.829,11.356c-1.712-1.008-3.195-1.881-4.678-2.754c0.464-0.116,0.929-0.231,1.393-0.347
			c-0.721-5.784-1.441-11.568-2.162-17.352c-0.14-3.203-0.28-6.407-0.463-10.581c-3.524,2.237-6.014,3.816-8.297,5.265
			c-1.591-3.378-2.386-6.642-4.356-8.856c-2.535-2.846-1.962-4.977,0.008-7.376c3.995-4.868,8.062-9.676,12.628-15.141
			c-1.999-1.714-3.929-3.369-5.858-5.024c-0.406,0.395-0.812,0.79-1.217,1.184c-0.436-1.683-0.871-3.366-1.627-6.285
			c-1.237,2.331-1.996,3.684-2.686,5.071c-3.273,6.59-6.477,13.217-9.837,19.764c-0.644,1.253-1.711,2.888-2.871,3.172
			c-4.72,1.158-7.177,3.925-7.066,8.5c-1.029,0.051-2.051,0.102-3.072,0.152c0.355,2.023,0.117,4.462,1.188,5.981
			c2.271,3.225,5.124,6.072,7.954,8.854c0.93,0.915,2.527,1.15,3.819,1.697c-0.742,1.625-1.81,3.187-2.144,4.893
			c-0.439,2.243-0.578,4.63-0.33,6.898c0.22,2.007,1.146,3.938,1.76,5.902c-1.749,1.07-4.004,1.752-5.168,3.27
			c-10.818,14.115-10.761,14.157-8.759,31.839c0.375,3.311,1.034,6.625,1.016,9.935c-0.024,4.262,1.868,6.229,5.764,7.944
			c15.282,6.732,19.958,19.356,12.861,34.434c-2.177,4.625-5.521,8.69-8.041,13.174c-0.976,1.736-1.8,3.994-1.589,5.893
			c2.093,18.874,4.375,37.727,6.755,56.566c0.198,1.563,1.508,2.986,2.301,4.475c-0.543,0.473-1.505,0.898-1.565,1.426
			C69.78,349.424,69.436,353.918,69.042,358.407z M127.708,714.138c4.85-2.991,1.594-6.5,1.599-9.8
			c-0.775-0.016-1.552-0.03-2.327-0.046c0.297,3.277,0.595,6.556,0.893,9.834c-0.067,3.741-0.135,7.483-0.201,11.224
			c-0.276-3.292-0.552-6.584-0.836-9.977c-5.317,1.074-9.896,1.999-14.475,2.925c1.146,4.85,9.093,8.634,15.174,7.544
			c0.7,0.815,1.398,1.632,2.098,2.447c0.42-0.182,0.838-0.362,1.258-0.543c-0.121-3.871-0.096-7.754-0.488-11.597
			C130.326,715.397,128.636,714.807,127.708,714.138z M200.649,669.358c1.974-0.201,3.947-0.402,6.64-0.676
			c-1.761-1.76-2.627-3.237-3.881-3.729c-1.67-0.658-3.642-0.55-5.484-0.771c0.717,1.696,1.433,3.394,2.149,5.089
			c-0.638,0.414-1.276,0.829-3.04,1.973c5.722,0.763,10.305,1.374,14.891,1.985c0.139-0.547,0.275-1.094,0.414-1.641
			c-1.71-0.488-3.396-1.108-5.136-1.429C205.042,669.761,202.835,669.613,200.649,669.358z M88.588,514.632
			c-2.596,4.104-0.383,7.865,0.728,11.804c1.275-2.606,2.216-5.243,2.417-7.936c0.104-1.392-1.104-2.879-1.718-4.325
			c2.005-4.035,2.306-7.791-1.773-10.83c0.785-0.463,2.3-1.045,2.246-1.37c-0.74-4.522-1.696-9.011-2.6-13.507
			c0.034-2.673,0.068-5.347,0.103-8.02c-1.043,0.189-2.087,0.379-3.131,0.567c0.513,2.49,1.024,4.981,1.536,7.471
			c-0.028,4.593-0.108,9.186,0.007,13.774c0.009,0.381,1.343,0.729,2.07,1.091C84.866,507.149,86.583,510.893,88.588,514.632z
			 M82.243,439.064c0.444-2.186,0.887-4.372,1.383-6.811c-5.464-0.107-6.374,1.986-4.952,5.568c1.43,0.47,2.621,0.861,3.812,1.252
			c-7.538,2.32-0.751,7.354-3.434,11.534C85.282,447.532,85.889,443.923,82.243,439.064z M98.031,634.297
			c-1.644-0.754-3.289-1.509-5.676-2.603c0.659,2.312,1.018,4.18,1.764,5.875c0.295,0.671,1.766,1.531,2.163,1.315
			c1.219-0.66,2.176-1.803,3.235-2.757c-0.573-0.61-1.146-1.222-1.717-1.832c1.918-1.457,3.836-2.914,5.549-4.215
			c-3.144-2.326-5.544-4.103-8.081-5.979C92.304,628.585,95.649,631.321,98.031,634.297z M122.485,658.746
			c-0.763-1.172-1.483-3.314-2.297-3.35c-3.697-0.163-7.422,0.267-11.135,0.483c0.351,1.033,0.453,2.752,1.094,2.983
			c3.381,1.224,6.898,2.073,10.562,3.107c0.591-1.157,1.181-2.312,1.771-3.452c-0.061,1.746-0.12,3.492-0.206,5.948
			c1.443-0.163,3.847-0.241,3.861-0.466c0.182-2.992,0.028-6.007-0.073-10.48C124.262,656.15,123.373,657.447,122.485,658.746z
			 M168.125,705.007c1.1-1.98,2.199-3.96,3.374-6.075c-3.51-1.013-6.14-1.772-8.721-2.517c-2.623,5.116-2.623,5.116,1.705,7.737
			c-1.519-0.194-3.036-0.389-4.751-0.608c-0.387,1.806-1.144,3.452-0.963,4.987c0.205,1.751,0.811,4.262,2.033,4.883
			c1.593,0.809,5.339,0.738,5.741-0.105C167.715,710.849,167.684,707.815,168.125,705.007z M125.329,694.206
			c-0.227,1.867-0.454,3.735-0.733,6.028c5.187-2.118,5.628-5.075,2.377-10.539c-0.314,0.73-0.562,1.303-0.81,1.876
			c-0.609-0.751-1.46-2.247-1.792-2.14c-4.323,1.402-8.596,2.979-12.797,4.715c-0.293,0.121-0.319,2.317,0.196,2.741
			C117.086,701.268,121.99,700.238,125.329,694.206z M121.452,680.399c0.008-1.236,0.015-2.474,0.021-3.711
			c3.217-3.852,2.941-7.208-0.832-10.117c-4.227-3.259-10.651-4.764-11.99-2.811c-1.444,2.109,0.861,11.241,3.239,12.829
			c-2.754,1.865-1.164,2.72,0.81,3.486c-1.211,1.577-2.974,3.015-3.42,4.784c-0.255,1.014,1.757,3.759,2.526,3.675
			c3.82-0.414,7.841-0.957,11.21-2.627C124.434,685.207,125.398,681.332,121.452,680.399z M119.58,452.456
			c-1.279,3.616-2.56,7.232-3.84,10.848c-0.323,3.318-0.437,6.674-1.027,9.941c-0.646,3.57-1.736,7.06-2.938,11.777
			c-6.199-11.474-13.582-21.799-6.446-35.247c-0.999,0.834-1.999,1.668-2.998,2.501c-0.171-0.145-0.341-0.289-0.511-0.434
			c2.227-3.986,4.453-7.973,6.814-12.201c-1.683-0.843-3.101-1.553-5.564-2.787c7.938,1.437,10.079,0.027,10.598-5.963
			c0.071-0.814-0.033-1.646-0.057-2.47c0.252-0.002,0.505-0.004,0.758-0.005c2.768-1.986,6.501-3.397,8.097-6.08
			c3.083-5.184,5.007-11.065,7.323-16.693c1.339-3.254-0.221-4.548-3.282-3.851c-2.744,0.623-5.356,1.824-7.453,2.567
			c0.93-3.565,1.939-7.439,2.95-11.313c-0.555-0.203-1.108-0.406-1.662-0.609c-1.311,1.037-2.621,2.074-4.814,3.81
			c2.175-5.23,3.946-9.488,5.636-13.55c-3.442-0.783-6.926-0.78-7.267-1.814c-0.783-2.376-0.334-5.316,0.188-7.912
			c0.38-1.891,1.924-3.521,2.51-5.405c1.295-4.165,2.313-8.417,3.444-12.633c-0.524-0.172-1.048-0.344-1.571-0.517
			c-0.587,1.127-1.164,2.259-1.761,3.381c-3.269,6.145-6.101,12.578-9.915,18.364c-5.97,9.055-14.006,14.281-26.245,10.265
			c7.354,6.336,13.187,2.723,19.652-1.927c-8.123,10.395-19.468,11.746-26.451,2.469c0.951,11.443,1.785,21.493,2.619,31.542
			c0.486-0.021,0.974-0.041,1.46-0.062c1.902-3.557,2.998-8.226,5.936-10.354c2.875-2.083,7.677-2.224,11.531-1.922
			c1.805,0.141,4.472,3.135,4.829,5.172c0.874,4.981,0.631,10.16,0.853,15.643c-0.265,0.042,0.547-0.086,0.972-0.152
			c-2.073,1.494-5.172,2.648-6.211,4.798c-0.937,1.939,0.383,4.968,0.723,7.632c-5.677,1.902-5.62,1.909-6.419,8.276
			c-0.121,0.961-0.849,2.263-1.657,2.648c-4.573,2.185-6.988,7.226-6.373,10.632c0.684,3.784-0.907,7.314,0.275,10.782
			c0.78,2.286,1.863,4.467,2.812,6.695c2.545-1.263,6.107-0.488,7.03-4.87c0.534-2.533,3.104-4.637,4.758-6.935
			c-5.062,9.766-5.062,9.766,0.351,15.724c-0.205,1.088-0.41,2.175-0.605,3.209c-0.688-0.374-1.406-0.765-2.358-1.281
			c1.44,4.694,2.736,8.919,4.167,13.58c0.976-1.681,1.612-2.776,2.248-3.87c-2.093,8.398-3.819,16.91-6.389,25.16
			c-2.211,7.096-5.533,13.747-4.529,21.606c2.337,18.327,4.321,36.7,6.447,55.056c0.199,1.721,0.388,3.442,0.607,5.392
			c4.396-2.725,5.484-9.861,3.326-15.317c-0.955-2.414-1.724-5.7-0.831-7.873c1.548-3.771,4.454-6.987,7.101-10.892
			c0.315,4.919-0.175,9.065,1.079,12.594c0.804,2.26,4.178,3.605,6.399,5.361c1.504-1.996,3.707-3.79,4.354-6.032
			c1.029-3.564,1.02-7.427,1.535-11.904c2.741,3.615,5.031,6.635,7.498,9.889c0.361-5.964,0.856-11.418,0.932-16.88
			c0.026-1.824-0.939-3.692-1.589-5.493c-2.085-5.781-4.235-11.541-6.516-17.734c3.212-0.587,4.95-0.903,6.338-1.156
			c-1.015-5.299-1.99-10.395-2.966-15.489c0.556-0.354,1.111-0.707,1.667-1.06c-3.056-1.56-6.111-3.121-9.167-4.682
			c-0.429,0.42-0.858,0.838-1.287,1.257c0.604,5.01,1.207,10.021,1.838,15.259c-7.438-6.134-11.105-20.134-7.876-29.244
			c6.807-0.259,11.159-5.546,10.668-12.166c-0.392-5.251-1.095-10.861,0.296-15.758c1.48-5.207,0.464-8.1-3.887-10.461
			c2.206,1.011,4.412,2.021,7.437,3.407c-0.262-5.223,2.281-9.816-1.312-14.107c1.463-1.333,3.023-2.573,4.368-4.016
			c5.051-5.42,4.668-7.023-2.263-9.967c-0.448-0.19-0.961-0.227-1.444-0.335c0.153-4.269,1.877-7.313,6.083-9.012
			c1.149-0.465,5.09-1.743,0.923-4.068c0.96-0.562,2.498-0.915,2.789-1.72c2.907-8.031,9.639-12.434,16.858-17.728
			c-3.68,0.412-6.438,0.73-9.198,1.028c-8.714,0.94-11.39,3.352-13.204,11.769c-0.641,2.975-0.473,5.504,2.925,6.665
			c-1.468,0.044-3.068,0.491-4.38,0.061c-5.074-1.664-7.592,1.286-8.856,5.242c-0.888,2.773-0.487,5.96-0.673,9.158
			c2.239-0.385,3.637-0.626,5.037-0.866C115.795,442.975,115.725,443.749,119.58,452.456z M63.064,635.129
			c0.832,2.096,1.664,4.189,2.544,6.408c8.517-6.38,11.752-14.559,8.738-24.565c-0.981,3.926-1.961,7.853-2.59,10.365
			c-1.858,0.223-3.964-0.135-4.609,0.673c-1.691,2.121-2.748,4.752-4.055,7.246c-5.971,3.545-8.292,9.702-5.615,14.924
			c4.464-3.477,8.241-7.212,5.338-13.608C62.649,636.205,62.97,635.616,63.064,635.129z M180.06,608.134
			c-2.598-0.125-5.196-0.251-8.673-0.419c1.433,1.432,2.662,2.661,3.893,3.893c-5.747,0.188-6.15-0.81-4.521-12.523
			c-2.592,1.384-4.697,2.407-6.703,3.6c-4.533,2.696-7.346,1.829-9.388-3.016c-0.432-1.028-0.807-2.079-0.755-1.944
			c-4.298-1.06-7.643-1.885-11.277-2.781c-0.574,4.068-0.018,7.137,4.675,8.285c2.02,0.494,3.849,1.764,5.76,2.679
			c-1.434-0.242-2.904-0.812-4.29-0.65c-2.108,0.244-4.157,0.993-6.231,1.527c0.142,0.67,0.284,1.342,0.427,2.011
			c3.467-0.547,6.932-1.093,10.397-1.639c-0.175-0.424-0.35-0.846-0.525-1.27c5.738,2.782,11.478,5.564,17.71,8.588
			c0.865,4.963,2.107,10.502,7.835,13.479c0.677,5.212,5.846,11.122,10.739,11.4c1.581,0.09,4.27-1.614,4.743-3.058
			c1.489-4.549,2.169-9.363,3.169-14.111c-9.376,1.076-9.366,1.095-16.457,5.263c-0.674,0.396-1.581,0.396-2.379,0.581
			c7.961-4.133,2.674-11.526,4.809-17.031c-3.009,0.238-5.468,0.433-7.912,0.624c3.336-1.393,6.672-2.786,10.008-4.179
			c-0.204-0.402-0.408-0.806-0.613-1.209c-1.555,0.642-3.111,1.284-4.666,1.927c1.673-1.564,4.584-2.972,4.805-4.72
			c0.922-7.308,1.036-14.717,1.446-22.091c-0.384-0.03-0.768-0.06-1.151-0.089c-0.945,2.093-1.89,4.186-2.836,6.277
			c-0.345-0.683-0.688-1.365-1.055-2.092c-7.229,7.118-10.172,15.33-6.861,20.882c1.313-2.61,2.426-4.818,3.537-7.026
			c-0.382,2.5-0.765,4.999-1.187,7.757C177.699,607.419,178.865,607.779,180.06,608.134z M130.215,753.222
			c-2.556,0.6-5.35,0.74-7.606,1.914c-3.021,1.57-7.708,2.504-6.9,7.244c0.815,4.795,5.756,4.166,9.168,5.448
			c3.882,1.457,5.336-0.663,5.496-4.001c0.172-3.607-0.084-7.236-0.153-10.864c0.72,4.97,1.438,9.939,2.132,14.747
			c1.667-0.58,2.221-8.746,0.054-17.914C131.458,751.278,130.837,752.25,130.215,753.222z M192.477,668.097
			c1.919-6.984,7.135-7.846,13.431-6.703c0.096-0.391,0.192-0.78,0.289-1.17c-2.974-1.64-5.947-3.279-8.921-4.918
			c0.861-1.476,2.27-2.877,2.481-4.441c0.62-4.586,2.957-7.229,8.377-8.209c-1.643-1.644-2.919-2.92-4.194-4.195
			c0.83-0.46,2.176-0.74,2.41-1.409c1.568-4.483,2.901-9.049,4.3-13.555c-2.249,0.377-4.559,0.592-6.768,1.182
			c-2.137,0.572-5.575,1.099-5.98,2.406c-1.092,3.528-3.779,7.957,1.572,10.771c-6.031-2.845-7.734,5.229-12.959,4.358
			c1.707,4.719-0.584,10.371,5.332,12.49c-1.803-0.613-3.604-1.225-5.523-1.876c-0.868,2.226-1.36,4.6-2.61,6.465
			c-2.685,4.001-1.901,6.562,2.545,8.165c-6.434,0.449-10.257,3.871-12.041,10.771c7.564,2.197,15.022-0.54,19.1-7.224
			C193.672,670.423,192.787,669.084,192.477,668.097z M121.271,375.738c-0.642-2.981-1.282-5.963-1.924-8.945
			c-0.229-0.028-0.457-0.057-0.685-0.086c-0.555,4.213-1.108,8.425-1.663,12.638c0.435,0.25,0.869,0.501,1.303,0.753
			c0.885-0.973,1.77-1.945,2.655-2.917c0.686,1.762,1.371,3.524,2.646,6.798c1.252-3.975,2.164-6.678,2.955-9.417
			c1.338-4.638,1.878-9.666,4.033-13.875c5.958-11.639,12.58-22.937,18.928-34.376c0.552-0.996,1.015-2.041,1.519-3.062
			c-11.537,9.546-20.393,21.146-28.345,33.419c-1.784,2.753-4.68,6.581,0.217,9.696c0.16,0.102-0.031,0.806-0.108,1.22
			C122.298,370.303,121.783,373.02,121.271,375.738z M126.857,631.365c-0.551,0.071-1.101,0.144-1.651,0.214
			c1.414,7.735,2.868,15.464,4.215,23.21c0.368,2.11,0.742,4.307,0.55,6.411c-0.923,10.082-0.935,20.031,2.029,29.884
			c0.722,2.397-0.008,5.231-0.082,7.864c-0.073,2.591-0.465,5.216-0.183,7.766c0.723,6.526,1.769,13.017,2.637,19.528
			c0.696,5.236-2.141,10.947,2.208,15.733c0.57,0.628,0.535,1.899,0.597,2.883c0.275,4.408,1.05,8.884,0.573,13.217
			c-0.588,5.357,2.822,6.308,6.261,5.906c3.04-0.354,6.51-1.887,8.675-4.028c9.599-9.494,12.031-24.391,5.065-35.93
			c-4.438-7.353-4.665-14.407-1.113-21.282c6.474-12.532,13.855-24.595,20.819-36.877c2.206-3.89,4.731-7.68,6.33-11.816
			c3.692-9.561,1.291-13.967-8.784-16.093c-3.958-0.834-4.629-2.677-4.276-6.26c0.318-3.242,0.409-6.738-0.471-9.815
			c-1.962-6.868-9.544-10.758-16.744-9.189c-6.867,1.497-9.646,5.502-8.751,13.652c1.694,15.455-3.844,28.374-13.812,40.08
			C134.152,654.121,135.008,642.149,126.857,631.365z M113.914,630.457c1.892-1.893,3.311-3.496,4.922-4.873
			c1.716-1.466,3.432-3.369,5.469-3.939c5.492-1.534,9.49,0.605,11.783,6.469c1.686,4.311,2.515,8.957,3.726,13.453
			c0.568,0.007,1.136,0.016,1.704,0.023c0.248-6.177,1.035-12.403,0.486-18.509c-0.232-2.6-3.138-5.049-5.05-7.387
			c-2.233-2.729-3.44-4.924-0.076-7.998c1.771-1.617,2.252-4.645,3.551-7.564c-5.293,2.517-9.317,4.43-14.266,6.782
			c1.711,1.02,3.647,2.173,6.417,3.821c-6.171-1.448-8.197-0.082-10.603,5.017c-0.744,1.578-3.09,2.398-4.703,3.565
			c-0.422-1.587-1.11-3.155-1.216-4.764c-0.292-4.449,0.033-8.97-0.602-13.359c-0.527-3.641,0.052-5.562,2.956-5.129
			c1.294-2.887,1.88-5.548,3.432-7.399c5.015-5.986,5.005-9.389-0.897-15.089c-0.143,5.782-0.382,12.181-7.063,13.416
			c-7.319,1.353-7.667-6.133-10.231-10.617c-3.544,5.185-3.214,5.981,0.075,10.322c1.351,1.783,2.057,5.091,1.365,7.133
			c-0.959,2.832-3.282,5.34-5.428,7.602c-4.875,5.137-4.977,5.04-11.383,0.868c0.107,2.712,0.063,6.693,1.687,7.563
			c3.442,1.844,2.753,3.655,1.482,5.944c-1.754,3.165-3.736,6.204-5.615,9.3c-0.841,1.386-2.105,2.684-2.432,4.184
			c-2.084,9.592,4.105,23.69,12.921,29.136c-0.693-1.891-1.475-3.359-1.764-4.919c-1.321-7.137-3.519-14.305-3.484-21.452
			c0.042-9.084,5.66-13.115,15.814-12.177c-2.07-2.903-3.619-5.075-5.437-7.623c-1.36,1.919-2.06,2.905-2.97,4.188
			c-1.252-7.422,3.003-17.095,8.597-20.464c2.935-1.769,4.2-0.125,4.373,2.376c0.405,5.92,0.457,11.864,0.653,17.851
			c-2.079,0.401-3.5,0.676-4.916,0.95C105.683,623.507,111.689,625.588,113.914,630.457z M36.74,640.516
			c2.72,0.178,5.333,0.35,8.087,0.528c-4.098,1.365-8.936,1.613-11.369,4.158c-2.631,2.751-3.015,7.648-4.605,12.265
			c2.584-0.056,3.903-0.086,4.261-0.093c-1.852,1.996-4.609,4.022-6.026,6.746c-1.69,3.251-1.963,7.054,1.735,10.281
			c5.597-3.662,10.842-11.244,18.18-2.166c0.436-0.195,0.871-0.392,1.307-0.588c-0.106-3.321-0.213-6.642-0.36-11.229
			c-1.866,1.865-2.394,2.394-2.922,2.922c3.075-3.644-0.945-5.539-1.779-7.325c2.461-0.87,4.694-1.658,6.11-2.159
			c0.158,1.927,0.364,4.455,0.57,6.982c0.573-0.025,1.146-0.05,1.718-0.073c2.649-3.645,5.559-7.924,2.878-12.125
			c-2.473-3.88-0.896-5.474,1.396-7.936c2.846-3.056,6.092-6.142,4.5-10.478c4.094-1.856,7.336-5.305,7.687-8.876
			c0.317-3.221-3.591-5.494-7.519-5.827c-5.991-0.507-9.758,2.232-11.64,8.719c1.532,0.383,3.083,0.77,4.633,1.156
			C45.656,625.597,39.354,630.867,36.74,640.516z M35.268,706.916c-0.45-0.272-1.146-0.696-2.493-1.513
			c2.232,9.129,13.201,6.566,15.42,13.799c2.069-0.607,3.697-1.084,5.02-1.473c-1.51,2.096-3.885,3.885-3.938,5.738
			c-0.162,5.725-2.334,9.283-8.998,10.109c3.789,2.702,7.002,2.777,9.943,0.884c5.541-3.568,6.378-9.446,6.513-15.354
			c0.124-5.38-1.507-10.064-6.877-12.999c-1.174,1.493-2.208,2.809-3.244,4.126c-0.457-0.335-0.914-0.667-1.372-1.001
			c1.405-1.805,2.809-3.607,4.951-6.359c-7.179,3.606-3.754-3.881-7.727-5.024C40.32,700.551,37.91,703.587,35.268,706.916z
			 M30.044,689.498c5.651-0.903,6.538-10.375,14.082-6.478c0.326-1.646,0.545-3.281,0.983-4.856
			c0.998-3.603-0.623-6.447-3.473-7.825c-1.494-0.722-4.15,0.438-6.062,1.26c-1.621,0.697-2.923,2.132-4.373,3.231
			C24.636,679.802,24.343,683.987,30.044,689.498z M40.257,683.482c-2.141,1.782-3.587,3.343-5.341,4.385
			c-7.967,4.734-8.102,4.732-4.273,12.602c0.754,1.552,2.649,2.549,3.392,3.229c3.095-3.095,5.402-5.407,7.715-7.712
			C45.901,691.847,44.975,686.009,40.257,683.482z M146.74,375.636c-11.266,0.768-26.157,13.391-20.693,25.287
			C133.07,392.341,139.752,384.174,146.74,375.636z M124.497,713.785c0.685-0.875,1.093-1.165,1.06-1.389
			c-0.443-2.974-0.169-6.43-1.646-8.775c-1.65-2.62-10.847-3.683-12.324-2.281c-0.426,0.405-0.842,1.105-0.819,1.652
			c0.149,3.64,0.353,7.282,0.715,10.905c0.064,0.646,1.022,1.781,1.442,1.727C116.989,715.096,121.027,714.363,124.497,713.785z
			 M142.831,807.725c-2.206-0.609-2.976-1.053-3.698-0.986c-5.352,0.496-10.743,0.839-16.004,1.851
			c-1.217,0.233-2.974,3.046-2.739,4.359c0.552,3.099,2.871,5.391,6.359,4.723c4.686-0.898,9.431-1.921,13.806-3.727
			C141.872,813.401,142.039,810.07,142.831,807.725z M173.588,751.876c0.24-4.548,1.064-9.401,0.478-14.078
			c-0.256-2.03-3.196-4.853-5.307-5.25c-2.977-0.56-5.004,1.835-5.025,5.364c-0.021,3.259-0.407,6.514-0.573,8.913
			C166.725,748.552,169.738,750.012,173.588,751.876z M201.562,599.639c-0.418-0.329-0.833-0.657-1.25-0.987
			c-4.364,4.936-8.993,9.665-13.01,14.869c-3.257,4.22,0.918,5.689,3.704,7.016c3.607,1.717,5.994-0.746,6.833-3.65
			C199.468,611.25,200.362,605.4,201.562,599.639z M164.657,769.597c1.927-3.176,3.952-6.335,5.797-9.598
			c2.539-4.489-0.381-6.75-3.832-8.545c-3.308-1.719-5.058,0.615-6.621,2.962c-1.336,2.003-2.535,4.1-3.46,5.608
			C159.271,763.246,161.661,766.065,164.657,769.597z M162.732,729.584c4.479,0.632,7.662,1.079,10.561,1.488
			c3.771-5.937-0.754-9.835-3.802-13.28c-4.461-0.25-8.199-0.46-11.827-0.662C159.655,722.024,161.369,726.235,162.732,729.584z
			 M158,767.669c-3.46-3.625-8.676-3.976-11.491-1.115c-2.292,2.329-2.527,7.351-0.45,9.569c2.959,3.159,7.583,2.685,11.892-1.091
			C161.107,772.266,159.471,769.811,158,767.669z M69.275,602.855c-1.82-1.82-3.068-3.068-4.288-4.288
			c-2.424,4.736-4.694,9.174-6.625,12.944c4.614,2.923,8.712,5.521,13.144,8.328c1.208-1.717,2.475-3.517,3.229-4.585
			c-3.308-4-6.076-7.349-8.976-10.856C67.224,603.755,68.047,603.394,69.275,602.855z M220.889,649.148
			c-5.557-1.437-10.914-2.82-16.532-4.272c-0.454,0.856-0.923,1.698-1.352,2.559c-1.726,3.461-1.149,6.933,1.993,8.694
			c1.687,0.946,4.933,0.193,6.97-0.817C215.132,653.741,217.865,651.298,220.889,649.148z M126.631,771.974
			c-3.546,0.125-7.092,0.251-10.592,0.375c-0.245,7.617,4.077,12.141,10.177,11.189c5.843-0.911,6.495-2.489,3.091-7.337
			C128.368,774.865,127.553,773.439,126.631,771.974z M121.425,795.747c-9.263-2.915-12.813-8.911-12.25-17.942
			c-6.557,8.179-2.662,19.202,8.661,24.955C118.906,800.667,119.977,798.575,121.425,795.747z M179.282,682.093
			c-7.951-2.865-7.952-2.866-12.175,4.106c-0.431,0.71-0.826,1.441-1.259,2.149c-2.182,3.58,0.42,4.819,3.016,5.724
			c2.565,0.894,5.501,2.344,6.86-1.855C176.793,688.917,178.018,685.667,179.282,682.093z M122.624,795.229
			c-1.144,3.316-2.079,6.026-3.538,10.258c5.014-0.259,9.265-0.222,13.384-0.934c0.719-0.124,1.632-3.609,1.189-5.186
			C131.941,793.25,126.389,797.021,122.624,795.229z M113.605,724.551c-0.613,0.189-1.228,0.38-1.841,0.57
			c0.848,3.269,0.676,8.065,2.771,9.459c3.453,2.3,8.371,2.398,13.521,3.629c-0.353-2.396,0.002-4.942-0.95-5.602
			C122.807,729.63,118.14,727.187,113.605,724.551z M141.001,789.574c-0.358,0.374-0.719,0.747-1.078,1.121
			c-2.086,1.556-4.173,3.11-6.084,4.534c0.599,3.14,1.252,6.561,2.168,11.366c3.412-3.141,7.309-5.72,9.516-9.332
			C146.254,796.068,142.632,792.212,141.001,789.574z M163.785,581.941c-2.328,3.949-5.017,8.324-7.459,12.833
			c-0.422,0.78-0.085,2.277,0.393,3.188c2.207,4.218,3.376,4.169,9.308,0.125C165.234,592.378,164.468,586.867,163.785,581.941z
			 M128.267,537.229c-1.207,15.779-0.195,17.381,12.321,20.058C136.548,550.709,132.613,544.302,128.267,537.229z M132.335,507.119
			c-5.327,2.005-6.838,3.759-5.322,6.308c2.321,3.901,11.168,6.033,15.291,3.661C139.091,513.875,135.882,510.666,132.335,507.119z
			 M127.573,827.703c2.001,7.548,3.882,14.648,5.764,21.749c0.308-0.067,0.616-0.135,0.924-0.202
			c0.345-7.473,0.69-14.945,1.053-22.791C132.361,826.933,130.251,827.272,127.573,827.703z M142.677,430.277
			c-9.962-1.515-14.559,0.48-16.135,6.441C134.45,440.829,137.626,433.176,142.677,430.277z M138.772,823.451
			c0.456-1.771,1.395-3.358,0.952-4.292c-0.409-0.865-2.359-1.549-3.518-1.403c-2.932,0.37-5.875,1.039-8.656,2.029
			c-1.13,0.402-2.659,2.053-2.547,2.955c0.129,1.046,1.937,2.754,2.887,2.673C131.446,825.111,134.95,824.194,138.772,823.451z
			 M113.07,739.613c0.965,4.887,1.664,8.431,2.521,12.771c3.937-2.036,6.975-3.607,10.818-5.598
			C121.79,744.303,118.193,742.368,113.07,739.613z M141.784,497.657c-3.523-1.562-6.5-2.88-9.476-4.203
			c-0.301-0.133-0.639-0.466-0.88-0.402c-1.433,0.373-2.843,0.836-4.262,1.269c0.342,1.11,0.396,2.46,1.079,3.291
			C130.636,500.515,137.668,500.66,141.784,497.657z M138.348,537.146c-3.093-4.865-5.575-8.771-8.277-13.022
			C125.225,530.807,128.372,535.836,138.348,537.146z M83.47,313.157c-4.507,6.105-0.874,11.715,0.03,17.415
			C84.025,324.853,89.387,319.132,83.47,313.157z M89.554,409.917c7.707,5.695,4.031,13.258,4.477,20.053
			c1.159-3.014,1.943-6.088,2.713-9.167c0.452-1.811,0.88-3.628,1.318-5.442C94.669,414.564,94.766,408.124,89.554,409.917z
			 M75.546,292.061c1.236,5.302,2.18,9.776,7.063,12.247C84.691,298.125,83.077,295.233,75.546,292.061z M109.807,469.359
			c1.4-6.6,2.8-13.199,4.2-19.799c-0.462-0.085-0.925-0.171-1.388-0.256C109.744,455.682,106.331,461.955,109.807,469.359z
			 M66.844,403.8c-2.154,4.921-3.816,8.719-5.479,12.517C69.045,413.678,70.502,410.302,66.844,403.8z M80.534,417.357
			c-0.942,4.548-1.885,9.096-2.858,13.798C83.862,430.542,84.315,428.857,80.534,417.357z M84.397,620.868
			c4.889-2.271,6.586-5.52,4.142-8.505c-0.736-0.898-2.37-1.062-3.593-1.562c-0.365,1.08-1.025,2.157-1.035,3.239
			C83.893,616.327,84.216,618.615,84.397,620.868z M118.561,326.687c-3.674,4.365-2.872,13.942,0.91,20.175
			C119.171,340.229,118.894,334.05,118.561,326.687z M109.227,611.935c3.3-5.007-1.504-8.35-1.637-12.821
			C102.779,604.404,103.067,606.683,109.227,611.935z M136.117,632.477c-0.704,0.037-1.408,0.073-2.113,0.109
			c-3.297,4.694,1.452,8.493,1.306,12.838c0.722-0.071,1.443-0.145,2.165-0.216C137.022,640.964,136.569,636.721,136.117,632.477z
			 M118.104,785.82c6.102,4.658,12.868,6.039,12.637-0.562C126.688,785.437,122.64,785.618,118.104,785.82z M112.687,329.983
			c2.715-4.537,1.121-13.694-3.426-17.277C110.447,318.687,111.585,324.426,112.687,329.983z M128.59,587.142
			c-0.519-0.268-1.038-0.535-1.558-0.803c-1.672,1.672-3.535,3.204-4.921,5.085c-0.553,0.749-0.054,2.272-0.033,3.442
			c1.222-0.058,3.224,0.309,3.526-0.248C126.876,592.276,127.64,589.659,128.59,587.142z M133.443,781.444
			c3.948-3.621,0.595-7.275,1.127-11.432c-2.158,0.696-3.556,1.147-4.821,1.556C131.016,774.956,132.075,777.783,133.443,781.444z
			 M112.579,504.163c-2.664,5.995-3.05,12.106,0.461,19.371C112.867,516.237,112.721,510.2,112.579,504.163z M136.142,789.712
			c-5.074,1.019-9.589,1.926-13.932,2.798C127.258,795.639,132.406,794.787,136.142,789.712z M128.168,739.636
			c-4.101-0.847-7.756-1.601-11.411-2.355C121.271,742.489,125.463,743.219,128.168,739.636z M89.269,101.298
			c-5.364,5.216-5.061,6.908,1.548,10.051C90.302,108.009,89.838,104.998,89.269,101.298z M74.011,471.862
			c-0.405-0.089-0.811-0.178-1.216-0.267c-1.045,2.925-2.09,5.849-3.134,8.774c0.383,0.143,0.766,0.286,1.149,0.43
			c1.679-1.217,3.355-2.436,5.052-3.666C75.185,475.205,74.598,473.533,74.011,471.862z M96.981,620.91
			c2.829,6.491,4.212,7.155,9.962,4.228C103.233,623.563,100.636,622.46,96.981,620.91z M135.376,448.407
			c-4.32-3.916-6.045-0.256-8.245,2.337C129.53,452.284,129.53,452.284,135.376,448.407z M134.231,463.582
			c-0.079-0.84-0.157-1.68-0.236-2.52c-1.983,0.058-3.967,0.115-5.951,0.173c0.134,1.38,0.269,2.761,0.402,4.141
			C130.374,464.777,132.302,464.179,134.231,463.582z M143.25,767.461c-3.612,4.65-2.628,10.495,1.089,11.008
			C143.977,774.803,143.587,770.861,143.25,767.461z M128.181,473.023c-0.223,0.479-0.446,0.96-0.669,1.439
			c1.035,1.036,2.502,3.127,3.027,2.913c1.659-0.678,2.966-2.22,4.408-3.427c-0.237-0.412-0.474-0.822-0.711-1.233
			C132.218,472.817,130.2,472.919,128.181,473.023z"/>
		<path fill-rule="evenodd" clip-rule="evenodd" fill="#FFFFFF" d="M69.042,358.407c0.394-4.489,0.737-8.983,1.246-13.458
			c0.06-0.528,1.022-0.953,1.565-1.426l-0.15,0.011c0.892,3.306,2.111,6.563,2.612,9.927c1.439,9.66,2.588,19.363,3.851,29.051
			c-0.554,0.189-1.106,0.379-1.66,0.569c-1.84-4.975-3.676-9.951-5.522-14.924c-0.548-1.478-1.126-2.944-1.69-4.417
			C69.21,361.962,69.127,360.185,69.042,358.407z"/>
		<path fill-rule="evenodd" clip-rule="evenodd" fill="#FFFFFF" d="M71.854,343.522c-0.793-1.488-2.104-2.911-2.301-4.475
			c-2.38-18.839-4.662-37.692-6.755-56.566c-0.21-1.898,0.614-4.157,1.589-5.893c2.521-4.483,5.864-8.548,8.041-13.174
			c7.097-15.078,2.421-27.702-12.861-34.434c-3.896-1.716-5.788-3.682-5.764-7.944c0.019-3.31-0.641-6.624-1.016-9.935
			c-2.002-17.683-2.059-17.724,8.759-31.839c1.164-1.518,3.419-2.2,5.168-3.27c2.125,0.71,4.25,1.421,6.375,2.131
			c1.138,2.628,2.276,5.255,3.923,9.056c-0.153-3.945-0.054-6.827-0.425-9.646c-0.538-4.09,0.521-6.281,5.147-6.05
			c3.453,0.173,4.581-1.452,2.36-4.531c0.604-3.484,1.208-6.968,1.812-10.453c-0.716-0.02-1.43-0.04-2.146-0.06
			c1.871-1.518,3.741-3.036,5.611-4.553l-0.192,0.034c0.721,5.784,1.441,11.568,2.162,17.352c-0.464,0.116-0.929,0.231-1.393,0.347
			c1.482,0.873,2.966,1.746,4.678,2.754c1.258-3.861,2.266-7.728,3.829-11.356c0.596-1.383,2.695-3.277,3.7-3.058
			c1.541,0.336,3.823,2.255,3.875,3.576c0.217,5.621-0.271,11.27-0.521,17.342c1.222-2.623,3.49-5.304,3.503-7.996
			c0.025-4.995-0.667-10.189-2.201-14.932c-1.231-3.804-4.551-3.973-7.546-1.097c-1.969,1.89-3.712,4.015-6.249,6.793
			c-0.848-6.833-1.719-12.474-2.088-18.147c-0.063-0.981,1.921-2.882,3.101-3.005c3.081-0.322,6.24,0.105,9.407,0.235
			c-1.18-6.968-3.398-7.527-12.244-3.272c-1.298-1.504-2.601-3.015-3.903-4.525c-0.406,0.27-0.812,0.54-1.217,0.809
			c0.631,1.589,1.262,3.179,1.896,4.776c-3.907,3.361-5.16,2.819-11.43-5.4c4.166-4.804,8.438-9.729,13.462-15.523
			c1.144,3.685,1.863,6.001,2.62,8.44c-1.56,0.49-2.811,0.882-4.061,1.275c0.075,0.579,0.149,1.158,0.223,1.736
			c2.833-0.433,5.666-0.866,9.255-1.415c-0.916-2.89-0.969-5.873-2.486-7.301c-4.277-4.028-2.78-6.38,1.894-8.774
			c0.929,1.368,1.894,2.79,2.859,4.211c0.314-0.108,0.628-0.217,0.941-0.325c-0.562-2.678-1.121-5.355-1.833-8.753
			c-2.483,1.826-4.181,3.074-6.243,4.59c-0.685-4.917-1.331-9.567-1.978-14.217c-0.521-0.062-1.041-0.123-1.562-0.184
			c-1.918,2.327-3.836,4.654-6.446,7.821c-0.309-4.815-4.445-9.036,3.343-12.147c-2.585,0.146-3.769,0.214-5.001,0.283
			c-0.586-2.914-1.159-5.753-1.727-8.571c-2.156,1.918-3.995,3.554-6.29,5.595c1.38,0.175,2.944,0.374,5.417,0.688
			c-0.259,1.541-0.559,3.329-0.782,4.665c0.896,1.69,1.831,3.45,3.428,6.458c-2.404-0.933-3.481-1.35-4.991-1.936
			c-3.026,8.517-6.03,16.973-9.035,25.429c-0.783-0.301-1.565-0.602-2.348-0.902c1.819-4.41,3.638-8.819,5.457-13.229
			c-4.997,2.772-7.137,7.391-7.169,12.217c-0.034,5.08-2.209,8.392-5.835,11.733c-2.693-1.488-5.385-3.376-8.372-4.41
			c-1.038-0.359-2.808,1.396-4.959,2.58c4.318,1.773,7.509,2.659,10.016,4.483c0.483,0.351-1.708,4.38-2.688,6.766
			c-5.174-1.97-9.776-3.423-14.046-5.545c-1.137-0.565-1.796-3.185-1.766-4.845c0.445-24.588-1.382-48.956-6.799-72.987
			C24.884,42.595,18.888,24.828,9.877,7.804c25.464,10.151,46.134,26.872,64.958,46.042c-3.902,7.76-13.596,15.636-18.615,14.425
			c1.196,1.885,1.843,3.358,2.883,4.462c4.606,4.89,4.62,5.109-0.303,7.967c0.163,3.458,0.307,6.537,0.517,10.995
			c1.904-3.979,2.575-7.994,4.817-9.292c2.002-1.158,5.741,0.687,8.562,1.181c0.609-1.756,1.495-4.312,2.114-6.099
			c-2.503-0.347-5.396,0.058-6.767-1.198c-1.056-0.968-0.23-4.024-0.188-6.15c0.137-6.73,6.348-7.855,10.47-11.649
			c28.983,39.444,36.593,86.117,47.995,132.192c-1.814-0.409-2.738-0.57-3.632-0.833c-0.734-0.217-1.433-0.557-2.383-0.611
			c12.095,6.159,6.147,18.373,11.137,28.168c-3.606-0.955-5.46-1.551-7.357-1.928c-7.007-1.391-10.581,1.665-10.205,8.785
			c0.781,14.828,1.621,29.652,2.464,44.476c0.094,1.642,0.36,3.273,0.575,5.164c-2.255,0.084-3.703,0.139-5.15,0.193
			c-0.079,0.263-0.158,0.527-0.237,0.791c1.613,0.432,3.226,0.865,5.076,1.36c0.613,15.984,1.261,32.044,1.764,48.109
			c0.028,0.926-1.121,1.89-2.373,3.859c-0.976-6.48-1.739-11.555-2.578-17.126c-7.543-3.168,1.377-8.965-1.041-13.746
			c-0.904,1.781-1.691,3.33-2.811,5.534c-7.274-8.489-4.833-18.383-6.074-27.595c-0.597,10.375-1.194,20.75-1.749,30.398
			c-4.042-3.306-7.047-8.284-5.62-15.386c0.925-4.604,1.269-9.278-3.454-12.693c3.201,4.816,1.424,9.243,0.086,14.151
			c-1.942,7.127-0.048,14.07,5.632,19.153c7.893,7.063,8.517,15.591,6.368,25.131c-6.216-2.221-6.932-3.708-6.312-13.224
			c-3.252,3.578-5.156,6.73-2.573,11.215c1.942,3.373,4.712,6.671,0.985,10.972c-0.878,1.014,0.59,4.06,0.979,6.17
			c-0.687,0.267-1.372,0.533-2.059,0.799c-1.351-0.825-3.287-1.334-3.937-2.539c-1.599-2.965-2.582-6.259-3.856-9.403
			c-2.056-5.073-2.083-10.015,0.634-14.908c4.418-7.955,3.812-11.641-2.786-17.964c4.535-11.296-5.811-14.663-11.22-20.861
			c2.011-2.338,4.023-4.677,6.604-7.676c-6.031-1.467-6.363,2.375-7.649,5.251c-5.616-3.005,0.579-6.208-0.343-9.152
			c-4.359,1.973-5.636,6.703-3.64,11.509c0.719,1.73,1.063,3.983,0.619,5.758c-1.164,4.655-0.428,8.953,2.958,12.007
			c5.29,4.77,5.98,10.937,6.29,17.233c0.394,7.976,0.313,15.976,0.438,24.012c-0.046-0.028-1.196-0.343-1.646-1.084
			c-3.833-6.314-7.428-12.477-4.057-20.523c2.258-5.389-0.371-9.558-3.517-9.568c0.013,4.463-0.093,8.837,0.07,13.202
			c0.201,5.428,0.624,10.849,0.957,16.271C71.704,343.533,71.854,343.522,71.854,343.522z M90.603,181.585
			c-0.119-1.802-0.238-3.605-0.433-6.548c-2.567,2.19-6.523,4.128-6.382,5.697c0.549,6.073-3.723,9.581-6.012,14.103
			c-1.192,2.356-2.715,4.545-4.089,6.81c0.427,0.382,0.855,0.765,1.282,1.147c6.261-5.109,12.521-10.219,18.78-15.328
			c0.501,0.336,1.003,0.672,1.504,1.009c-0.68,1.529-1.076,3.289-2.092,4.546c-3.557,4.402-7.315,8.641-11.019,12.923
			c-4.524,5.233-4.533,5.225-10.746,1.138c0.416-3.713,3.242-8.193-1.856-10.48c-1.486-0.667-4.607,0.837-6.197,2.235
			c-2.123,1.867-3.039,4.602-1.273,6.287c2.268-1.616,4.932-4.425,5.766-3.959c4.828,2.701-0.812,4.965-0.95,7.55
			c3.246,1.986,6.352,3.886,9.458,5.787c-0.137,0.088-0.272,0.176-0.409,0.264c2.463,0.766,4.925,1.533,8.101,2.522
			c-4.501,5.139-8.027,9.167-11.554,13.194c0.215,0.163,0.43,0.327,0.645,0.49c6.06-6.06,12.119-12.119,18.18-18.179
			c-6.326,1.717-6.326,1.717-8.822-1.043c4.717-1.442,9.032-2.761,13.454-4.112c0.181-1.275,0.403-2.846,0.623-4.396
			c7.276-0.473,6.981,3.285,5.101,8.518c1.897-2.195,4.273-5.871,3.734-6.364c-2.85-2.611-6.434-4.422-10.629-7.053
			c-0.675,3.64-1.077,5.813-1.501,8.099c-2.605,0.124-4.967,0.237-8.451,0.403c4.436-4.436,8.069-8.07,11.703-11.704
			c3.548-3.548,7.096-7.096,10.758-10.757c-5.167-1.041-9.49-1.912-13.812-2.783C92.509,181.596,91.556,181.59,90.603,181.585z
			 M91.308,245.122c-3.688,4.436-6.859,8.249-10.029,12.062c0.311,0.35,0.621,0.699,0.933,1.049
			c3.123-0.204,6.245-0.407,10.247-0.668c-3.109,4.181-5.559,7.476-8.104,10.9c6.142-0.642,11.429-1.195,16.717-1.748
			c0.021-0.377,0.042-0.753,0.063-1.13c-3.081-0.602-6.163-1.204-9.368-1.831c2.524-6.991,7.536-6.031,13.201-4.602
			c-1.523-1.522-3.046-3.045-4.532-4.532c0.839-1.239,1.507-2.225,1.805-2.665c-3.782,0.257-7.729,0.526-11.676,0.794
			c-0.106-0.566-0.212-1.131-0.318-1.696c2.446-2.125,4.893-4.25,8.085-7.023c-3.585-0.644-6.334-1.138-9.083-1.633
			c-0.126-0.448-0.252-0.896-0.378-1.344c3.881-2.015,7.835-3.901,11.626-6.074c6.01-3.445,6.554-8.9,1.26-12.758
			c-4.116-3-8.296-1.695-12.153,0.648c-3.692,2.243-4.745,5.731-3.942,9.807c0.822-0.865,0.778-2.311,1.471-2.919
			c2-1.758,4.168-3.447,6.55-4.574c0.749-0.354,3.511,1.46,3.429,1.763c-0.607,2.248-1.203,4.843-2.735,6.43
			c-4.074,4.221-8.616,7.988-13.641,12.542C84.516,245.634,87.674,245.396,91.308,245.122z M45.103,60.141
			c1.637,3.708,3.159,6.557,4.158,9.58c1.031,3.12,1.554,6.409,2.299,9.624c0.52-0.104,1.04-0.207,1.559-0.31
			c-0.692-5.493-1.383-10.985-2.11-16.756c3.421-0.281,6.336-0.52,10.407-0.854c-5.433-5.433-10.168-10.168-14.903-14.903
			c-0.303,0.197-0.606,0.394-0.909,0.591c0.707,4.003,1.414,8.006,2.106,11.926C46.3,59.634,45.177,60.109,45.103,60.141z
			 M55.148,106.804c-0.088-0.311-0.175-0.622-0.262-0.932c-5.442,1.893-10.885,3.786-16.808,5.846
			c3.215,4.294,5.486,8.043,2.851,13.207c-1.032,2.021,0.113,5.153,0.267,7.779c0.5,0.024,1.001,0.048,1.502,0.072
			c0.81-3.103,2.312-6.221,2.237-9.301c-0.077-3.207-1.676-6.376-2.967-10.784c2.374,1.907,3.938,3.165,6.466,5.196
			c-0.685-2.991-1.131-4.937-1.625-7.096C49.556,109.478,52.352,108.14,55.148,106.804z M36.916,81.063
			c2.645,1.059,4.865,1.948,7.085,2.836c0.309-0.327,0.617-0.654,0.926-0.981c-2.038-2.418-4.075-4.836-6.113-7.253
			c-0.444,0.295-0.888,0.59-1.332,0.885C37.305,77.959,37.128,79.368,36.916,81.063z M36.156,69.407
			c-0.425,0.13-0.851,0.26-1.276,0.39c-0.008,1.562-0.634,3.863,0.13,4.505c1.017,0.853,3.119,0.413,4.754,0.528
			c0.122-0.483,0.243-0.966,0.365-1.449C38.805,72.056,37.481,70.731,36.156,69.407z"/>
		<path fill-rule="evenodd" clip-rule="evenodd" fill="#FFFFFF" d="M97.234,482.219c-5.413-5.958-5.413-5.958-0.351-15.724
			c-1.653,2.298-4.224,4.401-4.758,6.935c-0.923,4.382-4.485,3.607-7.03,4.87c-0.948-2.229-2.031-4.409-2.812-6.695
			c-1.183-3.468,0.408-6.998-0.275-10.782c-0.615-3.406,1.8-8.447,6.373-10.632c0.809-0.386,1.536-1.688,1.657-2.648
			c0.799-6.367,0.742-6.374,6.419-8.276c-0.34-2.664-1.659-5.692-0.723-7.632c1.039-2.149,4.138-3.304,6.211-4.798
			c-0.425,0.066-1.236,0.194-0.972,0.152c-0.222-5.482,0.021-10.661-0.853-15.643c-0.357-2.037-3.024-5.032-4.829-5.172
			c-3.854-0.301-8.656-0.161-11.531,1.922c-2.938,2.128-4.033,6.797-5.936,10.354c-0.486,0.021-0.974,0.041-1.46,0.062
			c-0.834-10.049-1.668-20.099-2.619-31.542c6.983,9.276,18.328,7.925,26.451-2.469c-6.466,4.65-12.299,8.263-19.652,1.927
			c12.239,4.016,20.275-1.21,26.245-10.265c3.814-5.786,6.646-12.219,9.915-18.364c0.597-1.122,1.174-2.254,1.761-3.381
			c0.523,0.172,1.047,0.344,1.571,0.517c-1.131,4.217-2.149,8.469-3.444,12.633c-0.586,1.884-2.13,3.514-2.51,5.405
			c-0.521,2.596-0.971,5.536-0.188,7.912c0.341,1.034,3.824,1.031,7.267,1.814c-1.689,4.062-3.461,8.32-5.636,13.55
			c2.193-1.735,3.504-2.772,4.814-3.81c0.554,0.203,1.107,0.406,1.662,0.609c-1.011,3.874-2.021,7.749-2.95,11.313
			c2.097-0.743,4.709-1.944,7.453-2.567c3.062-0.697,4.621,0.597,3.282,3.851c-2.316,5.628-4.24,11.509-7.323,16.693
			c-1.596,2.683-5.329,4.093-8.097,6.08c0.525-5.174,1.051-10.349,1.51-14.87c-3.55-1.494-5.987-2.521-8.423-3.546
			c6.463,5.377,6.463,5.377,5.499,8.775c-1.335-1.335-2.63-2.63-4.792-4.792c2.077,4.138,3.577,7.126,5.096,10.15
			c-1.306,0.03-2.533,0.06-3.846,0.09c1.662,1.662,2.931,2.93,4.198,4.198c0.023,0.823,0.128,1.655,0.057,2.47
			c-0.519,5.99-2.659,7.399-10.598,5.963c2.464,1.234,3.882,1.944,5.564,2.787c-2.361,4.229-4.588,8.215-6.814,12.201
			c0.17,0.145,0.34,0.289,0.511,0.434c0.999-0.833,1.999-1.667,2.998-2.501c-7.136,13.448,0.247,23.773,6.446,35.247
			c1.201-4.718,2.291-8.207,2.938-11.777c0.591-3.268,0.704-6.623,1.029-9.938c0.002,0.004-0.01-0.025-0.01-0.025
			c4.353,2.368,5.369,5.261,3.889,10.468c-1.391,4.896-0.688,10.507-0.296,15.758c0.491,6.62-3.861,11.907-10.668,12.166
			c-3.229,9.11,0.438,23.11,7.876,29.244c-0.631-5.238-1.234-10.249-1.838-15.259c0.429-0.419,0.858-0.837,1.287-1.257
			c3.056,1.561,6.111,3.122,9.167,4.682c-0.556,0.353-1.111,0.706-1.667,1.06c0.976,5.095,1.951,10.19,2.966,15.489
			c-1.388,0.253-3.126,0.569-6.338,1.156c2.28,6.193,4.431,11.953,6.516,17.734c0.649,1.801,1.615,3.669,1.589,5.493
			c-0.075,5.462-0.57,10.916-0.932,16.88c-2.467-3.254-4.757-6.273-7.498-9.889c-0.516,4.478-0.506,8.34-1.535,11.904
			c-0.646,2.242-2.85,4.036-4.354,6.032c-2.222-1.756-5.596-3.102-6.399-5.361c-1.254-3.528-0.764-7.675-1.079-12.594
			c-2.646,3.904-5.553,7.12-7.101,10.892c-0.893,2.173-0.124,5.459,0.831,7.873c2.158,5.456,1.07,12.593-3.326,15.317
			c-0.22-1.949-0.408-3.671-0.607-5.392c-2.126-18.355-4.11-36.729-6.447-55.056c-1.004-7.859,2.318-14.511,4.529-21.606
			c2.569-8.25,4.296-16.762,6.389-25.16C102.209,489.185,101.226,485.255,97.234,482.219z M106.858,521.371
			c0.217-0.087,0.434-0.174,0.65-0.261c-0.591-1.917-1.182-3.834-1.868-6.062c-8.325,8.28-8.333,35.341-0.119,41.217
			c4.545-4.588,3.211-10.287,3.504-15.97c-2.695,0.541-4.896,0.984-7.096,1.427c-0.209-0.424-0.418-0.848-0.626-1.271
			c1.634-0.824,3.267-1.649,5.653-2.854c-2.082-0.276-3.661-0.485-5.39-0.715c-1.28-6.431,4.315-3.393,6.743-5.286
			c-2.268-0.287-4.535-0.574-6.803-0.861c-0.096-0.531-0.191-1.062-0.287-1.593c2.099-0.616,4.196-1.233,6.897-2.027
			c-2.051-0.699-3.747-1.276-6.014-2.049c0.577-2.271,1.145-4.5,2.038-8.015C105.596,519.363,106.227,520.367,106.858,521.371z
			 M108.79,384.792c-0.361-0.012-0.722-0.024-1.083-0.036c-1.272,1.951-2.442,3.979-3.846,5.831
			c-1.332,1.759-4.211,3.439-4.088,4.966c0.214,2.638,2.226,5.129,3.687,8.093C105.496,396.44,107.143,390.616,108.79,384.792z
			 M104.776,489.269c-0.351,0.621-0.702,1.242-1.054,1.862c2.152,1.206,4.303,2.412,6.456,3.618
			c0.914-2.163,1.829-4.326,2.743-6.488c-0.424-0.162-0.849-0.323-1.272-0.485c-0.565,1.114-1.132,2.229-1.679,3.307
			C107.994,490.393,106.384,489.832,104.776,489.269z"/>
		<path fill-rule="evenodd" clip-rule="evenodd" fill="#FFFFFF" d="M126.857,631.365c8.151,10.784,7.295,22.756,4.091,35.058
			c9.969-11.706,15.507-24.625,13.812-40.08c-0.895-8.15,1.884-12.155,8.751-13.652c7.2-1.568,14.782,2.321,16.744,9.189
			c0.88,3.077,0.789,6.573,0.471,9.815c-0.353,3.583,0.318,5.426,4.276,6.26c10.075,2.126,12.477,6.532,8.784,16.093
			c-1.599,4.137-4.124,7.927-6.33,11.816c-6.964,12.282-14.346,24.345-20.819,36.877c-3.552,6.875-3.325,13.93,1.113,21.282
			c6.966,11.539,4.533,26.436-5.065,35.93c-2.165,2.142-5.635,3.674-8.675,4.028c-3.438,0.401-6.849-0.549-6.261-5.906
			c0.477-4.333-0.298-8.809-0.573-13.217c-0.062-0.983-0.026-2.255-0.597-2.883c-4.349-4.786-1.512-10.497-2.208-15.733
			c-0.868-6.512-1.914-13.002-2.637-19.528c-0.282-2.55,0.109-5.175,0.183-7.766c0.074-2.633,0.804-5.467,0.082-7.864
			c-2.964-9.853-2.952-19.802-2.029-29.884c0.192-2.104-0.182-4.301-0.55-6.411c-1.347-7.746-2.801-15.475-4.215-23.21
			C125.756,631.508,126.306,631.436,126.857,631.365z"/>
		<path fill-rule="evenodd" clip-rule="evenodd" fill="#FFFFFF" d="M113.914,630.457c-2.225-4.868-8.23-6.949-6.722-13.299
			c1.416-0.274,2.837-0.549,4.916-0.95c-0.196-5.986-0.248-11.931-0.653-17.851c-0.173-2.501-1.438-4.145-4.373-2.376
			c-5.594,3.369-9.849,13.042-8.597,20.464c0.91-1.283,1.609-2.27,2.97-4.188c1.817,2.548,3.366,4.72,5.437,7.623
			c-10.154-0.938-15.772,3.093-15.814,12.177c-0.034,7.147,2.163,14.315,3.484,21.452c0.289,1.56,1.07,3.028,1.764,4.919
			c-8.815-5.445-15.005-19.544-12.921-29.136c0.326-1.5,1.591-2.798,2.432-4.184c1.879-3.096,3.861-6.135,5.615-9.3
			c1.271-2.289,1.96-4.101-1.482-5.944c-1.623-0.87-1.579-4.852-1.687-7.563c6.406,4.172,6.508,4.269,11.383-0.868
			c2.146-2.262,4.469-4.77,5.428-7.602c0.691-2.042-0.015-5.35-1.365-7.133c-3.289-4.341-3.619-5.138-0.075-10.322
			c2.564,4.484,2.912,11.97,10.231,10.617c6.682-1.235,6.921-7.634,7.063-13.416c5.902,5.7,5.912,9.103,0.897,15.089
			c-1.552,1.852-2.138,4.513-3.432,7.399c-2.904-0.433-3.483,1.488-2.956,5.129c0.635,4.39,0.31,8.91,0.602,13.359
			c0.105,1.608,0.794,3.177,1.216,4.764c1.613-1.167,3.959-1.987,4.703-3.565c2.405-5.099,4.432-6.465,10.603-5.017
			c-2.77-1.648-4.706-2.802-6.417-3.821c4.948-2.353,8.973-4.266,14.266-6.782c-1.299,2.92-1.78,5.947-3.551,7.564
			c-3.364,3.074-2.157,5.27,0.076,7.998c1.912,2.338,4.817,4.787,5.05,7.387c0.549,6.105-0.238,12.332-0.486,18.509
			c-0.568-0.008-1.136-0.017-1.704-0.023c-1.211-4.496-2.04-9.143-3.726-13.453c-2.293-5.863-6.291-8.003-11.783-6.469
			c-2.037,0.57-3.753,2.474-5.469,3.939C117.224,626.96,115.805,628.564,113.914,630.457z"/>
		<path fill-rule="evenodd" clip-rule="evenodd" fill="#FFFFFF" d="M36.74,640.516c2.614-9.649,8.916-14.919,16.843-15.116
			c-1.55-0.387-3.101-0.773-4.633-1.156c1.881-6.486,5.648-9.226,11.64-8.719c3.928,0.333,7.836,2.606,7.519,5.827
			c-0.35,3.571-3.593,7.02-7.687,8.876c1.591,4.336-1.654,7.422-4.5,10.478c-2.292,2.462-3.869,4.056-1.396,7.936
			c2.68,4.201-0.229,8.48-2.878,12.125c-0.573,0.023-1.145,0.048-1.718,0.073c-0.206-2.527-0.412-5.056-0.57-6.982
			c-1.416,0.501-3.649,1.289-6.11,2.159c0.833,1.786,4.854,3.682,1.779,7.325c0.528-0.528,1.057-1.057,2.922-2.922
			c0.147,4.587,0.254,7.907,0.36,11.229c-0.436,0.196-0.872,0.393-1.307,0.588c-7.338-9.078-12.583-1.496-18.18,2.166
			c-3.699-3.228-3.426-7.03-1.735-10.281c1.417-2.724,4.175-4.75,6.026-6.746c-0.358,0.007-1.676,0.037-4.261,0.093
			c1.59-4.616,1.974-9.514,4.605-12.265c2.434-2.545,7.271-2.793,11.369-4.158C42.073,640.866,39.46,640.694,36.74,640.516z"/>
		<path fill-rule="evenodd" clip-rule="evenodd" fill="#FFFFFF" d="M67.427,158.3c-1.292-0.546-2.889-0.782-3.819-1.697
			c-2.831-2.782-5.683-5.629-7.954-8.854c-1.07-1.519-0.833-3.958-1.188-5.981c1.021-0.051,2.042-0.101,3.072-0.152
			c-0.111-4.575,2.346-7.342,7.066-8.5c1.16-0.285,2.228-1.919,2.871-3.172c3.36-6.546,6.563-13.173,9.837-19.764
			c0.689-1.388,1.448-2.74,2.686-5.071c0.756,2.919,1.191,4.602,1.627,6.285c0.405-0.395,0.811-0.79,1.217-1.184
			c1.93,1.655,3.859,3.31,5.858,5.024c-4.565,5.464-8.633,10.273-12.628,15.141c-1.97,2.4-2.543,4.53-0.008,7.376
			c1.971,2.214,2.766,5.478,4.356,8.856c2.283-1.449,4.772-3.028,8.297-5.265c0.183,4.174,0.323,7.378,0.463,10.581l0.192-0.034
			c-2.729,0.004-5.456,0.008-8.184,0.013c-0.005-0.499-0.008-0.997-0.013-1.495c0.976-0.638,1.952-1.276,2.387-1.56
			c-5.468-2.512-10.893-5.003-16.316-7.494c-0.205,0.415-0.409,0.83-0.614,1.246c3.247,1.872,6.494,3.744,10.541,6.077
			c-3.09,1.196-4.961,1.92-6.832,2.644c0.066,0.198,0.133,0.395,0.2,0.593c2.848-0.105,5.696-0.21,8.545-0.315
			c-0.153,0.28-0.307,0.56-0.46,0.839c-3.811,1.96-7.622,3.92-11.433,5.879L67.427,158.3z"/>
		<path fill-rule="evenodd" clip-rule="evenodd" fill="#FFFFFF" d="M153.076,605.907c-1.916-0.915-3.745-2.185-5.765-2.679
			c-4.692-1.148-5.249-4.217-4.675-8.285c3.635,0.896,6.979,1.722,11.277,2.781c-0.052-0.135,0.323,0.916,0.755,1.944
			c2.042,4.845,4.854,5.712,9.388,3.016c2.006-1.192,4.111-2.216,6.703-3.6c-1.63,11.714-1.227,12.712,4.531,12.522
			c0.01-0.002-0.2,0.019-0.2,0.019c2.459-0.195,4.918-0.39,7.927-0.628c-2.135,5.505,3.152,12.898-4.809,17.031l0.133-0.063
			c-5.676-2.989-6.918-8.528-7.783-13.491c-6.232-3.023-11.972-5.806-17.71-8.588L153.076,605.907z"/>
		<path fill-rule="evenodd" clip-rule="evenodd" fill="#FFFFFF" d="M121.271,375.738c0.512-2.718,1.027-5.435,1.53-8.154
			c0.077-0.415,0.269-1.119,0.108-1.22c-4.896-3.115-2.001-6.943-0.217-9.696c7.952-12.272,16.808-23.873,28.345-33.419
			c-0.504,1.022-0.967,2.067-1.519,3.062c-6.348,11.439-12.97,22.738-18.928,34.376c-2.155,4.209-2.695,9.238-4.033,13.875
			c-0.791,2.738-1.703,5.441-2.955,9.417c-1.274-3.274-1.96-5.036-2.646-6.798C121.062,376.7,121.167,376.219,121.271,375.738z"/>
		<path fill-rule="evenodd" clip-rule="evenodd" fill="#FFFFFF" d="M35.268,706.916c2.642-3.328,5.052-6.364,7.197-9.066
			c3.973,1.144,0.548,8.631,7.727,5.024c-2.142,2.752-3.545,4.555-4.951,6.359c0.458,0.334,0.915,0.666,1.372,1.001
			c1.035-1.317,2.07-2.633,3.244-4.126c5.37,2.935,7,7.619,6.877,12.999c-0.135,5.907-0.972,11.785-6.513,15.354
			c-2.941,1.894-6.154,1.818-9.943-0.884c6.664-0.826,8.836-4.385,8.998-10.109c0.053-1.854,2.428-3.643,3.938-5.738
			c-1.323,0.389-2.95,0.865-5.02,1.473c-2.219-7.232-13.188-4.67-15.42-13.799C34.122,706.219,34.818,706.643,35.268,706.916z"/>
		<path fill-rule="evenodd" clip-rule="evenodd" fill="#FFFFFF" d="M73.088,178.125c-2.125-0.71-4.25-1.421-6.375-2.131
			c-0.614-1.964-1.541-3.895-1.76-5.902c-0.248-2.269-0.11-4.655,0.33-6.898c0.334-1.706,1.402-3.267,2.144-4.893l-0.233,0.015
			c4.564-2.961,9.364,0.867,13.655-0.787c0.967,3.558,1.837,6.755,2.706,9.953c-1.186,0.815-2.297,2.172-3.571,2.348
			c-4.475,0.616-7.709,1.788-5.464,7.321C74.566,177.262,73.588,177.79,73.088,178.125z"/>
		<path fill-rule="evenodd" clip-rule="evenodd" fill="#FFFFFF" d="M30.044,689.498c-5.702-5.511-5.408-9.695,1.156-14.668
			c1.45-1.1,2.752-2.534,4.373-3.231c1.912-0.821,4.568-1.981,6.062-1.26c2.851,1.378,4.471,4.223,3.473,7.825
			c-0.438,1.575-0.657,3.211-0.983,4.856C36.583,679.123,35.696,688.594,30.044,689.498z"/>
		<path fill-rule="evenodd" clip-rule="evenodd" fill="#FFFFFF" d="M191.847,654.704c-5.916-2.119-3.625-7.771-5.332-12.49
			c5.225,0.871,6.928-7.203,12.948-4.362c1.484,0.2,2.98,0.404,4.477,0.609c1.275,1.275,2.552,2.552,4.194,4.195
			c-5.42,0.979-7.757,3.623-8.377,8.209c-0.212,1.564-1.62,2.966-2.481,4.441C195.467,655.105,193.657,654.905,191.847,654.704z"/>
		<path fill-rule="evenodd" clip-rule="evenodd" fill="#FFFFFF" d="M178.208,628.029c0.798-0.185,1.705-0.186,2.379-0.581
			c7.091-4.168,7.081-4.187,16.457-5.263c-1,4.748-1.68,9.562-3.169,14.111c-0.474,1.443-3.162,3.147-4.743,3.058
			c-4.894-0.278-10.062-6.188-10.766-11.395C178.341,627.965,178.208,628.029,178.208,628.029z"/>
		<path fill-rule="evenodd" clip-rule="evenodd" fill="#FFFFFF" d="M40.257,683.482c4.718,2.527,5.644,8.365,1.492,12.503
			c-2.313,2.305-4.62,4.617-7.715,7.712c-0.742-0.68-2.637-1.677-3.392-3.229c-3.829-7.869-3.693-7.867,4.273-12.602
			C36.669,686.825,38.116,685.264,40.257,683.482z"/>
		<path fill-rule="evenodd" clip-rule="evenodd" fill="#FFFFFF" d="M191.847,654.704c1.81,0.201,3.62,0.401,5.429,0.603
			c2.974,1.639,5.947,3.278,8.921,4.918c-0.097,0.39-0.193,0.779-0.289,1.17c-6.296-1.143-11.512-0.281-13.431,6.703
			c-2.074-0.213-4.146-0.427-6.219-0.64c-4.446-1.603-5.229-4.164-2.545-8.165c1.25-1.865,1.742-4.239,2.61-6.465
			C188.243,653.479,190.044,654.09,191.847,654.704z"/>
		<path fill-rule="evenodd" clip-rule="evenodd" fill="#FFFFFF" d="M146.74,375.636c-6.987,8.539-13.67,16.706-20.693,25.287
			C120.583,389.026,135.474,376.403,146.74,375.636z"/>
		<path fill-rule="evenodd" clip-rule="evenodd" fill="#FFFFFF" d="M124.497,713.785c-3.47,0.578-7.508,1.312-11.572,1.839
			c-0.42,0.055-1.378-1.08-1.442-1.727c-0.362-3.623-0.565-7.266-0.715-10.905c-0.022-0.547,0.394-1.247,0.819-1.652
			c1.478-1.401,10.674-0.339,12.324,2.281c1.477,2.346,1.202,5.802,1.646,8.775C125.589,712.62,125.181,712.91,124.497,713.785z"/>
		<path fill-rule="evenodd" clip-rule="evenodd" fill="#FFFFFF" d="M142.831,807.725c-0.792,2.345-0.959,5.676-2.276,6.22
			c-4.375,1.806-9.12,2.828-13.806,3.727c-3.488,0.668-5.808-1.624-6.359-4.723c-0.234-1.313,1.522-4.126,2.739-4.359
			c5.261-1.012,10.652-1.354,16.004-1.851C139.855,806.672,140.625,807.116,142.831,807.725z"/>
		<path fill-rule="evenodd" clip-rule="evenodd" fill="#FFFFFF" d="M130.219,752.971c0.069,3.62,0.325,7.249,0.153,10.856
			c-0.16,3.338-1.614,5.458-5.496,4.001c-3.412-1.282-8.353-0.653-9.168-5.448c-0.808-4.74,3.88-5.674,6.9-7.244
			c2.257-1.174,5.051-1.314,7.606-1.914L130.219,752.971z"/>
		<path fill-rule="evenodd" clip-rule="evenodd" fill="#FFFFFF" d="M173.588,751.876c-3.851-1.864-6.863-3.324-10.428-5.051
			c0.166-2.399,0.553-5.654,0.573-8.913c0.021-3.529,2.049-5.924,5.025-5.364c2.11,0.397,5.051,3.22,5.307,5.25
			C174.653,742.475,173.829,747.329,173.588,751.876z"/>
		<path fill-rule="evenodd" clip-rule="evenodd" fill="#FFFFFF" d="M111.889,676.589c-2.378-1.588-4.684-10.72-3.239-12.829
			c1.339-1.953,7.764-0.448,11.99,2.811c3.773,2.909,4.049,6.266,0.832,10.117C118.279,676.657,115.083,676.623,111.889,676.589z"/>
		<path fill-rule="evenodd" clip-rule="evenodd" fill="#FFFFFF" d="M129.696,425.204c-3.397-1.161-3.565-3.689-2.925-6.665
			c1.814-8.417,4.49-10.828,13.204-11.769c2.761-0.297,5.519-0.616,9.198-1.028c-7.22,5.294-13.951,9.697-16.858,17.728
			c-0.291,0.805-1.829,1.158-2.787,1.72C129.529,425.191,129.696,425.204,129.696,425.204z"/>
		<path fill-rule="evenodd" clip-rule="evenodd" fill="#FFFFFF" d="M201.562,599.639c-1.2,5.761-2.094,11.61-3.723,17.247
			c-0.839,2.904-3.226,5.367-6.833,3.65c-2.786-1.326-6.961-2.796-3.704-7.016c4.017-5.204,8.646-9.934,13.01-14.869
			C200.729,598.982,201.144,599.31,201.562,599.639z"/>
		<path fill-rule="evenodd" clip-rule="evenodd" fill="#FFFFFF" d="M164.657,769.597c-2.996-3.532-5.386-6.352-8.116-9.572
			c0.925-1.509,2.124-3.605,3.46-5.608c1.563-2.347,3.313-4.681,6.621-2.962c3.451,1.795,6.371,4.056,3.832,8.545
			C168.609,763.262,166.583,766.421,164.657,769.597z"/>
		<path fill-rule="evenodd" clip-rule="evenodd" fill="#FFFFFF" d="M162.732,729.584c-1.363-3.35-3.077-7.561-5.068-12.454
			c3.628,0.202,7.366,0.412,11.827,0.662c3.048,3.445,7.573,7.344,3.802,13.28C170.394,730.664,167.211,730.216,162.732,729.584z"/>
		<path fill-rule="evenodd" clip-rule="evenodd" fill="#FFFFFF" d="M158,767.669c1.472,2.142,3.107,4.597-0.05,7.363
			c-4.309,3.775-8.933,4.25-11.892,1.091c-2.077-2.219-1.842-7.24,0.45-9.569C149.324,763.694,154.54,764.044,158,767.669z"/>
		<path fill-rule="evenodd" clip-rule="evenodd" fill="#FFFFFF" d="M186.258,667.458c2.072,0.213,4.145,0.427,6.219,0.64
			c0.31,0.987,1.195,2.326,0.84,2.908c-4.077,6.684-11.535,9.421-19.1,7.224C176.001,671.329,179.825,667.907,186.258,667.458z"/>
		<path fill-rule="evenodd" clip-rule="evenodd" fill="#FFFFFF" d="M69.275,602.855c-1.229,0.539-2.051,0.9-3.516,1.543
			c2.9,3.508,5.668,6.856,8.976,10.856c-0.753,1.068-2.021,2.868-3.229,4.585c-4.432-2.808-8.53-5.405-13.144-8.328
			c1.93-3.771,4.201-8.208,6.625-12.944C66.207,599.787,67.455,601.035,69.275,602.855z"/>
		<path fill-rule="evenodd" clip-rule="evenodd" fill="#FFFFFF" d="M188.194,716.964c3.248-0.072,2.565-2.166,1.325-3.456
			c-1.66-1.723-3.903-2.881-6.13-4.445c2.412-2.82,5.552-4.761,9.106-2.073c3.132,2.369,3.082,5.835,1.131,9.397
			c-1.221,2.23-1.381,5.065-2.7,7.21c-1.325,2.157-3.323,4.038-5.394,5.529c-0.722,0.521-2.539-0.482-3.855-0.79
			c0.441-1.368,0.471-3.232,1.405-4.01c2.457-2.043,6.135-3.028,5.104-7.441C188.184,716.866,188.194,716.964,188.194,716.964z"/>
		<path fill-rule="evenodd" clip-rule="evenodd" fill="#FFFFFF" d="M203.94,638.46c-1.496-0.205-2.992-0.409-4.477-0.609
			c-5.341-2.81-2.653-7.238-1.562-10.767c0.405-1.308,3.844-1.834,5.98-2.406c2.209-0.59,4.519-0.805,6.768-1.182
			c-1.398,4.506-2.731,9.071-4.3,13.555C206.116,637.72,204.77,638,203.94,638.46z"/>
		<path fill-rule="evenodd" clip-rule="evenodd" fill="#FFFFFF" d="M220.889,649.148c-3.024,2.15-5.757,4.593-8.921,6.163
			c-2.037,1.011-5.283,1.764-6.97,0.817c-3.143-1.762-3.719-5.233-1.993-8.694c0.429-0.86,0.897-1.702,1.352-2.559
			C209.975,646.328,215.333,647.711,220.889,649.148z"/>
		<path fill-rule="evenodd" clip-rule="evenodd" fill="#FFFFFF" d="M126.631,771.974c0.922,1.465,1.736,2.891,2.676,4.228
			c3.404,4.848,2.752,6.426-3.091,7.337c-6.1,0.951-10.422-3.572-10.177-11.189C119.54,772.225,123.085,772.099,126.631,771.974z"/>
		<path fill-rule="evenodd" clip-rule="evenodd" fill="#FFFFFF" d="M121.425,795.747c-1.448,2.828-2.52,4.921-3.589,7.013
			c-11.323-5.753-15.218-16.776-8.661-24.955C108.612,786.835,112.163,792.832,121.425,795.747z"/>
		<path fill-rule="evenodd" clip-rule="evenodd" fill="#FFFFFF" d="M180.031,608.139c-1.166-0.36-2.332-0.72-3.499-1.08
			c0.422-2.758,0.805-5.257,1.187-7.757c1.46-3.921,2.919-7.843,4.379-11.764c0.946-2.092,1.891-4.185,2.836-6.277
			c0.384,0.029,0.768,0.059,1.151,0.089c-0.41,7.374-0.524,14.783-1.446,22.091c-0.221,1.748-3.132,3.155-4.805,4.72
			L180.031,608.139z"/>
		<path fill-rule="evenodd" clip-rule="evenodd" fill="#FFFFFF" d="M63.091,635.188c1.309-2.426,2.365-5.057,4.057-7.178
			c0.645-0.808,2.751-0.45,4.609-0.673c0.628-2.513,1.608-6.439,2.59-10.365c3.014,10.007-0.221,18.186-8.738,24.565
			c-0.881-2.219-1.713-4.312-2.544-6.408L63.091,635.188z"/>
		<path fill-rule="evenodd" clip-rule="evenodd" fill="#FFFFFF" d="M179.282,682.093c-1.264,3.574-2.488,6.823-3.558,10.124
			c-1.359,4.199-4.295,2.749-6.86,1.855c-2.596-0.904-5.197-2.144-3.016-5.724c0.433-0.708,0.828-1.439,1.259-2.149
			C171.33,679.227,171.331,679.228,179.282,682.093z"/>
		<path fill-rule="evenodd" clip-rule="evenodd" fill="#FFFFFF" d="M129.696,425.204c0,0-0.167-0.013-0.168-0.013
			c4.165,2.325,0.225,3.603-0.925,4.068c-4.206,1.698-5.93,4.743-6.083,9.012c-0.565,0.176-1.132,0.352-1.696,0.527
			c-1.4,0.24-2.798,0.481-5.037,0.866c0.186-3.198-0.215-6.385,0.673-9.158c1.265-3.956,3.782-6.905,8.856-5.242
			C126.627,425.695,128.228,425.248,129.696,425.204z"/>
		<path fill-rule="evenodd" clip-rule="evenodd" fill="#FFFFFF" d="M120.824,438.798c0.564-0.176,1.131-0.352,1.696-0.527
			c0.483,0.108,0.996,0.145,1.444,0.335c6.931,2.943,7.313,4.547,2.263,9.967c-1.345,1.442-2.905,2.683-4.368,4.016
			c-0.76-0.044-1.52-0.088-2.279-0.133C115.725,443.749,115.795,442.975,120.824,438.798z"/>
		<path fill-rule="evenodd" clip-rule="evenodd" fill="#FFFFFF" d="M122.624,795.229c3.766,1.792,9.317-1.979,11.035,4.139
			c0.442,1.576-0.471,5.062-1.189,5.186c-4.119,0.712-8.37,0.675-13.384,0.934C120.544,801.255,121.48,798.545,122.624,795.229z"/>
		<path fill-rule="evenodd" clip-rule="evenodd" fill="#FFFFFF" d="M127.535,725.842c-6.081,1.09-14.028-2.694-15.174-7.544
			c4.578-0.926,9.157-1.851,14.475-2.925c0.284,3.393,0.56,6.685,0.836,9.977C127.638,725.518,127.593,725.682,127.535,725.842z"/>
		<path fill-rule="evenodd" clip-rule="evenodd" fill="#FFFFFF" d="M113.605,724.551c4.535,2.636,9.202,5.079,13.5,8.057
			c0.952,0.659,0.598,3.205,0.95,5.602c-5.149-1.23-10.067-1.329-13.521-3.629c-2.095-1.394-1.923-6.19-2.771-9.459
			C112.377,724.931,112.992,724.741,113.605,724.551z"/>
		<path fill-rule="evenodd" clip-rule="evenodd" fill="#FFFFFF" d="M141.001,789.574c1.631,2.639,5.253,6.494,4.521,7.689
			c-2.207,3.612-6.104,6.191-9.516,9.332c-0.916-4.806-1.569-8.227-2.168-11.366c1.911-1.424,3.998-2.979,6.084-4.534
			C140.283,790.321,140.643,789.948,141.001,789.574z"/>
		<path fill-rule="evenodd" clip-rule="evenodd" fill="#FFFFFF" d="M163.785,581.941c0.684,4.926,1.449,10.438,2.241,16.146
			c-5.932,4.044-7.101,4.093-9.308-0.125c-0.478-0.911-0.814-2.408-0.393-3.188C158.768,590.265,161.457,585.89,163.785,581.941z"/>
		<path fill-rule="evenodd" clip-rule="evenodd" fill="#FFFFFF" d="M121.452,680.399c3.946,0.933,2.982,4.808,1.563,5.509
			c-3.369,1.67-7.39,2.213-11.21,2.627c-0.77,0.084-2.781-2.661-2.526-3.675c0.446-1.77,2.209-3.207,3.42-4.784
			C115.617,680.184,118.535,680.292,121.452,680.399z"/>
		<path fill-rule="evenodd" clip-rule="evenodd" fill="#FFFFFF" d="M125.329,694.206c-3.339,6.032-8.242,7.062-13.559,2.682
			c-0.516-0.424-0.489-2.62-0.196-2.741c4.201-1.735,8.474-3.312,12.797-4.715c0.332-0.107,1.183,1.389,1.793,2.139
			C125.885,692.448,125.607,693.327,125.329,694.206z"/>
		<path fill-rule="evenodd" clip-rule="evenodd" fill="#FFFFFF" d="M128.267,537.229c4.346,7.073,8.281,13.48,12.321,20.058
			C128.072,554.61,127.06,553.008,128.267,537.229z"/>
		<path fill-rule="evenodd" clip-rule="evenodd" fill="#FFFFFF" d="M132.335,507.119c3.547,3.547,6.756,6.756,9.969,9.969
			c-4.123,2.372-12.97,0.24-15.291-3.661C125.498,510.877,127.008,509.124,132.335,507.119z"/>
		<path fill-rule="evenodd" clip-rule="evenodd" fill="#FFFFFF" d="M127.573,827.703c2.679-0.431,4.788-0.77,7.74-1.244
			c-0.362,7.846-0.708,15.318-1.053,22.791c-0.308,0.067-0.616,0.135-0.924,0.202C131.455,842.351,129.574,835.25,127.573,827.703z"
			/>
		<path fill-rule="evenodd" clip-rule="evenodd" fill="#FFFFFF" d="M168.125,705.007c-0.44,2.808-0.409,5.842-1.581,8.302
			c-0.402,0.844-4.148,0.914-5.741,0.105c-1.223-0.621-1.828-3.132-2.033-4.883c-0.181-1.535,0.576-3.182,0.963-4.987
			c1.715,0.22,3.232,0.414,4.748,0.607C165.694,704.436,166.91,704.721,168.125,705.007z"/>
		<path fill-rule="evenodd" clip-rule="evenodd" fill="#FFFFFF" d="M142.677,430.277c-5.051,2.899-8.228,10.552-16.136,6.437
			C128.119,430.757,132.715,428.762,142.677,430.277z"/>
		<path fill-rule="evenodd" clip-rule="evenodd" fill="#FFFFFF" d="M138.772,823.451c-3.822,0.743-7.326,1.66-10.882,1.962
			c-0.95,0.081-2.758-1.627-2.887-2.673c-0.112-0.902,1.417-2.553,2.547-2.955c2.781-0.99,5.725-1.659,8.656-2.029
			c1.158-0.146,3.108,0.538,3.518,1.403C140.167,820.092,139.228,821.679,138.772,823.451z"/>
		<path fill-rule="evenodd" clip-rule="evenodd" fill="#FFFFFF" d="M182.097,587.539c-1.46,3.921-2.919,7.843-4.379,11.764
			c-1.111,2.208-2.224,4.416-3.537,7.026c-3.311-5.552-0.368-13.764,6.861-20.882C181.409,586.173,181.752,586.856,182.097,587.539z
			"/>
		<path fill-rule="evenodd" clip-rule="evenodd" fill="#FFFFFF" d="M119.58,452.456c0.76,0.045,1.52,0.089,2.279,0.133
			c3.593,4.291,1.05,8.885,1.312,14.107c-3.024-1.386-5.23-2.396-7.438-3.411c-0.001-0.003,0.011,0.026,0.009,0.022
			C117.02,459.688,118.3,456.072,119.58,452.456z"/>
		<path fill-rule="evenodd" clip-rule="evenodd" fill="#FFFFFF" d="M113.07,739.613c5.123,2.755,8.72,4.69,13.34,7.174
			c-3.844,1.99-6.882,3.562-10.818,5.598C114.734,748.043,114.035,744.5,113.07,739.613z"/>
		<path fill-rule="evenodd" clip-rule="evenodd" fill="#FFFFFF" d="M122.479,658.504c-0.59,1.154-1.18,2.309-1.771,3.466
			c-3.663-1.034-7.181-1.884-10.562-3.107c-0.641-0.231-0.743-1.95-1.094-2.983c3.713-0.217,7.438-0.646,11.135-0.483
			c0.813,0.035,1.534,2.178,2.297,3.35L122.479,658.504z"/>
		<path fill-rule="evenodd" clip-rule="evenodd" fill="#FFFFFF" d="M63.064,635.129c-0.094,0.486-0.415,1.075-0.248,1.442
			c2.902,6.396-0.874,10.132-5.343,13.607c-2.672-5.221-0.352-11.378,5.619-14.956C63.091,635.188,63.064,635.129,63.064,635.129z"
			/>
		<path fill-rule="evenodd" clip-rule="evenodd" fill="#FFFFFF" d="M141.784,497.657c-4.115,3.003-11.147,2.858-13.538-0.046
			c-0.684-0.831-0.737-2.181-1.079-3.291c1.419-0.433,2.829-0.896,4.262-1.269c0.241-0.063,0.579,0.27,0.88,0.402
			C135.284,494.777,138.26,496.095,141.784,497.657z"/>
		<path fill-rule="evenodd" clip-rule="evenodd" fill="#FFFFFF" d="M138.348,537.146c-9.977-1.31-13.123-6.339-8.277-13.022
			C132.773,528.375,135.255,532.281,138.348,537.146z"/>
		<path fill-rule="evenodd" clip-rule="evenodd" fill="#FFFFFF" d="M88.463,503.352c-0.718-0.362-2.052-0.71-2.061-1.091
			c-0.115-4.589-0.035-9.182-0.007-13.774c0.498-0.006,0.995-0.013,1.492-0.019c0.903,4.496,1.859,8.984,2.6,13.507
			c0.054,0.325-1.461,0.907-2.246,1.37L88.463,503.352z"/>
		<path fill-rule="evenodd" clip-rule="evenodd" fill="#FFFFFF" d="M168.125,705.007c-1.215-0.286-2.431-0.571-3.645-0.855
			c-4.325-2.62-4.325-2.62-1.702-7.736c2.581,0.744,5.211,1.504,8.721,2.517C170.324,701.047,169.224,703.027,168.125,705.007z"/>
		<path fill-rule="evenodd" clip-rule="evenodd" fill="#FFFFFF" d="M83.47,313.157c5.917,5.976,0.555,11.696,0.03,17.415
			C82.596,324.872,78.963,319.262,83.47,313.157z"/>
		<path fill-rule="evenodd" clip-rule="evenodd" fill="#FFFFFF" d="M97.234,482.219c3.992,3.036,4.976,6.966,3.451,11.638
			c-0.636,1.094-1.272,2.189-2.248,3.87c-1.431-4.661-2.727-8.886-4.167-13.58c0.952,0.517,1.67,0.907,2.358,1.281
			C96.824,484.394,97.029,483.307,97.234,482.219z"/>
		<path fill-rule="evenodd" clip-rule="evenodd" fill="#FFFFFF" d="M89.554,409.917c5.212-1.794,5.115,4.646,8.508,5.444
			c-0.438,1.814-0.866,3.631-1.318,5.442c-0.77,3.079-1.554,6.153-2.713,9.167C93.585,423.176,97.261,415.613,89.554,409.917z"/>
		<path fill-rule="evenodd" clip-rule="evenodd" fill="#FFFFFF" d="M75.546,292.061c7.53,3.173,9.145,6.064,7.063,12.247
			C77.726,301.837,76.783,297.363,75.546,292.061z"/>
		<path fill-rule="evenodd" clip-rule="evenodd" fill="#FFFFFF" d="M109.807,469.359c-3.477-7.404-0.063-13.677,2.812-20.055
			c0.463,0.085,0.926,0.171,1.388,0.256C112.607,456.16,111.208,462.759,109.807,469.359z"/>
		<path fill-rule="evenodd" clip-rule="evenodd" fill="#FFFFFF" d="M98.041,634.302c-2.392-2.981-5.736-5.717-2.772-10.199
			c2.537,1.876,4.938,3.652,8.081,5.979c-1.713,1.301-3.631,2.758-5.549,4.215L98.041,634.302z"/>
		<path fill-rule="evenodd" clip-rule="evenodd" fill="#FFFFFF" d="M66.844,403.8c3.658,6.502,2.201,9.878-5.479,12.517
			C63.028,412.519,64.69,408.721,66.844,403.8z"/>
		<path fill-rule="evenodd" clip-rule="evenodd" fill="#FFFFFF" d="M80.534,417.357c3.781,11.5,3.328,13.186-2.858,13.798
			C78.649,426.453,79.591,421.905,80.534,417.357z"/>
		<path fill-rule="evenodd" clip-rule="evenodd" fill="#FFFFFF" d="M84.397,620.868c-0.181-2.253-0.504-4.541-0.486-6.827
			c0.01-1.082,0.67-2.159,1.035-3.239c1.223,0.5,2.856,0.663,3.593,1.562C90.983,615.348,89.286,618.596,84.397,620.868z"/>
		<path fill-rule="evenodd" clip-rule="evenodd" fill="#FFFFFF" d="M82.254,439.066c3.635,4.857,3.027,8.466-3.203,11.542
			c2.683-4.18-4.104-9.214,3.434-11.534L82.254,439.066z"/>
		<path fill-rule="evenodd" clip-rule="evenodd" fill="#FFFFFF" d="M118.561,326.687c0.333,7.363,0.61,13.542,0.91,20.175
			C115.689,340.629,114.887,331.052,118.561,326.687z"/>
		<path fill-rule="evenodd" clip-rule="evenodd" fill="#FFFFFF" d="M109.227,611.935c-6.16-5.252-6.448-7.531-1.637-12.821
			C107.723,603.585,112.527,606.928,109.227,611.935z"/>
		<path fill-rule="evenodd" clip-rule="evenodd" fill="#FFFFFF" d="M88.242,503.345c4.079,3.039,3.778,6.795,1.773,10.83
			c-0.477,0.152-0.952,0.305-1.427,0.457c-2.005-3.739-3.723-7.483-0.12-11.28C88.463,503.352,88.242,503.345,88.242,503.345z"/>
		<path fill-rule="evenodd" clip-rule="evenodd" fill="#FFFFFF" d="M136.117,632.477c0.452,4.244,0.905,8.487,1.357,12.731
			c-0.722,0.071-1.443,0.145-2.165,0.216c0.146-4.345-4.603-8.144-1.306-12.838C134.708,632.55,135.413,632.514,136.117,632.477z"/>
		<path fill-rule="evenodd" clip-rule="evenodd" fill="#FFFFFF" d="M121.452,680.399c-2.917-0.107-5.835-0.215-8.753-0.323
			c-1.974-0.767-3.563-1.621-0.81-3.486c3.194,0.033,6.39,0.067,9.583,0.099C121.466,677.925,121.459,679.163,121.452,680.399z"/>
		<path fill-rule="evenodd" clip-rule="evenodd" fill="#FFFFFF" d="M200.073,669.271c-0.717-1.695-1.433-3.393-2.149-5.089
			c1.843,0.221,3.814,0.112,5.484,0.771c1.254,0.492,2.12,1.97,3.881,3.729c-2.692,0.273-4.666,0.475-6.64,0.676
			C200.46,669.312,200.268,669.283,200.073,669.271z"/>
		<path fill-rule="evenodd" clip-rule="evenodd" fill="#FFFFFF" d="M118.104,785.82c4.536-0.202,8.584-0.383,12.637-0.562
			C130.972,791.859,124.206,790.478,118.104,785.82z"/>
		<path fill-rule="evenodd" clip-rule="evenodd" fill="#FFFFFF" d="M88.588,514.632c0.475-0.152,0.95-0.305,1.427-0.457
			c0.614,1.446,1.822,2.934,1.718,4.325c-0.201,2.692-1.142,5.329-2.417,7.936C88.206,522.498,85.993,518.736,88.588,514.632z"/>
		<path fill-rule="evenodd" clip-rule="evenodd" fill="#FFFFFF" d="M112.687,329.983c-1.102-5.557-2.24-11.296-3.426-17.277
			C113.808,316.289,115.402,325.446,112.687,329.983z"/>
		<path fill-rule="evenodd" clip-rule="evenodd" fill="#FFFFFF" d="M128.59,587.142c-0.95,2.517-1.714,5.134-2.985,7.477
			c-0.303,0.557-2.305,0.19-3.526,0.248c-0.021-1.17-0.52-2.693,0.033-3.442c1.386-1.881,3.249-3.413,4.921-5.085
			C127.552,586.607,128.072,586.875,128.59,587.142z"/>
		<path fill-rule="evenodd" clip-rule="evenodd" fill="#FFFFFF" d="M133.443,781.444c-1.368-3.661-2.427-6.488-3.694-9.876
			c1.266-0.408,2.663-0.859,4.821-1.556C134.038,774.168,137.391,777.823,133.443,781.444z"/>
		<path fill-rule="evenodd" clip-rule="evenodd" fill="#FFFFFF" d="M112.579,504.163c0.143,6.037,0.288,12.074,0.461,19.371
			C109.529,516.269,109.915,510.158,112.579,504.163z"/>
		<path fill-rule="evenodd" clip-rule="evenodd" fill="#FFFFFF" d="M130.215,753.222c0.622-0.973,1.242-1.944,2.189-3.426
			c2.167,9.168,1.613,17.334-0.054,17.914c-0.694-4.808-1.412-9.777-2.132-14.743C130.219,752.971,130.215,753.222,130.215,753.222z
			"/>
		<path fill-rule="evenodd" clip-rule="evenodd" fill="#FFFFFF" d="M121.271,375.738c-0.104,0.481-0.209,0.962-0.313,1.443
			c-0.886,0.972-1.771,1.944-2.655,2.917c-0.434-0.251-0.868-0.502-1.303-0.753c0.555-4.213,1.108-8.425,1.663-12.638
			c0.228,0.029,0.456,0.058,0.685,0.086C119.989,369.774,120.629,372.756,121.271,375.738z"/>
		<path fill-rule="evenodd" clip-rule="evenodd" fill="#FFFFFF" d="M136.142,789.712c-3.736,5.074-8.884,5.927-13.932,2.798
			C126.553,791.638,131.068,790.731,136.142,789.712z"/>
		<path fill-rule="evenodd" clip-rule="evenodd" fill="#FFFFFF" d="M87.888,488.468c-0.497,0.006-0.994,0.013-1.492,0.019
			c-0.512-2.489-1.023-4.98-1.536-7.471c1.044-0.188,2.088-0.378,3.131-0.567C87.957,483.122,87.922,485.795,87.888,488.468z"/>
		<path fill-rule="evenodd" clip-rule="evenodd" fill="#FFFFFF" d="M128.168,739.636c-2.705,3.583-6.897,2.853-11.411-2.355
			C120.413,738.036,124.068,738.79,128.168,739.636z"/>
		<path fill-rule="evenodd" clip-rule="evenodd" fill="#FFFFFF" d="M122.485,658.746c0.888-1.299,1.777-2.596,3.576-5.226
			c0.102,4.474,0.255,7.488,0.073,10.48c-0.015,0.225-2.418,0.303-3.861,0.466c0.086-2.456,0.146-4.202,0.207-5.954
			C122.479,658.504,122.485,658.746,122.485,658.746z"/>
		<path fill-rule="evenodd" clip-rule="evenodd" fill="#FFFFFF" d="M89.269,101.298c0.569,3.7,1.033,6.711,1.548,10.051
			C84.208,108.206,83.905,106.514,89.269,101.298z"/>
		<path fill-rule="evenodd" clip-rule="evenodd" fill="#FFFFFF" d="M74.011,471.862c0.587,1.671,1.174,3.343,1.851,5.271
			c-1.696,1.23-3.373,2.449-5.052,3.666c-0.384-0.144-0.766-0.287-1.149-0.43c1.044-2.926,2.089-5.85,3.134-8.774
			C73.2,471.684,73.605,471.773,74.011,471.862z"/>
		<path fill-rule="evenodd" clip-rule="evenodd" fill="#FFFFFF" d="M125.329,694.206c0.278-0.879,0.557-1.758,0.835-2.636
			c0.246-0.572,0.494-1.145,0.809-1.875c3.251,5.464,2.81,8.421-2.377,10.539C124.875,697.941,125.102,696.073,125.329,694.206z"/>
		<path fill-rule="evenodd" clip-rule="evenodd" fill="#FFFFFF" d="M96.981,620.91c3.655,1.551,6.252,2.653,9.962,4.228
			C101.193,628.065,99.81,627.401,96.981,620.91z"/>
		<path fill-rule="evenodd" clip-rule="evenodd" fill="#FFFFFF" d="M152.848,605.886c0.176,0.424,0.351,0.846,0.525,1.27
			c-3.466,0.546-6.931,1.092-10.397,1.639c-0.143-0.669-0.285-1.341-0.427-2.011c2.074-0.534,4.123-1.283,6.231-1.527
			c1.386-0.161,2.856,0.408,4.292,0.65C153.076,605.907,152.848,605.886,152.848,605.886z"/>
		<path fill-rule="evenodd" clip-rule="evenodd" fill="#FFFFFF" d="M200.073,669.271c0.195,0.012,0.388,0.041,0.576,0.087
			c2.187,0.255,4.393,0.403,6.553,0.802c1.74,0.32,3.426,0.94,5.136,1.429c-0.139,0.547-0.275,1.094-0.414,1.641
			c-4.586-0.611-9.169-1.223-14.891-1.985C198.796,670.1,199.435,669.685,200.073,669.271z"/>
		<path fill-rule="evenodd" clip-rule="evenodd" fill="#FFFFFF" d="M97.8,634.296c0.571,0.61,1.144,1.222,1.717,1.832
			c-1.06,0.954-2.017,2.097-3.235,2.757c-0.397,0.216-1.868-0.645-2.163-1.315c-0.746-1.695-1.104-3.562-1.764-5.875
			c2.387,1.094,4.032,1.849,5.682,2.604C98.041,634.302,97.8,634.296,97.8,634.296z"/>
		<path fill-rule="evenodd" clip-rule="evenodd" fill="#FFFFFF" d="M127.535,725.842c0.059-0.16,0.104-0.324,0.137-0.492
			c0.066-3.74,0.134-7.482,0.201-11.224l-0.182,0.016c0.945,0.665,2.635,1.255,2.711,2.008c0.393,3.843,0.367,7.726,0.488,11.597
			c-0.42,0.181-0.838,0.361-1.258,0.543C128.933,727.474,128.235,726.658,127.535,725.842z"/>
		<path fill-rule="evenodd" clip-rule="evenodd" fill="#FFFFFF" d="M82.485,439.074c-1.19-0.391-2.382-0.782-3.812-1.252
			c-1.422-3.582-0.512-5.676,4.952-5.568c-0.496,2.438-0.938,4.625-1.376,6.812C82.254,439.066,82.485,439.074,82.485,439.074z"/>
		<path fill-rule="evenodd" clip-rule="evenodd" fill="#FFFFFF" d="M179.833,608.161c1.555-0.643,3.111-1.285,4.666-1.927
			c0.205,0.403,0.409,0.807,0.613,1.209c-3.336,1.393-6.672,2.786-10.016,4.181c-0.007,0.002,0.203-0.019,0.193-0.017
			c-1.241-1.23-2.471-2.46-3.903-3.892c3.477,0.168,6.075,0.294,8.658,0.422C180.031,608.139,179.833,608.161,179.833,608.161z"/>
		<path fill-rule="evenodd" clip-rule="evenodd" fill="#FFFFFF" d="M127.873,714.126c-0.298-3.278-0.596-6.557-0.893-9.834
			c0.775,0.016,1.552,0.03,2.327,0.046c-0.005,3.3,3.251,6.809-1.607,9.803C127.691,714.142,127.873,714.126,127.873,714.126z"/>
		<path fill-rule="evenodd" clip-rule="evenodd" fill="#FFFFFF" d="M135.376,448.407c-5.847,3.877-5.847,3.877-8.245,2.337
			C129.332,448.151,131.056,444.491,135.376,448.407z"/>
		<path fill-rule="evenodd" clip-rule="evenodd" fill="#FFFFFF" d="M134.231,463.582c-1.929,0.598-3.857,1.195-5.785,1.794
			c-0.134-1.38-0.269-2.761-0.402-4.141c1.984-0.058,3.968-0.115,5.951-0.173C134.074,461.902,134.152,462.742,134.231,463.582z"/>
		<path fill-rule="evenodd" clip-rule="evenodd" fill="#FFFFFF" d="M143.25,767.461c0.337,3.399,0.727,7.342,1.089,11.008
			C140.623,777.957,139.638,772.112,143.25,767.461z"/>
		<path fill-rule="evenodd" clip-rule="evenodd" fill="#FFFFFF" d="M128.181,473.023c2.019-0.104,4.037-0.206,6.056-0.308
			c0.237,0.411,0.474,0.821,0.711,1.233c-1.442,1.207-2.749,2.749-4.408,3.427c-0.525,0.214-1.992-1.877-3.027-2.913
			C127.735,473.983,127.958,473.502,128.181,473.023z"/>
		<path fill-rule="evenodd" clip-rule="evenodd" d="M93.463,181.601c4.322,0.871,8.646,1.742,13.812,2.783
			c-3.662,3.662-7.21,7.209-10.758,10.757c-3.634,3.634-7.268,7.268-11.703,11.704c3.484-0.166,5.846-0.279,8.451-0.403
			c0.424-2.286,0.826-4.459,1.501-8.099c4.195,2.631,7.779,4.441,10.629,7.053c0.539,0.493-1.837,4.169-3.734,6.364
			c1.881-5.232,2.176-8.991-5.101-8.518c-0.22,1.55-0.442,3.121-0.623,4.396c-4.422,1.352-8.737,2.67-13.454,4.112
			c2.496,2.76,2.496,2.76,8.822,1.043c-6.061,6.06-12.12,12.12-18.18,18.179c-0.215-0.164-0.43-0.327-0.645-0.49
			c3.526-4.027,7.053-8.055,11.554-13.194c-3.176-0.989-5.638-1.756-8.101-2.522c0.137-0.088,0.272-0.176,0.409-0.264
			c-3.106-1.9-6.212-3.801-9.458-5.787c0.139-2.584,5.778-4.849,0.95-7.55c-0.834-0.466-3.499,2.343-5.766,3.959
			c-1.765-1.686-0.85-4.42,1.273-6.287c1.589-1.398,4.71-2.902,6.197-2.235c5.099,2.287,2.272,6.767,1.856,10.48
			c6.213,4.086,6.222,4.095,10.746-1.138c3.703-4.282,7.462-8.521,11.019-12.923c1.016-1.257,1.412-3.017,2.092-4.546
			c-0.501-0.337-1.003-0.673-1.504-1.009c-6.26,5.109-12.52,10.219-18.78,15.328c-0.427-0.382-0.854-0.765-1.282-1.147
			c1.375-2.264,2.897-4.453,4.089-6.81c2.289-4.522,6.561-8.03,6.012-14.103c-0.142-1.569,3.814-3.507,6.382-5.697
			c0.194,2.943,0.313,4.746,0.433,6.548c-5.75,1.51-5.185,7.229-7.507,11.115c3.774-2.509,7.149-5.354,10.344-8.39
			C93.895,183.879,93.477,182.527,93.463,181.601z"/>
		<path fill-rule="evenodd" clip-rule="evenodd" d="M91.308,245.122c-3.634,0.274-6.792,0.513-10.575,0.799
			c5.024-4.553,9.566-8.321,13.641-12.542c1.532-1.587,2.128-4.183,2.735-6.43c0.082-0.302-2.68-2.117-3.429-1.763
			c-2.382,1.126-4.55,2.816-6.55,4.574c-0.692,0.609-0.648,2.054-1.471,2.919c-0.803-4.076,0.25-7.564,3.942-9.807
			c3.857-2.343,8.037-3.647,12.153-0.648c5.294,3.858,4.75,9.313-1.26,12.758c-3.791,2.173-7.745,4.059-11.626,6.074
			c0.126,0.448,0.252,0.896,0.378,1.344c2.749,0.495,5.498,0.989,9.083,1.633c-3.192,2.773-5.639,4.898-8.085,7.023
			c0.106,0.565,0.212,1.13,0.318,1.696c3.947-0.269,7.894-0.537,11.676-0.794c-0.298,0.439-0.966,1.425-1.805,2.665
			c1.486,1.486,3.009,3.009,4.532,4.532c-5.665-1.43-10.677-2.389-13.201,4.602c3.205,0.626,6.287,1.229,9.368,1.831
			c-0.021,0.377-0.042,0.753-0.063,1.13c-5.288,0.553-10.575,1.106-16.717,1.748c2.546-3.424,4.995-6.719,8.104-10.9
			c-4.002,0.261-7.124,0.464-10.247,0.668c-0.312-0.35-0.622-0.699-0.933-1.049C84.449,253.37,87.62,249.557,91.308,245.122z"/>
		<path fill-rule="evenodd" clip-rule="evenodd" d="M83.555,167.48c-0.869-3.197-1.739-6.395-2.706-9.953
			c-4.291,1.654-9.091-2.174-13.655,0.787c3.811-1.959,7.622-3.919,11.433-5.879c0.153-0.28,0.307-0.56,0.46-0.839
			c-2.849,0.105-5.697,0.21-8.545,0.315c-0.067-0.198-0.133-0.395-0.2-0.593c1.871-0.724,3.741-1.448,6.832-2.644
			c-4.047-2.333-7.294-4.206-10.541-6.077c0.205-0.416,0.409-0.831,0.614-1.246c5.424,2.491,10.849,4.982,16.316,7.494
			c-0.435,0.284-1.411,0.922-2.387,1.56c0.005,0.499,0.008,0.997,0.013,1.495c2.728-0.004,5.455-0.008,8.184-0.013
			c-1.87,1.518-3.74,3.036-5.611,4.553c0.716,0.02,1.43,0.04,2.146,0.06c-0.604,3.484-1.208,6.968-1.812,10.453
			C83.915,167.128,83.735,167.305,83.555,167.48z"/>
		<path fill-rule="evenodd" clip-rule="evenodd" d="M45.103,60.141c0.074-0.031,1.197-0.506,2.606-1.102
			c-0.692-3.92-1.399-7.923-2.106-11.926c0.303-0.197,0.606-0.394,0.909-0.591c4.735,4.735,9.471,9.471,14.903,14.903
			c-4.07,0.334-6.985,0.573-10.407,0.854c0.727,5.771,1.418,11.264,2.11,16.756c-0.52,0.104-1.04,0.207-1.559,0.31
			c-0.745-3.215-1.268-6.504-2.299-9.624C48.262,66.698,46.74,63.848,45.103,60.141z M55.7,58.744
			c-2.01-2.01-3.669-3.669-6.067-6.068c0.359,2.94,0.587,4.806,0.837,6.852C52.313,59.252,53.726,59.04,55.7,58.744z"/>
		<path fill-rule="evenodd" clip-rule="evenodd" d="M55.148,106.804c-2.796,1.336-5.593,2.674-8.34,3.987
			c0.495,2.16,0.94,4.105,1.625,7.096c-2.527-2.031-4.092-3.289-6.466-5.196c1.291,4.407,2.89,7.577,2.967,10.784
			c0.074,3.081-1.428,6.199-2.237,9.301c-0.501-0.024-1.001-0.048-1.502-0.072c-0.154-2.625-1.299-5.758-0.267-7.779
			c2.635-5.164,0.364-8.913-2.851-13.207c5.923-2.06,11.366-3.953,16.808-5.846C54.974,106.182,55.061,106.493,55.148,106.804z"/>
		<path fill-rule="evenodd" clip-rule="evenodd" fill="#FFFFFF" d="M93.463,181.601c0.014,0.926,0.432,2.278-0.023,2.71
			c-3.194,3.035-6.569,5.88-10.344,8.39c2.322-3.886,1.757-9.605,7.507-11.115C91.556,181.59,92.509,181.596,93.463,181.601z"/>
		<path fill-rule="evenodd" clip-rule="evenodd" d="M83.555,167.48c0.18-0.176,0.359-0.352,0.539-0.527
			c2.221,3.079,1.093,4.704-2.36,4.531c-4.626-0.231-5.686,1.959-5.147,6.05c0.371,2.82,0.271,5.702,0.425,9.646
			c-1.646-3.801-2.785-6.428-3.923-9.056c0.5-0.334,1.478-0.863,1.432-0.976c-2.246-5.533,0.989-6.705,5.464-7.321
			C81.258,169.653,82.37,168.295,83.555,167.48z"/>
		<path fill-rule="evenodd" clip-rule="evenodd" d="M36.916,81.063c0.213-1.696,0.39-3.104,0.566-4.514
			c0.444-0.295,0.888-0.59,1.332-0.885c2.038,2.417,4.075,4.835,6.113,7.253c-0.309,0.327-0.617,0.654-0.926,0.981
			C41.781,83.011,39.561,82.122,36.916,81.063z"/>
		<path fill-rule="evenodd" clip-rule="evenodd" d="M36.156,69.407c1.325,1.325,2.649,2.649,3.974,3.974
			c-0.122,0.483-0.244,0.966-0.365,1.449c-1.636-0.116-3.738,0.324-4.754-0.528c-0.765-0.643-0.138-2.943-0.13-4.505
			C35.306,69.667,35.731,69.537,36.156,69.407z"/>
		<path fill-rule="evenodd" clip-rule="evenodd" d="M106.858,521.371c-0.631-1.004-1.262-2.008-2.716-4.319
			c-0.894,3.515-1.461,5.744-2.038,8.015c2.267,0.772,3.963,1.35,6.014,2.049c-2.701,0.794-4.799,1.411-6.897,2.027
			c0.096,0.53,0.191,1.062,0.287,1.593c2.268,0.287,4.535,0.574,6.803,0.861c-2.428,1.894-8.023-1.145-6.743,5.286
			c1.729,0.229,3.308,0.438,5.39,0.715c-2.387,1.204-4.02,2.029-5.653,2.854c0.208,0.424,0.417,0.848,0.626,1.271
			c2.2-0.442,4.4-0.886,7.096-1.427c-0.293,5.683,1.041,11.382-3.504,15.97c-8.214-5.876-8.206-32.937,0.119-41.217
			c0.687,2.228,1.277,4.145,1.868,6.062C107.292,521.197,107.075,521.284,106.858,521.371z M104.388,553.495
			c4.527-3.216,2.88-7.12,2.316-10.929C101.122,543.699,100.548,546.228,104.388,553.495z"/>
		<path fill-rule="evenodd" clip-rule="evenodd" d="M108.79,384.792c-1.646,5.824-3.294,11.648-5.33,18.853
			c-1.461-2.963-3.473-5.455-3.687-8.093c-0.123-1.526,2.756-3.207,4.088-4.966c1.403-1.852,2.573-3.88,3.846-5.831
			C108.068,384.767,108.428,384.779,108.79,384.792z"/>
		<path fill-rule="evenodd" clip-rule="evenodd" d="M113.611,428.421c-1.268-1.268-2.536-2.536-4.198-4.198
			c1.312-0.03,2.54-0.06,3.846-0.09c-1.519-3.024-3.019-6.012-5.096-10.15c2.162,2.162,3.457,3.457,4.792,4.792
			c0.964-3.398,0.964-3.398-5.499-8.775c2.436,1.025,4.873,2.052,8.423,3.546c-0.459,4.521-0.984,9.696-1.51,14.87
			C114.116,428.417,113.863,428.419,113.611,428.421z"/>
		<path fill-rule="evenodd" clip-rule="evenodd" d="M104.776,489.269c1.608,0.562,3.218,1.124,5.194,1.813
			c0.547-1.077,1.113-2.192,1.679-3.307c0.424,0.162,0.849,0.323,1.272,0.485c-0.914,2.162-1.829,4.325-2.743,6.488
			c-2.153-1.206-4.304-2.412-6.456-3.618C104.074,490.511,104.425,489.89,104.776,489.269z"/>
		<path fill-rule="evenodd" clip-rule="evenodd" fill="#FFFFFF" d="M55.7,58.744c-1.974,0.296-3.387,0.508-5.23,0.784
			c-0.25-2.045-0.478-3.911-0.837-6.852C52.031,55.075,53.69,56.734,55.7,58.744z"/>
		<path fill-rule="evenodd" clip-rule="evenodd" fill="#FFFFFF" d="M104.388,553.495c-3.84-7.267-3.267-9.796,2.316-10.929
			C107.268,546.375,108.916,550.279,104.388,553.495z"/>
	</g>
</g>
</svg>
